<svg width="135" height="32" viewBox="0 0 135 32" fill="none" xmlns="http://www.w3.org/2000/svg">
<path d="M0.306 25L11.016 1.2H15.368L26.112 25H21.488L12.274 3.546H14.042L4.862 25H0.306ZM5.236 19.492L6.426 16.024H19.278L20.468 19.492H5.236ZM34.5257 25.288C36.1044 25.288 37.5017 25.064 38.7177 24.616C39.955 24.168 40.9257 23.5493 41.6297 22.76C42.3337 21.9493 42.6857 21.0213 42.6857 19.976C42.6857 18.6747 42.1417 17.6507 41.0537 16.904C39.9657 16.136 38.4724 15.752 36.5737 15.752L36.4457 16.616C37.555 16.616 38.5364 16.4347 39.3897 16.072C40.2644 15.7093 40.947 15.208 41.4377 14.568C41.9497 13.9067 42.2057 13.1707 42.2057 12.36C42.2057 11.3787 41.8537 10.5253 41.1497 9.8C40.4457 9.07467 39.4857 8.52 38.2697 8.136C37.0537 7.752 35.667 7.592 34.1097 7.656C33.0857 7.67733 32.051 7.82667 31.0057 8.104C29.9817 8.36 28.9257 8.73333 27.8377 9.224L28.8617 12.168C29.8004 11.7627 30.7177 11.4533 31.6137 11.24C32.531 11.0267 33.4164 10.92 34.2697 10.92C35.0804 10.92 35.7737 11.0053 36.3497 11.176C36.9257 11.3253 37.363 11.56 37.6617 11.88C37.9817 12.1787 38.1417 12.5307 38.1417 12.936C38.1417 13.3413 38.0137 13.6933 37.7577 13.992C37.5017 14.2907 37.1284 14.5147 36.6377 14.664C36.1684 14.8133 35.5924 14.888 34.9097 14.888H31.9337V17.576H35.2297C36.3177 17.576 37.1497 17.7573 37.7257 18.12C38.323 18.4613 38.6217 18.9733 38.6217 19.656C38.6217 20.1253 38.4404 20.5413 38.0777 20.904C37.7364 21.2667 37.2457 21.544 36.6057 21.736C35.9657 21.9067 35.1977 21.992 34.3017 21.992C33.2564 21.992 32.211 21.864 31.1657 21.608C30.1204 21.352 29.1817 20.9893 28.3497 20.52L27.2297 23.496C28.2537 24.072 29.395 24.52 30.6537 24.84C31.9337 25.1387 33.2244 25.288 34.5257 25.288ZM54.9652 25.32C53.5572 25.32 52.2985 25.1067 51.1892 24.68C50.0799 24.2533 49.1199 23.6027 48.3092 22.728C47.5199 21.832 46.9119 20.7013 46.4852 19.336C46.0585 17.9707 45.8452 16.3493 45.8452 14.472C45.8452 13.1067 45.9625 11.8587 46.1972 10.728C46.4319 9.59733 46.7839 8.584 47.2532 7.688C47.7225 6.77067 48.3092 5.96 49.0132 5.256C49.7385 4.552 50.5812 3.96533 51.5412 3.496C52.5012 3.02667 53.5892 2.664 54.8052 2.408L62.7412 0.711998L63.3172 4.296L56.1172 5.768C55.7119 5.85333 55.2212 5.98133 54.6452 6.152C54.0905 6.30133 53.5145 6.536 52.9172 6.856C52.3412 7.15467 51.7972 7.592 51.2852 8.168C50.7945 8.72267 50.3892 9.448 50.0692 10.344C49.7705 11.2187 49.6212 12.3173 49.6212 13.64C49.6212 14.0453 49.6319 14.3547 49.6532 14.568C49.6959 14.76 49.7279 14.9733 49.7492 15.208C49.7919 15.4213 49.8132 15.7413 49.8132 16.168L48.3092 14.6C48.7359 13.512 49.3225 12.584 50.0692 11.816C50.8372 11.0267 51.7225 10.4293 52.7252 10.024C53.7492 9.59733 54.8585 9.384 56.0532 9.384C57.6532 9.384 59.0719 9.71467 60.3092 10.376C61.5465 11.0373 62.5172 11.9653 63.2212 13.16C63.9252 14.3547 64.2772 15.7093 64.2772 17.224C64.2772 18.8027 63.8932 20.2 63.1252 21.416C62.3572 22.632 61.2692 23.592 59.8612 24.296C58.4745 24.9787 56.8425 25.32 54.9652 25.32ZM55.2852 22.088C56.2452 22.088 57.0879 21.8853 57.8132 21.48C58.5599 21.0533 59.1359 20.4773 59.5412 19.752C59.9679 19.0267 60.1812 18.216 60.1812 17.32C60.1812 16.424 59.9679 15.6453 59.5412 14.984C59.1359 14.3013 58.5599 13.7573 57.8132 13.352C57.0879 12.9467 56.2239 12.744 55.2212 12.744C54.2612 12.744 53.3972 12.936 52.6292 13.32C51.8825 13.704 51.2959 14.2373 50.8692 14.92C50.4639 15.5813 50.2612 16.3493 50.2612 17.224C50.2612 18.12 50.4745 18.9413 50.9012 19.688C51.3279 20.4347 51.9145 21.0213 52.6612 21.448C53.4292 21.8747 54.3039 22.088 55.2852 22.088ZM69.2162 31.432C68.3842 31.432 67.5522 31.2933 66.7202 31.016C65.8882 30.7387 65.1949 30.3547 64.6402 29.864L66.2402 26.92C66.6455 27.2827 67.1042 27.5707 67.6162 27.784C68.1282 27.9973 68.6509 28.104 69.1842 28.104C69.9095 28.104 70.4962 27.9227 70.9442 27.56C71.3922 27.1973 71.8082 26.5893 72.1922 25.736L73.1842 23.496L73.5042 23.016L79.9682 7.912H83.8082L75.8082 26.376C75.2749 27.656 74.6775 28.6693 74.0162 29.416C73.3762 30.1627 72.6509 30.6853 71.8402 30.984C71.0509 31.2827 70.1762 31.432 69.2162 31.432ZM72.7362 25.608L65.0242 7.912H69.1842L75.4562 22.664L72.7362 25.608ZM98.8424 25L92.6664 16.808L95.9304 14.792L103.546 25H98.8424ZM86.5864 25V7.912H90.5864V25H86.5864ZM89.4024 18.152V14.824H95.1944V18.152H89.4024ZM96.3144 16.936L92.5704 16.488L98.8424 7.912H103.13L96.3144 16.936ZM116.423 25V21.544L116.199 20.808V14.76C116.199 13.5867 115.847 12.68 115.143 12.04C114.439 11.3787 113.373 11.048 111.943 11.048C110.983 11.048 110.034 11.1973 109.095 11.496C108.178 11.7947 107.399 12.2107 106.759 12.744L105.191 9.832C106.109 9.128 107.197 8.60533 108.455 8.264C109.735 7.90133 111.058 7.72 112.423 7.72C114.898 7.72 116.807 8.31733 118.151 9.512C119.517 10.6853 120.199 12.5093 120.199 14.984V25H116.423ZM111.047 25.224C109.767 25.224 108.647 25.0107 107.687 24.584C106.727 24.136 105.981 23.528 105.447 22.76C104.935 21.9707 104.679 21.0853 104.679 20.104C104.679 19.144 104.903 18.28 105.351 17.512C105.821 16.744 106.578 16.136 107.623 15.688C108.669 15.24 110.055 15.016 111.783 15.016H116.743V17.672H112.071C110.706 17.672 109.789 17.896 109.319 18.344C108.85 18.7707 108.615 19.304 108.615 19.944C108.615 20.6693 108.903 21.2453 109.479 21.672C110.055 22.0987 110.855 22.312 111.879 22.312C112.861 22.312 113.735 22.088 114.503 21.64C115.293 21.192 115.858 20.5307 116.199 19.656L116.871 22.056C116.487 23.0587 115.794 23.8373 114.791 24.392C113.81 24.9467 112.562 25.224 111.047 25.224ZM125.261 17.9C125.901 17.9 126.444 18.0367 126.891 18.31C127.344 18.5767 127.691 18.9667 127.931 19.48C128.171 19.9933 128.291 20.6267 128.291 21.38C128.291 22.18 128.144 22.8567 127.851 23.41C127.564 23.9633 127.164 24.3833 126.651 24.67C126.138 24.9567 125.541 25.1 124.861 25.1C124.508 25.1 124.171 25.0633 123.851 24.99C123.531 24.9167 123.254 24.8033 123.021 24.65L123.501 23.67C123.694 23.7967 123.904 23.8867 124.131 23.94C124.358 23.9867 124.591 24.01 124.831 24.01C125.491 24.01 126.014 23.8067 126.401 23.4C126.788 22.9933 126.981 22.3933 126.981 21.6C126.981 21.4733 126.978 21.3267 126.971 21.16C126.964 20.9867 126.941 20.8133 126.901 20.64L127.301 21.08C127.188 21.3533 127.024 21.5833 126.811 21.77C126.598 21.95 126.348 22.0867 126.061 22.18C125.774 22.2733 125.458 22.32 125.111 22.32C124.658 22.32 124.248 22.2333 123.881 22.06C123.521 21.88 123.234 21.63 123.021 21.31C122.808 20.9833 122.701 20.6033 122.701 20.17C122.701 19.7033 122.814 19.3033 123.041 18.97C123.268 18.63 123.574 18.3667 123.961 18.18C124.354 17.9933 124.788 17.9 125.261 17.9ZM125.331 18.92C125.064 18.92 124.828 18.97 124.621 19.07C124.414 19.1633 124.251 19.3 124.131 19.48C124.018 19.6533 123.961 19.8633 123.961 20.11C123.961 20.4767 124.088 20.7667 124.341 20.98C124.594 21.1933 124.934 21.3 125.361 21.3C125.641 21.3 125.888 21.25 126.101 21.15C126.314 21.0433 126.481 20.9 126.601 20.72C126.721 20.5333 126.781 20.3267 126.781 20.1C126.781 19.88 126.724 19.6833 126.611 19.51C126.498 19.33 126.334 19.1867 126.121 19.08C125.908 18.9733 125.644 18.92 125.331 18.92ZM132.2 25.1C131.567 25.1 131.024 24.9667 130.57 24.7C130.117 24.4267 129.77 24.0333 129.53 23.52C129.29 23.0067 129.17 22.3733 129.17 21.62C129.17 20.82 129.314 20.1433 129.6 19.59C129.894 19.0367 130.297 18.6167 130.81 18.33C131.33 18.0433 131.927 17.9 132.6 17.9C132.954 17.9 133.29 17.9367 133.61 18.01C133.937 18.0833 134.214 18.1967 134.44 18.35L133.96 19.33C133.767 19.2033 133.557 19.1167 133.33 19.07C133.11 19.0167 132.877 18.99 132.63 18.99C131.97 18.99 131.447 19.1933 131.06 19.6C130.674 20.0067 130.48 20.6067 130.48 21.4C130.48 21.5267 130.484 21.6767 130.49 21.85C130.497 22.0167 130.52 22.1867 130.56 22.36L130.16 21.92C130.28 21.6467 130.444 21.42 130.65 21.24C130.864 21.0533 131.114 20.9133 131.4 20.82C131.694 20.7267 132.01 20.68 132.35 20.68C132.81 20.68 133.22 20.77 133.58 20.95C133.94 21.1233 134.227 21.3733 134.44 21.7C134.654 22.02 134.76 22.3967 134.76 22.83C134.76 23.29 134.647 23.69 134.42 24.03C134.194 24.37 133.887 24.6333 133.5 24.82C133.114 25.0067 132.68 25.1 132.2 25.1ZM132.13 24.08C132.397 24.08 132.634 24.0333 132.84 23.94C133.047 23.84 133.207 23.7 133.32 23.52C133.44 23.34 133.5 23.13 133.5 22.89C133.5 22.5233 133.374 22.2333 133.12 22.02C132.867 21.8067 132.527 21.7 132.1 21.7C131.82 21.7 131.574 21.7533 131.36 21.86C131.154 21.96 130.987 22.1 130.86 22.28C130.74 22.46 130.68 22.6667 130.68 22.9C130.68 23.1133 130.737 23.31 130.85 23.49C130.964 23.67 131.127 23.8133 131.34 23.92C131.56 24.0267 131.824 24.08 132.13 24.08Z" fill="#49516F"/>
</svg>
