<svg width="32" height="32" viewBox="0 0 32 32" fill="none" xmlns="http://www.w3.org/2000/svg">
<path d="M28.107 9.33335C27.8766 8.93418 27.5467 8.60153 27.1494 8.36785C26.7522 8.13417 26.3012 8.00744 25.8403 8.00002H8.77366L8.00033 4.98669C7.92219 4.6958 7.74787 4.43994 7.50576 4.26078C7.26365 4.08162 6.96801 3.98971 6.66699 4.00002H4.00033C3.6467 4.00002 3.30756 4.14049 3.05752 4.39054C2.80747 4.64059 2.66699 4.97973 2.66699 5.33335C2.66699 5.68697 2.80747 6.02611 3.05752 6.27616C3.30756 6.52621 3.6467 6.66669 4.00033 6.66669H5.65366L9.33366 20.3467C9.41179 20.6376 9.58611 20.8934 9.82822 21.0726C10.0703 21.2518 10.366 21.3437 10.667 21.3334H22.667C22.9132 21.3326 23.1544 21.2637 23.3639 21.1343C23.5733 21.0048 23.7429 20.8199 23.8537 20.6L28.227 11.8534C28.4165 11.456 28.5048 11.018 28.4839 10.5783C28.4629 10.1385 28.3334 9.71086 28.107 9.33335Z" fill="#49516F"/>
<path d="M10 28C11.1046 28 12 27.1046 12 26C12 24.8954 11.1046 24 10 24C8.89543 24 8 24.8954 8 26C8 27.1046 8.89543 28 10 28Z" fill="#49516F"/>
<path d="M23.333 28C24.4376 28 25.333 27.1046 25.333 26C25.333 24.8954 24.4376 24 23.333 24C22.2284 24 21.333 24.8954 21.333 26C21.333 27.1046 22.2284 28 23.333 28Z" fill="#49516F"/>
</svg>
