<svg width="32" height="32" viewBox="0 0 32 32" fill="none" xmlns="http://www.w3.org/2000/svg">
<path d="M15.6935 25.078C16.0835 25.078 16.8895 24.922 17.6435 24.662C19.4895 24.012 21.5435 23.804 23.5975 23.804C25.1835 23.804 26.7695 23.986 28.1995 24.454C28.3815 24.532 28.6155 24.584 28.8235 24.584C29.1615 24.584 29.5255 24.22 29.5255 23.934V22.478C29.5255 22.192 29.6815 21.308 29.6815 21.152C29.6555 19.02 28.3035 11.948 28.0695 10.206C27.9655 9.4 27.9655 8.594 27.7055 7.996C27.4195 7.346 26.6395 7.086 26.0675 6.878C24.3255 6.254 22.4795 5.656 20.6335 5.656C18.8395 5.656 16.9675 6.202 15.6935 7.762C14.4195 6.202 12.5215 5.656 10.7275 5.656C8.90752 5.656 7.03552 6.228 5.29352 6.878C4.72152 7.086 3.91552 7.346 3.65552 7.996C3.42152 8.594 3.39552 9.348 3.29152 10.206C3.05752 11.948 1.73152 19.02 1.67952 21.152C1.67952 21.308 1.86152 22.192 1.86152 22.478V22.764C1.86152 23.024 1.83552 23.284 1.83552 23.544C1.83552 23.752 1.80952 23.856 1.80952 23.934C1.80952 24.35 2.32952 24.584 2.53752 24.584C2.74552 24.584 2.95352 24.506 3.13552 24.454C4.59152 23.96 6.20352 23.804 7.76352 23.804C9.81752 23.804 11.9235 24.012 13.7175 24.662C14.4715 24.948 15.3035 25.078 15.6935 25.078ZM14.8875 21.074C14.6535 21.074 14.2115 20.788 13.8995 20.632C12.5475 19.982 11.0915 19.592 8.98552 19.592C7.29552 19.592 5.65752 19.852 4.04552 20.32C3.75952 20.398 3.31752 20.606 3.21352 20.606C3.08352 20.606 3.00552 20.424 3.00552 20.268C3.00552 19.748 3.13552 19.124 3.23952 18.578C3.55152 16.758 3.88952 14.912 4.14952 13.066C4.33152 11.844 4.40952 10.57 4.61752 9.348C4.69552 8.828 4.77352 8.464 5.18952 8.152C5.99552 7.58 7.00952 7.398 7.94552 7.164C8.90752 6.93 9.79152 6.748 10.7535 6.748C11.8975 6.748 13.0415 7.138 13.9775 7.892C14.4975 8.308 15.0695 8.698 15.1215 9.296C15.0175 11.168 15.0175 14.704 15.0175 17.356V20.84C15.0175 21.022 14.9655 21.074 14.8875 21.074ZM16.4735 21.074C16.3695 21.074 16.3435 21.048 16.3435 20.84V17.564C16.3435 14.886 16.3435 11.22 16.2395 9.296C16.2915 8.698 16.8635 8.308 17.3835 7.892C18.3195 7.138 19.4635 6.748 20.6075 6.748C21.5435 6.748 22.4795 6.93 23.4415 7.164C24.3775 7.398 25.3655 7.58 26.1715 8.152C26.5875 8.464 26.6655 8.828 26.7435 9.348C26.9255 10.57 27.0555 11.844 27.2115 13.066C27.5235 15.328 28.0175 17.564 28.2775 19.826C28.3035 19.956 28.3555 20.112 28.3555 20.268C28.3555 20.372 28.3295 20.476 28.2775 20.554C28.2255 20.606 28.1995 20.606 28.1475 20.606C28.0435 20.606 27.5755 20.398 27.3155 20.32C25.7295 19.852 24.0655 19.592 22.4015 19.592C20.3735 19.592 18.6055 19.982 16.8115 20.97C16.7075 21.022 16.5775 21.074 16.4735 21.074ZM12.9635 10.206C13.2755 10.206 13.5615 9.92 13.5615 9.634C13.5615 9.478 13.4575 9.296 13.2755 9.218C12.2095 8.75 10.9615 8.464 9.71352 8.464C8.49152 8.464 7.32152 8.724 6.28152 9.218C6.09952 9.296 6.04752 9.4 6.04752 9.556C6.04752 9.816 6.25552 10.076 6.56752 10.076C6.61952 10.076 6.69752 10.05 6.77552 10.024C7.58152 9.634 8.54352 9.452 9.50552 9.452C10.6495 9.452 11.7935 9.712 12.7295 10.154C12.8075 10.206 12.8855 10.206 12.9635 10.206ZM18.3975 10.206C18.4495 10.206 18.5535 10.206 18.6315 10.154C19.5675 9.712 20.7115 9.452 21.8555 9.452C22.8175 9.452 23.7795 9.634 24.6115 10.024C24.6635 10.05 24.7415 10.076 24.8195 10.076C25.1055 10.076 25.3135 9.816 25.3135 9.556C25.3135 9.426 25.2615 9.296 25.0795 9.218C24.0655 8.724 22.8695 8.464 21.6475 8.464C20.5295 8.464 17.7995 8.854 17.7995 9.634C17.7995 9.92 18.0595 10.206 18.3975 10.206ZM12.9635 12.728C13.2495 12.728 13.4315 12.442 13.4315 12.182C13.4315 12.026 13.3795 11.87 13.1975 11.792C11.9495 11.246 10.4935 10.908 9.06352 10.908C7.97152 10.908 6.87952 11.09 5.89152 11.61C5.73552 11.688 5.68352 11.818 5.68352 11.948C5.68352 12.156 5.89152 12.364 6.12552 12.364C6.20352 12.364 6.22952 12.364 6.30752 12.338C7.08752 12 7.91952 11.844 8.75152 11.844C10.1295 11.844 11.5595 12.234 12.8075 12.702C12.8595 12.702 12.9115 12.728 12.9635 12.728ZM18.3975 12.728C18.4495 12.728 18.5015 12.702 18.5535 12.702C19.8015 12.234 21.2315 11.844 22.6095 11.844C23.4415 11.844 24.2735 12 25.0535 12.338C25.1315 12.364 25.1835 12.364 25.2095 12.364C25.4695 12.364 25.7035 12.13 25.7035 11.948C25.7035 11.818 25.6255 11.688 25.4695 11.61C24.5075 11.09 23.4155 10.908 22.2975 10.908C20.8675 10.908 19.4115 11.246 18.1635 11.792C17.9815 11.87 17.9295 12.026 17.9295 12.182C17.9295 12.442 18.1375 12.728 18.3975 12.728ZM12.9115 15.224C13.1455 15.224 13.2755 14.99 13.2755 14.756C13.2755 14.626 13.2495 14.522 13.1455 14.418L13.0935 14.366C12.8595 14.158 12.5215 14.08 12.2355 13.976C11.2735 13.612 10.1295 13.43 9.01152 13.43C7.78952 13.43 6.51552 13.664 5.47552 14.21C5.31952 14.288 5.26752 14.392 5.26752 14.522C5.26752 14.73 5.47552 14.964 5.70952 14.964C5.73552 14.964 5.78752 14.964 5.81352 14.938C6.95752 14.626 8.02352 14.444 9.21952 14.444C10.0255 14.444 10.7795 14.574 11.5595 14.782C11.8195 14.86 12.0535 14.912 12.2875 15.016C12.4695 15.094 12.7295 15.224 12.9115 15.224ZM18.4495 15.224C18.6575 15.224 18.8915 15.094 19.0735 15.016C19.3335 14.886 19.5415 14.86 19.8015 14.782C20.6335 14.548 21.4395 14.444 22.3235 14.444C23.4415 14.444 24.4555 14.652 25.5475 14.938C25.5735 14.964 25.5995 14.964 25.6515 14.964C25.8855 14.964 26.0935 14.73 26.0935 14.522C26.0935 14.392 26.0415 14.288 25.8855 14.21C24.8455 13.664 23.5715 13.43 22.3495 13.43C21.2315 13.43 20.0615 13.612 19.1255 13.976C18.8395 14.08 18.5015 14.184 18.2675 14.366L18.2155 14.418C18.1375 14.522 18.0855 14.652 18.0855 14.782C18.0855 15.016 18.2155 15.224 18.4495 15.224ZM12.6255 17.772C12.9115 17.772 13.1455 17.486 13.1455 17.252C13.1455 17.07 13.0675 16.966 12.8595 16.862C11.7155 16.316 10.5195 16.082 9.27152 16.082C7.97152 16.082 6.64552 16.342 5.39752 16.784C5.18952 16.862 5.13752 17.018 5.13752 17.148C5.13752 17.382 5.29352 17.59 5.52752 17.59C5.57952 17.59 5.60552 17.59 5.65752 17.564C6.77552 17.226 7.73752 16.914 8.93352 16.914C10.0775 16.914 11.3515 17.304 12.3915 17.72C12.4695 17.746 12.5475 17.772 12.6255 17.772ZM18.7355 17.772C18.8135 17.772 18.8915 17.746 18.9695 17.72C20.0095 17.304 21.2835 16.914 22.4535 16.914C23.6235 16.914 24.5855 17.252 25.7035 17.564C25.7555 17.59 25.7815 17.59 25.8335 17.59C26.0935 17.59 26.2235 17.382 26.2235 17.174C26.2235 17.018 26.1715 16.862 25.9635 16.784C24.7155 16.342 23.3895 16.082 22.0635 16.082C20.8415 16.082 19.6455 16.316 18.5015 16.862C18.2935 16.966 18.2155 17.07 18.2155 17.252C18.2155 17.486 18.4495 17.772 18.7355 17.772Z" fill="#49516F"/>
</svg>
