<svg width="18" height="18" viewBox="0 0 18 18" fill="none" xmlns="http://www.w3.org/2000/svg">
<path d="M16.9015 16.9013C17.1246 16.6781 17.25 16.3754 17.25 16.0598V1.94015C17.25 1.94007 17.25 1.94 17.25 1.93993C17.2499 1.62439 17.1244 1.32181 16.9013 1.09868C16.6782 0.875547 16.3756 0.750136 16.0601 0.75C16.06 0.75 16.0599 0.75 16.0599 0.75H1.94023C1.94012 0.75 1.94001 0.75 1.9399 0.75C1.6244 0.750224 1.32187 0.875658 1.09877 1.09877C0.87566 1.32187 0.750224 1.62441 0.75 1.93993C0.75 1.94 0.75 1.94007 0.75 1.94013C0.75 1.94017 0.75 1.94022 0.75 1.94026L0.75 16.0598C0.75 16.3754 0.875373 16.6781 1.09854 16.9013C1.32168 17.1245 1.62432 17.2499 1.9399 17.25L16.9015 16.9013ZM16.9015 16.9013C16.6783 17.1245 16.3757 17.2499 16.0601 17.25M16.9015 16.9013L16.0601 17.25M16.0601 17.25C16.0601 17.25 16.06 17.25 16.06 17.25M16.0601 17.25H16.06M16.06 17.25H1.94001H16.06Z" stroke="#49516F" stroke-width="1.5"/>
</svg>
