<svg width="18" height="19" viewBox="0 0 18 19" fill="none" xmlns="http://www.w3.org/2000/svg">
<g clip-path="url(#clip0_235_2910)">
<path d="M18 16.4197C18 16.9342 17.7956 17.4276 17.4318 17.7915C17.068 18.1553 16.5746 18.3598 16.0601 18.3598H1.9399C1.42538 18.3598 0.931959 18.1553 0.568166 17.7915C0.204373 17.4276 -5.44126e-09 16.9342 0 16.4197L0 2.30002C0.000224329 1.7856 0.204678 1.29231 0.568431 0.928554C0.932184 0.564801 1.42547 0.360347 1.9399 0.360123L16.0601 0.360123C16.5745 0.360272 17.0679 0.564702 17.4317 0.928471C17.7954 1.29224 17.9999 1.78557 18 2.30002V16.4197Z" fill="#49516F"/>
<path d="M15.1502 4.36624C14.8862 4.1408 14.5436 4.02939 14.1975 4.0565C13.8514 4.08361 13.5303 4.24701 13.3046 4.51081L7.66839 11.1025L4.63624 8.57121C4.5162 8.46795 4.37683 8.38959 4.22624 8.34067C4.07565 8.29174 3.91684 8.27324 3.75903 8.28624C3.60123 8.29924 3.44758 8.34347 3.30702 8.41638C3.16647 8.48928 3.0418 8.58939 2.94028 8.7109C2.83875 8.8324 2.76239 8.97288 2.71563 9.12416C2.66888 9.27543 2.65266 9.4345 2.66791 9.5921C2.68317 9.7497 2.72961 9.9027 2.80452 10.0422C2.87943 10.1817 2.98132 10.3049 3.10427 10.4047L7.16664 13.7966C7.29191 13.901 7.43734 13.9785 7.59387 14.0243C7.7504 14.0701 7.91469 14.0831 8.07649 14.0626C8.24808 14.0494 8.41537 14.0024 8.56879 13.9244C8.72221 13.8464 8.85875 13.7389 8.97058 13.6081L15.2939 6.21124C15.5191 5.94715 15.6303 5.60451 15.6032 5.25851C15.576 4.9125 15.4127 4.59141 15.1491 4.36568" fill="#F4F4F4"/>
</g>
<defs>
<clipPath id="clip0_235_2910">
<rect width="18" height="18" fill="white" transform="translate(0 0.389374)"/>
</clipPath>
</defs>
</svg>
