<svg width="414" height="300" viewBox="0 0 414 300" fill="none" xmlns="http://www.w3.org/2000/svg">
<g clip-path="url(#clip0_38_5218)">
<path d="M263.822 224.901V297.219H82.586C61.9366 297.219 45.1361 280.997 45.1361 261.06C45.1361 241.122 61.9366 224.901 82.586 224.901H263.822Z" fill="#F2F2F2"/>
<path d="M268.273 296.662C268.273 297.4 267.98 298.107 267.458 298.629C266.936 299.15 266.229 299.443 265.491 299.444H79.3579C69.2487 299.444 59.5535 295.429 52.4052 288.283C45.2569 281.136 41.241 271.444 41.241 261.338C41.241 251.231 45.2569 241.539 52.4052 234.393C59.5535 227.247 69.2487 223.232 79.3579 223.232H265.491C266.229 223.232 266.937 223.525 267.458 224.047C267.98 224.568 268.273 225.276 268.273 226.013C268.273 226.751 267.98 227.458 267.458 227.98C266.937 228.502 266.229 228.795 265.491 228.795H79.3579C70.7245 228.795 62.4446 232.223 56.3399 238.326C50.2351 244.429 46.8055 252.707 46.8055 261.338C46.8055 269.969 50.2351 278.246 56.3399 284.349C62.4446 290.452 70.7245 293.881 79.3579 293.881H265.491C266.229 293.881 266.936 294.174 267.458 294.696C267.98 295.217 268.273 295.925 268.273 296.662Z" fill="#49516F"/>
<path d="M263.822 241.59H69.0635C68.9159 241.59 68.7744 241.531 68.67 241.427C68.5657 241.322 68.507 241.181 68.507 241.033C68.507 240.886 68.5657 240.744 68.67 240.64C68.7744 240.536 68.9159 240.477 69.0635 240.477H263.822C263.969 240.477 264.111 240.536 264.215 240.64C264.319 240.744 264.378 240.886 264.378 241.033C264.378 241.181 264.319 241.322 264.215 241.427C264.111 241.531 263.969 241.59 263.822 241.59Z" fill="#CCCCCC"/>
<path d="M263.822 254.941H69.0635C68.9159 254.941 68.7744 254.882 68.67 254.778C68.5657 254.673 68.507 254.532 68.507 254.384C68.507 254.237 68.5657 254.095 68.67 253.991C68.7744 253.886 68.9159 253.828 69.0635 253.828H263.822C263.969 253.828 264.111 253.886 264.215 253.991C264.319 254.095 264.378 254.237 264.378 254.384C264.378 254.532 264.319 254.673 264.215 254.778C264.111 254.882 263.969 254.941 263.822 254.941Z" fill="#CCCCCC"/>
<path d="M263.822 268.292H69.0635C68.9159 268.292 68.7744 268.233 68.67 268.129C68.5657 268.024 68.507 267.883 68.507 267.735C68.507 267.588 68.5657 267.446 68.67 267.342C68.7744 267.237 68.9159 267.179 69.0635 267.179H263.822C263.969 267.179 264.111 267.237 264.215 267.342C264.319 267.446 264.378 267.588 264.378 267.735C264.378 267.883 264.319 268.024 264.215 268.129C264.111 268.233 263.969 268.292 263.822 268.292Z" fill="#CCCCCC"/>
<path d="M263.822 281.643H69.0635C68.9159 281.643 68.7744 281.584 68.67 281.48C68.5657 281.375 68.507 281.234 68.507 281.086C68.507 280.939 68.5657 280.797 68.67 280.693C68.7744 280.588 68.9159 280.53 69.0635 280.53H263.822C263.969 280.53 264.111 280.588 264.215 280.693C264.319 280.797 264.378 280.939 264.378 281.086C264.378 281.234 264.319 281.375 264.215 281.48C264.111 281.584 263.969 281.643 263.822 281.643Z" fill="#CCCCCC"/>
<path d="M403.89 238.514L358.503 294.826L217.379 181.148C201.299 168.196 198.398 145.027 210.911 129.502C223.423 113.977 246.686 111.883 262.766 124.835L403.89 238.514Z" fill="#F2F2F2"/>
<path d="M362.319 297.185C361.856 297.759 361.183 298.126 360.45 298.205C359.716 298.284 358.981 298.068 358.407 297.606L213.469 180.856C205.597 174.515 200.567 165.307 199.486 155.259C198.404 145.211 201.36 135.145 207.703 127.275C214.046 119.405 223.256 114.377 233.307 113.296C243.358 112.215 253.427 115.17 261.299 121.511L406.237 238.261C406.522 238.49 406.759 238.773 406.934 239.094C407.11 239.414 407.22 239.767 407.259 240.13C407.298 240.493 407.266 240.861 407.163 241.211C407.06 241.562 406.889 241.889 406.66 242.173C406.43 242.458 406.147 242.694 405.826 242.869C405.505 243.045 405.153 243.155 404.79 243.194C404.426 243.233 404.059 243.2 403.708 243.097C403.358 242.994 403.031 242.822 402.746 242.593L257.808 125.843C254.479 123.16 250.655 121.158 246.552 119.953C242.45 118.747 238.15 118.362 233.899 118.818C229.647 119.275 225.527 120.564 221.774 122.613C218.021 124.661 214.709 127.429 212.026 130.757C209.343 134.086 207.343 137.91 206.139 142.012C204.935 146.114 204.551 150.412 205.009 154.662C205.467 158.913 206.758 163.031 208.809 166.782C210.86 170.533 213.629 173.843 216.96 176.524L361.898 293.274C362.472 293.737 362.839 294.409 362.918 295.143C362.997 295.876 362.782 296.611 362.319 297.185Z" fill="#CCCCCC"/>
<path d="M393.416 251.509L241.762 129.349C241.705 129.303 241.658 129.246 241.623 129.182C241.588 129.118 241.566 129.048 241.558 128.975C241.55 128.902 241.557 128.829 241.577 128.759C241.598 128.689 241.632 128.623 241.678 128.567C241.724 128.51 241.78 128.462 241.844 128.427C241.909 128.392 241.979 128.37 242.052 128.363C242.124 128.355 242.198 128.361 242.268 128.382C242.338 128.402 242.403 128.437 242.46 128.482L394.115 250.643C394.172 250.688 394.219 250.745 394.254 250.809C394.289 250.873 394.311 250.944 394.319 251.016C394.327 251.089 394.321 251.162 394.3 251.233C394.279 251.303 394.245 251.368 394.199 251.425C394.153 251.482 394.097 251.529 394.033 251.564C393.968 251.599 393.898 251.621 393.825 251.629C393.752 251.637 393.679 251.63 393.609 251.61C393.539 251.589 393.473 251.555 393.416 251.509V251.509Z" fill="#CCCCCC"/>
<path d="M385.037 261.905L233.383 139.745C233.268 139.652 233.195 139.518 233.179 139.371C233.164 139.225 233.207 139.078 233.299 138.963C233.392 138.848 233.526 138.775 233.673 138.759C233.819 138.743 233.966 138.786 234.081 138.879L385.735 261.039C385.792 261.084 385.84 261.141 385.875 261.205C385.91 261.269 385.932 261.34 385.94 261.412C385.948 261.485 385.941 261.559 385.921 261.629C385.9 261.699 385.866 261.764 385.82 261.821C385.774 261.878 385.718 261.926 385.653 261.961C385.589 261.996 385.519 262.018 385.446 262.025C385.373 262.033 385.3 262.027 385.23 262.006C385.159 261.985 385.094 261.951 385.037 261.905Z" fill="#CCCCCC"/>
<path d="M376.658 272.301L225.004 150.141C224.889 150.049 224.815 149.914 224.8 149.767C224.784 149.621 224.827 149.474 224.92 149.359C225.012 149.244 225.147 149.171 225.293 149.155C225.44 149.139 225.587 149.182 225.702 149.275L377.356 271.435C377.413 271.481 377.461 271.537 377.496 271.601C377.531 271.665 377.553 271.736 377.56 271.808C377.568 271.881 377.562 271.955 377.541 272.025C377.521 272.095 377.486 272.16 377.44 272.217C377.395 272.274 377.338 272.321 377.274 272.356C377.21 272.391 377.139 272.413 377.067 272.421C376.994 272.429 376.921 272.422 376.85 272.402C376.78 272.381 376.715 272.347 376.658 272.301V272.301Z" fill="#CCCCCC"/>
<path d="M368.279 282.697L216.625 160.537C216.568 160.491 216.52 160.435 216.485 160.371C216.45 160.307 216.428 160.236 216.421 160.164C216.413 160.091 216.419 160.017 216.44 159.947C216.46 159.877 216.495 159.812 216.541 159.755C216.586 159.698 216.643 159.651 216.707 159.616C216.771 159.581 216.842 159.559 216.914 159.551C216.987 159.543 217.06 159.55 217.131 159.57C217.201 159.591 217.266 159.625 217.323 159.671L368.977 281.831C369.034 281.877 369.082 281.933 369.117 281.997C369.152 282.062 369.174 282.132 369.182 282.205C369.19 282.277 369.183 282.351 369.163 282.421C369.142 282.491 369.108 282.557 369.062 282.614C369.016 282.671 368.959 282.718 368.895 282.753C368.831 282.788 368.761 282.81 368.688 282.818C368.615 282.825 368.542 282.819 368.471 282.798C368.401 282.777 368.336 282.743 368.279 282.697Z" fill="#CCCCCC"/>
<path d="M413.444 300H0.556452C0.408871 300 0.267335 299.942 0.16298 299.837C0.0586256 299.733 0 299.591 0 299.444C0 299.296 0.0586256 299.155 0.16298 299.05C0.267335 298.946 0.408871 298.887 0.556452 298.887H413.444C413.591 298.887 413.733 298.946 413.837 299.05C413.941 299.155 414 299.296 414 299.444C414 299.591 413.941 299.733 413.837 299.837C413.733 299.942 413.591 300 413.444 300Z" fill="#CCCCCC"/>
<path d="M188.126 217.3L181.764 217.299L178.739 192.769L188.128 192.77L188.126 217.3Z" fill="#FFB8B8"/>
<path d="M177.22 215.482H189.489V223.204H169.495C169.495 222.19 169.695 221.186 170.083 220.249C170.472 219.312 171.041 218.461 171.758 217.744C172.475 217.027 173.327 216.458 174.264 216.07C175.201 215.682 176.206 215.482 177.22 215.482Z" fill="#2F2E41"/>
<path d="M123.135 217.3L116.774 217.299L113.748 192.769L123.137 192.77L123.135 217.3Z" fill="#FFB8B8"/>
<path d="M112.23 215.482H124.498V223.204H104.505C104.505 222.19 104.705 221.186 105.093 220.249C105.481 219.312 106.05 218.461 106.767 217.744C107.485 217.027 108.336 216.458 109.273 216.07C110.211 215.682 111.215 215.482 112.23 215.482Z" fill="#2F2E41"/>
<path d="M144.383 35.3429V32.5614C144.383 27.8033 146.274 23.2401 149.639 19.8756C153.005 16.5112 157.569 14.621 162.329 14.621H162.329C167.088 14.621 171.653 16.5112 175.018 19.8756C178.383 23.2401 180.274 27.8033 180.274 32.5614V35.3429C180.274 38.7731 178.911 42.0629 176.485 44.4885C174.059 46.914 170.768 48.2767 167.337 48.2767H157.321C155.622 48.2767 153.939 47.9421 152.37 47.2922C150.8 46.6422 149.374 45.6895 148.172 44.4885C146.971 43.2874 146.018 41.8616 145.368 40.2924C144.718 38.7232 144.383 37.0414 144.383 35.3429Z" fill="#2F2E41"/>
<path d="M162.329 49.2337C169.877 49.2337 175.996 43.1166 175.996 35.5706C175.996 28.0247 169.877 21.9076 162.329 21.9076C154.78 21.9076 148.661 28.0247 148.661 35.5706C148.661 43.1166 154.78 49.2337 162.329 49.2337Z" fill="#FFB8B8"/>
<path d="M87.9887 82.5289C88.5433 82.0053 89.206 81.6097 89.9301 81.3699C90.6543 81.1301 91.4221 81.0519 92.1797 81.1409C92.9373 81.2298 93.6662 81.4838 94.315 81.8848C94.9639 82.2859 95.5168 82.8242 95.935 83.462L107.651 81.2465L110.734 88.0358L94.1451 90.9322C93.0267 91.5635 91.7156 91.7627 90.4602 91.4921C89.2047 91.2216 88.0922 90.5 87.3333 89.4642C86.5745 88.4284 86.2221 87.1503 86.3428 85.8721C86.4636 84.5938 87.0492 83.4043 87.9887 82.5289V82.5289Z" fill="#FFB8B8"/>
<path d="M151.673 57.8383L151.827 58.0703L132.615 70.7228L100.197 81.0717C99.7671 81.2097 99.3985 81.4924 99.1538 81.8715C98.909 82.2507 98.8033 82.7029 98.8546 83.1512L99.5618 89.2408C99.5932 89.5103 99.6805 89.7703 99.8183 90.004C99.956 90.2378 100.141 90.4403 100.362 90.5983C100.582 90.7564 100.833 90.8667 101.099 90.9221C101.365 90.9775 101.639 90.9767 101.905 90.9199L132.415 84.382C133.891 84.0674 135.287 83.4528 136.517 82.5765L158.1 67.2246C158.883 66.665 159.507 65.9126 159.912 65.0404C160.318 64.1682 160.491 63.2059 160.414 62.2472C160.335 61.2872 160.007 60.3643 159.463 59.5693C158.919 58.7743 158.177 58.1346 157.311 57.7132C156.444 57.2917 155.483 57.103 154.521 57.1657C153.56 57.2283 152.631 57.5401 151.827 58.0703L151.673 57.8383Z" fill="#CCCCCC"/>
<path d="M181.878 210.338C181.39 210.339 180.912 210.197 180.503 209.93C180.094 209.663 179.772 209.283 179.576 208.836L150.412 136.796C150.344 136.639 150.23 136.508 150.084 136.418C149.939 136.329 149.77 136.286 149.6 136.296C149.43 136.305 149.267 136.367 149.132 136.472C148.998 136.577 148.899 136.721 148.849 136.884L125.056 207.017C124.956 207.344 124.79 207.646 124.568 207.906C124.346 208.166 124.074 208.377 123.767 208.528C123.461 208.679 123.127 208.765 122.785 208.782C122.444 208.799 122.103 208.745 121.783 208.626L113.805 205.634C113.372 205.474 112.992 205.196 112.707 204.832C112.423 204.468 112.245 204.033 112.193 203.574C108.603 172.314 139.904 93.4114 140.221 92.6183L140.308 92.3986L168.842 98.7084L168.901 98.7731C180.285 111.188 189.642 189.494 191.402 205.066C191.468 205.628 191.34 206.196 191.039 206.676C190.739 207.156 190.283 207.519 189.749 207.706L182.706 210.196C182.44 210.29 182.16 210.338 181.878 210.338Z" fill="#2F2E41"/>
<path d="M157.294 101.248C150.38 101.248 142.673 99.8702 140.301 94.1829L140.246 94.0522L140.32 93.9311C142.193 90.8595 144.667 85.6198 143.337 84.6363C140.717 82.6993 139.445 79.5128 139.558 75.1652C139.803 65.7273 146.236 57.3479 155.565 54.3141H155.565C158.169 53.4809 160.819 52.7988 163.502 52.2712C165.457 51.8766 167.476 51.92 169.413 52.3982C171.35 52.8764 173.157 53.7775 174.704 55.0369C176.271 56.3044 177.538 57.9032 178.413 59.7182C179.288 61.5333 179.75 63.5196 179.766 65.5344C179.864 75.6204 178.31 89.6682 170.355 99.3125C169.982 99.76 169.463 100.062 168.89 100.164C165.063 100.856 161.183 101.219 157.294 101.248Z" fill="#CCCCCC"/>
<path d="M154.722 100.87C155.098 99.5213 155.992 98.3751 157.209 97.6809C158.426 96.9868 159.867 96.8007 161.221 97.1633C161.497 97.2405 161.766 97.3402 162.026 97.4616L170.922 89.3682L177.109 93.535L164.387 104.789C163.813 105.825 162.908 106.638 161.818 107.101C160.728 107.563 159.514 107.647 158.37 107.341C157.704 107.158 157.08 106.846 156.535 106.421C155.991 105.996 155.535 105.468 155.196 104.866C154.857 104.265 154.64 103.602 154.559 102.916C154.478 102.23 154.533 101.535 154.722 100.87Z" fill="#FFB8B8"/>
<path d="M169.513 100.973C168.936 100.974 168.376 100.774 167.929 100.409L164.421 97.5426C164.129 97.3037 163.894 97.0017 163.735 96.6593C163.576 96.317 163.496 95.943 163.502 95.5655C163.508 95.188 163.599 94.8167 163.769 94.4794C163.939 94.1422 164.182 93.8476 164.482 93.6179L179.196 82.3364C179.37 82.202 179.484 82.0043 179.514 81.7861C179.543 81.568 179.486 81.347 179.353 81.1711L170.272 69.1685C169.217 67.7786 168.688 66.0604 168.778 64.318C168.868 62.5755 169.572 60.9213 170.766 59.648C172.022 58.2911 173.743 57.4561 175.587 57.3087C177.431 57.1613 179.263 57.7122 180.719 58.8521L180.777 58.9127L190.26 72.4875C191.285 73.2913 192.111 74.3212 192.672 75.4967C193.234 76.6723 193.516 77.9617 193.497 79.2643C193.477 80.5668 193.157 81.8472 192.561 83.0056C191.964 84.1639 191.108 85.1688 190.059 85.9417L171.003 100.482C170.572 100.801 170.049 100.973 169.513 100.973Z" fill="#CCCCCC"/>
<path d="M150.223 31.727V24.9479L162.329 19.6632L173.872 24.9479V31.727C173.872 32.0221 173.755 32.3051 173.546 32.5137C173.337 32.7224 173.054 32.8396 172.759 32.8396H151.335C151.04 32.8396 150.757 32.7224 150.549 32.5137C150.34 32.3051 150.223 32.0221 150.223 31.727Z" fill="#2F2E41"/>
<path d="M161.773 15.5203C159.993 9.82474 163.731 3.29732 169.258 1.04286C174.784 -1.2116 181.396 0.364335 186.059 4.08905C190.722 7.81376 193.615 13.3927 195.148 19.1596C196.681 24.9266 196.972 30.9401 197.255 36.9005C204.045 38.1474 208.664 46.1985 206.312 52.6871C203.96 59.1757 195.254 62.3993 189.241 59.0079C183.229 55.6164 181.487 46.4999 185.827 41.1322C187.88 38.5923 189.027 35.4402 189.086 32.1751C189.145 28.91 188.113 25.7185 186.152 23.1061C184.192 20.4938 181.416 18.6099 178.264 17.7528C175.112 16.8958 171.764 17.1145 168.75 18.3745C165.404 19.7735 161.205 16.1385 161.773 15.5203Z" fill="#2F2E41"/>
<path d="M85.4789 56.2315C77.3495 56.1781 69.3217 54.4204 61.9142 51.0719C61.4732 50.8755 61.099 50.555 60.837 50.1497C60.575 49.7443 60.4365 49.2715 60.4386 48.7889V28.5299C60.4393 27.8662 60.7034 27.2299 61.1728 26.7606C61.6422 26.2913 62.2787 26.0273 62.9426 26.0266H108.015C108.679 26.0274 109.316 26.2913 109.785 26.7606C110.254 27.2299 110.518 27.8662 110.519 28.5299V48.7889C110.521 49.2715 110.383 49.7443 110.121 50.1497C109.859 50.555 109.485 50.8755 109.044 51.0719C101.636 54.4204 93.6083 56.1781 85.4789 56.2315Z" fill="#49516F"/>
<path d="M85.4726 39.8193C85.1385 39.8195 84.8077 39.753 84.4996 39.6237L48.7576 24.5484C48.2967 24.354 47.9046 24.0261 47.6319 23.6068C47.3591 23.1876 47.2182 22.6963 47.2274 22.1963C47.2366 21.6962 47.3954 21.2104 47.6833 20.8014C47.9712 20.3925 48.3751 20.0791 48.8428 19.9017L84.5853 6.34616C85.1609 6.12682 85.7974 6.12817 86.3722 6.34996L121.636 19.9055C122.101 20.0843 122.502 20.3977 122.788 20.8057C123.074 21.2137 123.231 21.6977 123.241 22.1958C123.25 22.6938 123.11 23.1833 122.839 23.6016C122.569 24.0199 122.18 24.3479 121.721 24.5438L86.4575 39.6188C86.1461 39.7514 85.8111 39.8196 85.4726 39.8193Z" fill="#49516F"/>
<path d="M64.6119 52.4504C66.4559 52.4504 67.9506 50.9561 67.9506 49.1127C67.9506 47.2693 66.4559 45.7749 64.6119 45.7749C62.768 45.7749 61.2732 47.2693 61.2732 49.1127C61.2732 50.9561 62.768 52.4504 64.6119 52.4504Z" fill="#3F3D56"/>
<path opacity="0.2" d="M121.843 22.404L86.5793 37.479C86.3043 37.5965 86.0085 37.6575 85.7095 37.6582C85.4105 37.6589 85.1145 37.5994 84.839 37.4832L49.097 22.4084C48.6481 22.2236 48.2737 21.8945 48.0327 21.4732C47.8751 21.7464 47.7775 22.05 47.7463 22.3638C47.715 22.6777 47.7509 22.9946 47.8516 23.2934C47.9522 23.5923 48.1153 23.8664 48.3301 24.0975C48.5448 24.3285 48.8062 24.5112 49.097 24.6335L84.839 39.7084C85.1145 39.8246 85.4105 39.8841 85.7095 39.8833C86.0085 39.8826 86.3043 39.8217 86.5793 39.7042L121.843 24.6291C122.133 24.5058 122.392 24.3224 122.606 24.0913C122.819 23.8601 122.981 23.5864 123.08 23.2882C123.18 22.9899 123.215 22.6739 123.184 22.361C123.152 22.0482 123.055 21.7456 122.897 21.4732C122.658 21.8911 122.288 22.2183 121.843 22.404Z" fill="black"/>
<path d="M64.8925 49.0996C65.04 49.0996 65.1816 49.041 65.2859 48.9367C65.3903 48.8324 65.4489 48.6909 65.4489 48.5433V29.929L83.8013 23.2451C83.9489 23.2473 84.0913 23.1908 84.1972 23.0881C84.3031 22.9853 84.3639 22.8447 84.3661 22.6971C84.3683 22.5496 84.3118 22.4072 84.209 22.3013C84.1062 22.1955 83.9655 22.1348 83.8179 22.1326L65.4655 28.8165C65.3178 28.8131 65.171 28.8397 65.0339 28.8947C64.8968 28.9497 64.7723 29.0319 64.6679 29.1364C64.5624 29.2397 64.4787 29.363 64.4217 29.4992C64.3647 29.6353 64.3356 29.7815 64.336 29.929V48.5433C64.336 48.6909 64.3946 48.8324 64.499 48.9367C64.6033 49.041 64.7449 49.0996 64.8925 49.0996Z" fill="#3F3D56"/>
</g>
<defs>
<clipPath id="clip0_38_5218">
<rect width="414" height="300" fill="white"/>
</clipPath>
</defs>
</svg>
