<svg width="289" height="35" viewBox="0 0 289 35" fill="none" xmlns="http://www.w3.org/2000/svg">
<path d="M2.32138 10.416C2.89738 10.6187 3.41471 10.672 3.87338 10.576C4.33204 10.4693 4.74271 10.128 5.10538 9.552L5.64938 8.688L5.82538 8.48L9.84138 0.799999H11.6494L6.72138 9.936C6.33738 10.6613 5.88404 11.216 5.36138 11.6C4.84938 11.9733 4.29471 12.1813 3.69738 12.224C3.10004 12.2667 2.48671 12.1547 1.85738 11.888L2.32138 10.416ZM5.77738 10.112L0.833375 0.799999H2.78538L6.78538 8.656L5.77738 10.112ZM20.4056 7.552C19.7976 7.808 19.2056 8 18.6296 8.128C18.0536 8.256 17.499 8.32 16.9656 8.32C15.5683 8.32 14.4856 7.984 13.7176 7.312C12.9603 6.62933 12.5816 5.65867 12.5816 4.4V0.799999H14.3896V4.192C14.3896 5.00267 14.6296 5.62667 15.1096 6.064C15.6003 6.49067 16.2883 6.704 17.1736 6.704C17.707 6.704 18.2456 6.64 18.7896 6.512C19.3336 6.384 19.8616 6.192 20.3736 5.936L20.4056 7.552ZM20.1176 12V0.799999H21.9256V12H20.1176ZM26.9378 5.536H32.6018V7.088H26.9378V5.536ZM27.0818 10.416H33.5138V12H25.2578V0.799999H33.2898V2.384H27.0818V10.416ZM35.9609 12V0.799999H44.5369V2.352H37.7689V5.312H41.1769C42.5209 5.312 43.5395 5.58933 44.2329 6.144C44.9262 6.69867 45.2729 7.504 45.2729 8.56C45.2729 9.65867 44.8889 10.5067 44.1209 11.104C43.3635 11.7013 42.2809 12 40.8729 12H35.9609ZM37.7689 10.56H40.7929C41.6569 10.56 42.3129 10.3947 42.7609 10.064C43.2089 9.73333 43.4329 9.25333 43.4329 8.624C43.4329 7.376 42.5529 6.752 40.7929 6.752H37.7689V10.56ZM55.6473 0.799999H57.4713V12H55.6473V0.799999ZM49.5193 12H47.6953V0.799999H49.5193V12ZM55.7913 7.104H49.3593V5.52H55.7913V7.104ZM60.8046 12V0.799999H62.6126V9.056L68.9486 0.799999H70.6446V12H68.8366V3.76L62.5006 12H60.8046ZM81.4485 12L77.5125 6.512L79.0005 5.584L83.5285 12H81.4485ZM73.9765 12V0.799999H75.7685V12H73.9765ZM75.2245 7.184V5.568H78.9205V7.184H75.2245ZM79.1605 6.608L77.4805 6.368L81.4005 0.799999H83.3525L79.1605 6.608ZM85.0546 12V0.799999H86.8626V9.056L93.1986 0.799999H94.8946V12H93.0866V3.76L86.7506 12H85.0546ZM101.818 8.336V6.816H106.17V8.336H101.818ZM113.086 12V0.799999H117.566C118.547 0.799999 119.39 0.959999 120.094 1.28C120.798 1.58933 121.337 2.04267 121.71 2.64C122.094 3.22667 122.286 3.93067 122.286 4.752C122.286 5.56267 122.094 6.26667 121.71 6.864C121.337 7.45067 120.798 7.904 120.094 8.224C119.39 8.53333 118.547 8.688 117.566 8.688H114.094L114.91 7.824V12H113.086ZM114.91 8.016L114.094 7.104H117.502C118.473 7.104 119.203 6.90133 119.694 6.496C120.195 6.08 120.446 5.49867 120.446 4.752C120.446 3.99467 120.195 3.41333 119.694 3.008C119.203 2.592 118.473 2.384 117.502 2.384H114.094L114.91 1.472V8.016ZM122.316 12L127.372 0.799999H129.18L134.252 12H132.332L127.9 1.808H128.636L124.204 12H122.316ZM124.556 9.312L125.052 7.84H131.228L131.74 9.312H124.556ZM136.07 12V0.799999H144.646V2.352H137.878V5.312H141.286C142.63 5.312 143.649 5.58933 144.342 6.144C145.036 6.69867 145.382 7.504 145.382 8.56C145.382 9.65867 144.998 10.5067 144.23 11.104C143.473 11.7013 142.39 12 140.982 12H136.07ZM137.878 10.56H140.902C141.766 10.56 142.422 10.3947 142.87 10.064C143.318 9.73333 143.542 9.25333 143.542 8.624C143.542 7.376 142.662 6.752 140.902 6.752H137.878V10.56ZM152.909 12.144C152.045 12.144 151.245 12 150.509 11.712C149.783 11.424 149.149 11.024 148.605 10.512C148.071 9.98933 147.655 9.38133 147.357 8.688C147.058 7.984 146.909 7.22133 146.909 6.4C146.909 5.568 147.058 4.80533 147.357 4.112C147.655 3.41867 148.071 2.816 148.605 2.304C149.149 1.78133 149.783 1.376 150.509 1.088C151.245 0.799999 152.045 0.655999 152.909 0.655999C153.773 0.655999 154.567 0.799999 155.293 1.088C156.018 1.36533 156.647 1.76533 157.181 2.288C157.725 2.8 158.146 3.408 158.445 4.112C158.743 4.80533 158.893 5.568 158.893 6.4C158.893 7.232 158.743 8 158.445 8.704C158.146 9.39733 157.725 10.0053 157.181 10.528C156.647 11.04 156.018 11.44 155.293 11.728C154.567 12.0053 153.773 12.144 152.909 12.144ZM152.909 10.512C153.506 10.512 154.055 10.4107 154.557 10.208C155.058 9.99467 155.495 9.70667 155.869 9.344C156.242 8.97067 156.53 8.53333 156.733 8.032C156.946 7.53067 157.053 6.98667 157.053 6.4C157.053 5.80267 156.946 5.25867 156.733 4.768C156.53 4.26667 156.242 3.83467 155.869 3.472C155.495 3.09867 155.058 2.81067 154.557 2.608C154.055 2.39467 153.506 2.288 152.909 2.288C152.311 2.288 151.762 2.39467 151.261 2.608C150.759 2.81067 150.317 3.09867 149.933 3.472C149.559 3.84533 149.266 4.27733 149.053 4.768C148.85 5.25867 148.749 5.80267 148.749 6.4C148.749 6.98667 148.85 7.53067 149.053 8.032C149.266 8.52267 149.559 8.96 149.933 9.344C150.306 9.71733 150.743 10.0053 151.245 10.208C151.757 10.4107 152.311 10.512 152.909 10.512ZM168.078 7.552C167.47 7.808 166.878 8 166.302 8.128C165.726 8.256 165.171 8.32 164.638 8.32C163.24 8.32 162.158 7.984 161.39 7.312C160.632 6.62933 160.254 5.65867 160.254 4.4V0.799999H162.062V4.192C162.062 5.00267 162.302 5.62667 162.782 6.064C163.272 6.49067 163.96 6.704 164.846 6.704C165.379 6.704 165.918 6.64 166.462 6.512C167.006 6.384 167.534 6.192 168.046 5.936L168.078 7.552ZM167.79 12V0.799999H169.598V12H167.79ZM172.93 12V0.799999H174.738V9.056L181.074 0.799999H182.77V12H180.962V3.76L174.626 12H172.93ZM187.782 5.536H193.446V7.088H187.782V5.536ZM187.926 10.416H194.358V12H186.102V0.799999H194.134V2.384H187.926V10.416ZM203.484 12V1.92L203.932 2.384H199.724V0.799999H209.068V2.384H204.86L205.292 1.92V12H203.484ZM212.641 5.536H218.305V7.088H212.641V5.536ZM212.785 10.416H219.217V12H210.961V0.799999H218.993V2.384H212.785V10.416ZM223.984 12V1.92L224.432 2.384H220.224V0.799999H229.568V2.384H225.36L225.792 1.92V12H223.984ZM231.461 12V0.799999H235.941C236.922 0.799999 237.765 0.959999 238.469 1.28C239.173 1.58933 239.712 2.04267 240.085 2.64C240.469 3.22667 240.661 3.93067 240.661 4.752C240.661 5.56267 240.469 6.26667 240.085 6.864C239.712 7.45067 239.173 7.904 238.469 8.224C237.765 8.53333 236.922 8.688 235.941 8.688H232.469L233.285 7.824V12H231.461ZM233.285 8.016L232.469 7.104H235.877C236.848 7.104 237.578 6.90133 238.069 6.496C238.57 6.08 238.821 5.49867 238.821 4.752C238.821 3.99467 238.57 3.41333 238.069 3.008C237.578 2.592 236.848 2.384 235.877 2.384H232.469L233.285 1.472V8.016ZM240.691 12L245.747 0.799999H247.555L252.627 12H250.707L246.275 1.808H247.011L242.579 12H240.691ZM242.931 9.312L243.427 7.84H249.603L250.115 9.312H242.931ZM261.885 11.136V2.384H257.229L257.149 4.544C257.117 5.312 257.069 6.04267 257.005 6.736C256.941 7.42933 256.845 8.05867 256.717 8.624C256.589 9.17867 256.413 9.64267 256.189 10.016C255.976 10.3787 255.709 10.6133 255.389 10.72L253.389 10.416C253.805 10.4373 254.147 10.2987 254.413 10C254.68 9.69067 254.888 9.264 255.037 8.72C255.187 8.16533 255.299 7.52 255.373 6.784C255.448 6.03733 255.501 5.232 255.533 4.368L255.661 0.799999H263.693V11.136H261.885ZM253.005 14.416L253.021 10.416H265.325V14.416H263.629V12H254.717L254.701 14.416H253.005ZM267.383 12V0.799999H269.191V9.056L275.527 0.799999H277.223V12H275.415V3.76L269.079 12H267.383ZM284.146 8.336V6.816H288.498V8.336H284.146ZM16.9296 32V20.8H18.4336L23.3936 29.104H22.5936L27.4896 20.8H28.9936L29.0096 32H27.2496L27.2336 23.6H27.6336L23.3776 30.688H22.5456L18.2416 23.6H18.6896V32H16.9296ZM34.0159 25.536H39.6799V27.088H34.0159V25.536ZM34.1599 30.416H40.5919V32H32.3359V20.8H40.3679V22.384H34.1599V30.416ZM45.359 32V21.92L45.807 22.384H41.599V20.8H50.943V22.384H46.735L47.167 21.92V32H45.359ZM57.7836 32.144C56.9196 32.144 56.1196 32 55.3836 31.712C54.6583 31.424 54.0236 31.024 53.4796 30.512C52.9463 29.9893 52.5303 29.3813 52.2316 28.688C51.933 27.984 51.7836 27.2213 51.7836 26.4C51.7836 25.568 51.933 24.8053 52.2316 24.112C52.5303 23.4187 52.9463 22.816 53.4796 22.304C54.0236 21.7813 54.6583 21.376 55.3836 21.088C56.1196 20.8 56.9196 20.656 57.7836 20.656C58.6476 20.656 59.4423 20.8 60.1676 21.088C60.893 21.3653 61.5223 21.7653 62.0556 22.288C62.5996 22.8 63.021 23.408 63.3196 24.112C63.6183 24.8053 63.7676 25.568 63.7676 26.4C63.7676 27.232 63.6183 28 63.3196 28.704C63.021 29.3973 62.5996 30.0053 62.0556 30.528C61.5223 31.04 60.893 31.44 60.1676 31.728C59.4423 32.0053 58.6476 32.144 57.7836 32.144ZM57.7836 30.512C58.381 30.512 58.9303 30.4107 59.4316 30.208C59.933 29.9947 60.3703 29.7067 60.7436 29.344C61.117 28.9707 61.405 28.5333 61.6076 28.032C61.821 27.5307 61.9276 26.9867 61.9276 26.4C61.9276 25.8027 61.821 25.2587 61.6076 24.768C61.405 24.2667 61.117 23.8347 60.7436 23.472C60.3703 23.0987 59.933 22.8107 59.4316 22.608C58.9303 22.3947 58.381 22.288 57.7836 22.288C57.1863 22.288 56.637 22.3947 56.1356 22.608C55.6343 22.8107 55.1916 23.0987 54.8076 23.472C54.4343 23.8453 54.141 24.2773 53.9276 24.768C53.725 25.2587 53.6236 25.8027 53.6236 26.4C53.6236 26.9867 53.725 27.5307 53.9276 28.032C54.141 28.5227 54.4343 28.96 54.8076 29.344C55.181 29.7173 55.6183 30.0053 56.1196 30.208C56.6316 30.4107 57.1863 30.512 57.7836 30.512ZM73.3384 31.136V22.384H68.6824L68.6024 24.544C68.5704 25.312 68.5224 26.0427 68.4584 26.736C68.3944 27.4293 68.2984 28.0587 68.1704 28.624C68.0424 29.1787 67.8664 29.6427 67.6424 30.016C67.429 30.3787 67.1624 30.6133 66.8424 30.72L64.8424 30.416C65.2584 30.4373 65.5997 30.2987 65.8664 30C66.133 29.6907 66.341 29.264 66.4904 28.72C66.6397 28.1653 66.7517 27.52 66.8264 26.784C66.901 26.0373 66.9544 25.232 66.9864 24.368L67.1144 20.8H75.1464V31.136H73.3384ZM64.4584 34.416L64.4744 30.416H76.7784V34.416H75.0824V32H66.1704L66.1544 34.416H64.4584ZM78.8359 32V20.8H80.6439V29.056L86.9799 20.8H88.6759V32H86.8679V23.76L80.5319 32H78.8359ZM98.6713 27.552C98.0633 27.808 97.4713 28 96.8953 28.128C96.3193 28.256 95.7646 28.32 95.2313 28.32C93.8339 28.32 92.7513 27.984 91.9833 27.312C91.2259 26.6293 90.8473 25.6587 90.8473 24.4V20.8H92.6553V24.192C92.6553 25.0027 92.8953 25.6267 93.3753 26.064C93.8659 26.4907 94.5539 26.704 95.4393 26.704C95.9726 26.704 96.5113 26.64 97.0553 26.512C97.5993 26.384 98.1273 26.192 98.6393 25.936L98.6713 27.552ZM98.3833 32V20.8H100.191V32H98.3833ZM105.203 25.536H110.867V27.088H105.203V25.536ZM105.347 30.416H111.779V32H103.523V20.8H111.555V22.384H105.347V30.416ZM119.299 32.144C118.445 32.144 117.656 32.0053 116.931 31.728C116.205 31.44 115.576 31.04 115.043 30.528C114.509 30.0053 114.093 29.3973 113.795 28.704C113.496 28 113.347 27.232 113.347 26.4C113.347 25.568 113.496 24.8053 113.795 24.112C114.093 23.408 114.509 22.8 115.043 22.288C115.587 21.7653 116.221 21.3653 116.947 21.088C117.672 20.8 118.461 20.656 119.315 20.656C120.2 20.656 121.016 20.8107 121.763 21.12C122.509 21.4187 123.139 21.8667 123.651 22.464L122.467 23.616C122.051 23.168 121.581 22.8373 121.059 22.624C120.547 22.4 119.992 22.288 119.395 22.288C118.787 22.288 118.227 22.3893 117.715 22.592C117.203 22.7947 116.755 23.0827 116.371 23.456C115.997 23.8187 115.704 24.2507 115.491 24.752C115.288 25.2533 115.187 25.8027 115.187 26.4C115.187 26.9973 115.288 27.5467 115.491 28.048C115.704 28.5493 115.997 28.9867 116.371 29.36C116.755 29.7227 117.203 30.0053 117.715 30.208C118.227 30.4107 118.787 30.512 119.395 30.512C119.992 30.512 120.547 30.4053 121.059 30.192C121.581 29.968 122.051 29.6267 122.467 29.168L123.651 30.32C123.139 30.9173 122.509 31.3707 121.763 31.68C121.016 31.9893 120.195 32.144 119.299 32.144ZM133.199 32L129.263 26.512L130.751 25.584L135.279 32H133.199ZM125.727 32V20.8H127.519V32H125.727ZM126.975 27.184V25.568H130.671V27.184H126.975ZM130.911 26.608L129.231 26.368L133.151 20.8H135.103L130.911 26.608ZM135.129 32L140.185 20.8H141.993L147.065 32H145.145L140.713 21.808H141.449L137.017 32H135.129ZM137.369 29.312L137.865 27.84H144.041L144.553 29.312H137.369ZM154.896 32V28.384L155.36 28.816H151.968C151.04 28.816 150.24 28.6613 149.568 28.352C148.907 28.032 148.4 27.5787 148.048 26.992C147.696 26.4053 147.52 25.7013 147.52 24.88C147.52 24.016 147.707 23.28 148.08 22.672C148.464 22.064 149.003 21.6 149.696 21.28C150.389 20.96 151.2 20.8 152.128 20.8H156.704V32H154.896ZM147.536 32L150.304 28.016H152.16L149.472 32H147.536ZM154.896 27.792V21.872L155.36 22.384H152.192C151.285 22.384 150.587 22.592 150.096 23.008C149.616 23.424 149.376 24.0373 149.376 24.848C149.376 25.6267 149.605 26.2293 150.064 26.656C150.523 27.072 151.2 27.28 152.096 27.28H155.36L154.896 27.792ZM164.03 32.144C163.86 32.144 163.689 32.128 163.518 32.096C163.348 32.0747 163.161 32.0427 162.958 32L163.086 30.368C163.246 30.4107 163.412 30.432 163.582 30.432C164.041 30.432 164.404 30.2507 164.67 29.888C164.948 29.5147 165.15 28.96 165.278 28.224C165.406 27.488 165.492 26.5707 165.534 25.472L165.694 20.8H173.758V32H171.95V21.92L172.382 22.384H166.878L167.278 21.904L167.15 25.408C167.118 26.5173 167.044 27.4933 166.926 28.336C166.809 29.168 166.633 29.8667 166.398 30.432C166.164 30.9973 165.854 31.424 165.47 31.712C165.086 32 164.606 32.144 164.03 32.144ZM177.086 32V20.8H178.894V29.056L185.23 20.8H186.926V32H185.118V23.76L178.782 32H177.086ZM192.578 32V21.92L193.026 22.384H188.818V20.8H198.162V22.384H193.954L194.386 21.92V32H192.578ZM201.735 25.536H207.399V27.088H201.735V25.536ZM201.879 30.416H208.311V32H200.055V20.8H208.087V22.384H201.879V30.416ZM210.758 32V20.8H215.238C216.219 20.8 217.062 20.96 217.766 21.28C218.47 21.5893 219.008 22.0427 219.382 22.64C219.766 23.2267 219.958 23.9307 219.958 24.752C219.958 25.5627 219.766 26.2667 219.382 26.864C219.008 27.4507 218.47 27.904 217.766 28.224C217.062 28.5333 216.219 28.688 215.238 28.688H211.766L212.582 27.824V32H210.758ZM212.582 28.016L211.766 27.104H215.174C216.144 27.104 216.875 26.9013 217.366 26.496C217.867 26.08 218.118 25.4987 218.118 24.752C218.118 23.9947 217.867 23.4133 217.366 23.008C216.875 22.592 216.144 22.384 215.174 22.384H211.766L212.582 21.472V28.016ZM219.988 32L225.044 20.8H226.852L231.924 32H230.004L225.572 21.808H226.308L221.876 32H219.988ZM222.228 29.312L222.724 27.84H228.9L229.412 29.312H222.228ZM235.5 32V21.92L235.948 22.384H231.74V20.8H241.084V22.384H236.876L237.308 21.92V32H235.5ZM242.54 30.416C243.116 30.6187 243.633 30.672 244.092 30.576C244.551 30.4693 244.961 30.128 245.324 29.552L245.868 28.688L246.044 28.48L250.06 20.8H251.868L246.94 29.936C246.556 30.6613 246.103 31.216 245.58 31.6C245.068 31.9733 244.513 32.1813 243.916 32.224C243.319 32.2667 242.705 32.1547 242.076 31.888L242.54 30.416ZM245.996 30.112L241.052 20.8H243.004L247.004 28.656L245.996 30.112ZM253.414 32V20.8H257.894C258.875 20.8 259.718 20.96 260.422 21.28C261.126 21.5893 261.665 22.0427 262.038 22.64C262.422 23.2267 262.614 23.9307 262.614 24.752C262.614 25.5627 262.422 26.2667 262.038 26.864C261.665 27.4507 261.126 27.904 260.422 28.224C259.718 28.5333 258.875 28.688 257.894 28.688H254.422L255.238 27.824V32H253.414ZM255.238 28.016L254.422 27.104H257.83C258.801 27.104 259.531 26.9013 260.022 26.496C260.523 26.08 260.774 25.4987 260.774 24.752C260.774 23.9947 260.523 23.4133 260.022 23.008C259.531 22.592 258.801 22.384 257.83 22.384H254.422L255.238 21.472V28.016ZM262.644 32L267.7 20.8H269.508L274.58 32H272.66L268.228 21.808H268.964L264.532 32H262.644ZM264.884 29.312L265.38 27.84H271.556L272.068 29.312H264.884Z" fill="#49516F"/>
</svg>
