<svg width="498" height="212" viewBox="0 0 498 212" fill="none" xmlns="http://www.w3.org/2000/svg">
<path d="M5.136 29.248C6.864 29.856 8.416 30.016 9.792 29.728C11.168 29.408 12.4 28.384 13.488 26.656L15.12 24.064L15.648 23.44L27.696 0.399998H33.12L18.336 27.808C17.184 29.984 15.824 31.648 14.256 32.8C12.72 33.92 11.056 34.544 9.264 34.672C7.472 34.8 5.632 34.464 3.744 33.664L5.136 29.248ZM15.504 28.336L0.672 0.399998H6.528L18.528 23.968L15.504 28.336ZM59.3888 20.656C57.5648 21.424 55.7888 22 54.0608 22.384C52.3328 22.768 50.6688 22.96 49.0688 22.96C44.8768 22.96 41.6288 21.952 39.3248 19.936C37.0528 17.888 35.9168 14.976 35.9168 11.2V0.399998H41.3408V10.576C41.3408 13.008 42.0608 14.88 43.5008 16.192C44.9728 17.472 47.0368 18.112 49.6928 18.112C51.2928 18.112 52.9088 17.92 54.5408 17.536C56.1728 17.152 57.7568 16.576 59.2928 15.808L59.3888 20.656ZM58.5248 34V0.399998H63.9488V34H58.5248ZM78.9851 14.608H95.9771V19.264H78.9851V14.608ZM79.4171 29.248H98.7131V34H73.9451V0.399998H98.0411V5.152H79.4171V29.248ZM106.055 34V0.399998H131.783V5.056H111.479V13.936H121.703C125.735 13.936 128.791 14.768 130.871 16.432C132.951 18.096 133.991 20.512 133.991 23.68C133.991 26.976 132.839 29.52 130.535 31.312C128.263 33.104 125.015 34 120.791 34H106.055ZM111.479 29.68H120.551C123.143 29.68 125.111 29.184 126.455 28.192C127.799 27.2 128.471 25.76 128.471 23.872C128.471 20.128 125.831 18.256 120.551 18.256H111.479V29.68ZM165.114 0.399998H170.586V34H165.114V0.399998ZM146.73 34H141.258V0.399998H146.73V34ZM165.546 19.312H146.25V14.56H165.546V19.312ZM180.586 34V0.399998H186.01V25.168L205.018 0.399998H210.106V34H204.682V9.28L185.674 34H180.586ZM242.517 34L230.709 17.536L235.173 14.752L248.757 34H242.517ZM220.101 34V0.399998H225.477V34H220.101ZM223.845 19.552V14.704H234.933V19.552H223.845ZM235.653 17.824L230.613 17.104L242.373 0.399998H248.229L235.653 17.824ZM253.336 34V0.399998H258.76V25.168L277.768 0.399998H282.856V34H277.432V9.28L258.424 34H253.336ZM4.992 93V59.4H18.432C21.376 59.4 23.904 59.88 26.016 60.84C28.128 61.768 29.744 63.128 30.864 64.92C32.016 66.68 32.592 68.792 32.592 71.256C32.592 73.688 32.016 75.8 30.864 77.592C29.744 79.352 28.128 80.712 26.016 81.672C23.904 82.6 21.376 83.064 18.432 83.064H8.016L10.464 80.472V93H4.992ZM10.464 81.048L8.016 78.312H18.24C21.152 78.312 23.344 77.704 24.816 76.488C26.32 75.24 27.072 73.496 27.072 71.256C27.072 68.984 26.32 67.24 24.816 66.024C23.344 64.776 21.152 64.152 18.24 64.152H8.016L10.464 61.416V81.048ZM32.6831 93L47.8511 59.4H53.2751L68.4911 93H62.7311L49.4351 62.424H51.6431L38.3471 93H32.6831ZM39.4031 84.936L40.8911 80.52H59.4191L60.9551 84.936H39.4031ZM73.9451 93V59.4H99.6731V64.056H79.3691V72.936H89.5931C93.6251 72.936 96.6811 73.768 98.7611 75.432C100.841 77.096 101.881 79.512 101.881 82.68C101.881 85.976 100.729 88.52 98.4251 90.312C96.1531 92.104 92.9051 93 88.6811 93H73.9451ZM79.3691 88.68H88.4411C91.0331 88.68 93.0011 88.184 94.3451 87.192C95.6891 86.2 96.3611 84.76 96.3611 82.872C96.3611 79.128 93.7211 77.256 88.4411 77.256H79.3691V88.68ZM124.46 93.432C121.868 93.432 119.468 93 117.26 92.136C115.084 91.272 113.18 90.072 111.548 88.536C109.948 86.968 108.7 85.144 107.804 83.064C106.908 80.952 106.46 78.664 106.46 76.2C106.46 73.704 106.908 71.416 107.804 69.336C108.7 67.256 109.948 65.448 111.548 63.912C113.18 62.344 115.084 61.128 117.26 60.264C119.468 59.4 121.868 58.968 124.46 58.968C127.052 58.968 129.436 59.4 131.612 60.264C133.788 61.096 135.676 62.296 137.276 63.864C138.908 65.4 140.172 67.224 141.068 69.336C141.964 71.416 142.412 73.704 142.412 76.2C142.412 78.696 141.964 81 141.068 83.112C140.172 85.192 138.908 87.016 137.276 88.584C135.676 90.12 133.788 91.32 131.612 92.184C129.436 93.016 127.052 93.432 124.46 93.432ZM124.46 88.536C126.252 88.536 127.9 88.232 129.404 87.624C130.908 86.984 132.22 86.12 133.34 85.032C134.46 83.912 135.324 82.6 135.932 81.096C136.572 79.592 136.892 77.96 136.892 76.2C136.892 74.408 136.572 72.776 135.932 71.304C135.324 69.8 134.46 68.504 133.34 67.416C132.22 66.296 130.908 65.432 129.404 64.824C127.9 64.184 126.252 63.864 124.46 63.864C122.668 63.864 121.02 64.184 119.516 64.824C118.012 65.432 116.684 66.296 115.532 67.416C114.412 68.536 113.532 69.832 112.892 71.304C112.284 72.776 111.98 74.408 111.98 76.2C111.98 77.96 112.284 79.592 112.892 81.096C113.532 82.568 114.412 83.88 115.532 85.032C116.652 86.152 117.964 87.016 119.468 87.624C121.004 88.232 122.668 88.536 124.46 88.536ZM169.967 79.656C168.143 80.424 166.367 81 164.639 81.384C162.911 81.768 161.247 81.96 159.647 81.96C155.455 81.96 152.207 80.952 149.903 78.936C147.631 76.888 146.495 73.976 146.495 70.2V59.4H151.919V69.576C151.919 72.008 152.639 73.88 154.079 75.192C155.551 76.472 157.615 77.112 160.271 77.112C161.871 77.112 163.487 76.92 165.119 76.536C166.751 76.152 168.335 75.576 169.871 74.808L169.967 79.656ZM169.103 93V59.4H174.527V93H169.103ZM184.523 93V59.4H189.947V84.168L208.955 59.4H214.043V93H208.619V68.28L189.611 93H184.523ZM229.079 73.608H246.071V78.264H229.079V73.608ZM229.511 88.248H248.807V93H224.039V59.4H248.135V64.152H229.511V88.248ZM276.186 93V62.76L277.53 64.152H264.906V59.4H292.938V64.152H280.314L281.61 62.76V93H276.186ZM303.657 73.608H320.649V78.264H303.657V73.608ZM304.089 88.248H323.385V93H298.617V59.4H322.713V64.152H304.089V88.248ZM337.686 93V62.76L339.03 64.152H326.406V59.4H354.438V64.152H341.814L343.11 62.76V93H337.686ZM360.117 93V59.4H373.557C376.501 59.4 379.029 59.88 381.141 60.84C383.253 61.768 384.869 63.128 385.989 64.92C387.141 66.68 387.717 68.792 387.717 71.256C387.717 73.688 387.141 75.8 385.989 77.592C384.869 79.352 383.253 80.712 381.141 81.672C379.029 82.6 376.501 83.064 373.557 83.064H363.141L365.589 80.472V93H360.117ZM365.589 81.048L363.141 78.312H373.365C376.277 78.312 378.469 77.704 379.941 76.488C381.445 75.24 382.197 73.496 382.197 71.256C382.197 68.984 381.445 67.24 379.941 66.024C378.469 64.776 376.277 64.152 373.365 64.152H363.141L365.589 61.416V81.048ZM387.808 93L402.976 59.4H408.4L423.616 93H417.856L404.56 62.424H406.768L393.472 93H387.808ZM394.528 84.936L396.016 80.52H414.544L416.08 84.936H394.528ZM451.39 90.408V64.152H437.422L437.182 70.632C437.086 72.936 436.942 75.128 436.75 77.208C436.558 79.288 436.27 81.176 435.886 82.872C435.502 84.536 434.974 85.928 434.302 87.048C433.662 88.136 432.862 88.84 431.902 89.16L425.902 88.248C427.15 88.312 428.174 87.896 428.974 87C429.774 86.072 430.398 84.792 430.846 83.16C431.294 81.496 431.63 79.56 431.854 77.352C432.078 75.112 432.238 72.696 432.334 70.104L432.718 59.4H456.814V90.408H451.39ZM424.75 100.248L424.798 88.248H461.71V100.248H456.622V93H429.886L429.838 100.248H424.75ZM467.883 93V59.4H473.307V84.168L492.315 59.4H497.403V93H491.979V68.28L472.971 93H467.883ZM4.992 152V118.4H9.504L24.384 143.312H21.984L36.672 118.4H41.184L41.232 152H35.952L35.904 126.8H37.104L24.336 148.064H21.84L8.928 126.8H10.272V152H4.992ZM56.2508 132.608H73.2428V137.264H56.2508V132.608ZM56.6828 147.248H75.9788V152H51.2108V118.4H75.3068V123.152H56.6828V147.248ZM90.2801 152V121.76L91.6241 123.152H79.0001V118.4H107.032V123.152H94.4081L95.7041 121.76V152H90.2801ZM127.554 152.432C124.962 152.432 122.562 152 120.354 151.136C118.178 150.272 116.274 149.072 114.642 147.536C113.042 145.968 111.794 144.144 110.898 142.064C110.002 139.952 109.554 137.664 109.554 135.2C109.554 132.704 110.002 130.416 110.898 128.336C111.794 126.256 113.042 124.448 114.642 122.912C116.274 121.344 118.178 120.128 120.354 119.264C122.562 118.4 124.962 117.968 127.554 117.968C130.146 117.968 132.53 118.4 134.706 119.264C136.882 120.096 138.77 121.296 140.37 122.864C142.002 124.4 143.266 126.224 144.162 128.336C145.058 130.416 145.506 132.704 145.506 135.2C145.506 137.696 145.058 140 144.162 142.112C143.266 144.192 142.002 146.016 140.37 147.584C138.77 149.12 136.882 150.32 134.706 151.184C132.53 152.016 130.146 152.432 127.554 152.432ZM127.554 147.536C129.346 147.536 130.994 147.232 132.498 146.624C134.002 145.984 135.314 145.12 136.434 144.032C137.554 142.912 138.418 141.6 139.026 140.096C139.666 138.592 139.986 136.96 139.986 135.2C139.986 133.408 139.666 131.776 139.026 130.304C138.418 128.8 137.554 127.504 136.434 126.416C135.314 125.296 134.002 124.432 132.498 123.824C130.994 123.184 129.346 122.864 127.554 122.864C125.762 122.864 124.114 123.184 122.61 123.824C121.106 124.432 119.778 125.296 118.626 126.416C117.506 127.536 116.626 128.832 115.986 130.304C115.378 131.776 115.074 133.408 115.074 135.2C115.074 136.96 115.378 138.592 115.986 140.096C116.626 141.568 117.506 142.88 118.626 144.032C119.746 145.152 121.058 146.016 122.562 146.624C124.098 147.232 125.762 147.536 127.554 147.536ZM174.218 149.408V123.152H160.25L160.01 129.632C159.914 131.936 159.77 134.128 159.578 136.208C159.386 138.288 159.098 140.176 158.714 141.872C158.33 143.536 157.802 144.928 157.13 146.048C156.49 147.136 155.69 147.84 154.73 148.16L148.73 147.248C149.978 147.312 151.002 146.896 151.802 146C152.602 145.072 153.226 143.792 153.674 142.16C154.122 140.496 154.458 138.56 154.682 136.352C154.906 134.112 155.066 131.696 155.162 129.104L155.546 118.4H179.642V149.408H174.218ZM147.578 159.248L147.626 147.248H184.538V159.248H179.45V152H152.714L152.666 159.248H147.578ZM190.711 152V118.4H196.135V143.168L215.143 118.4H220.231V152H214.807V127.28L195.799 152H190.711ZM250.217 138.656C248.393 139.424 246.617 140 244.889 140.384C243.161 140.768 241.497 140.96 239.897 140.96C235.705 140.96 232.457 139.952 230.153 137.936C227.881 135.888 226.745 132.976 226.745 129.2V118.4H232.169V128.576C232.169 131.008 232.889 132.88 234.329 134.192C235.801 135.472 237.865 136.112 240.521 136.112C242.121 136.112 243.737 135.92 245.369 135.536C247.001 135.152 248.585 134.576 250.121 133.808L250.217 138.656ZM249.353 152V118.4H254.777V152H249.353ZM269.813 132.608H286.805V137.264H269.813V132.608ZM270.245 147.248H289.541V152H264.773V118.4H288.869V123.152H270.245V147.248ZM312.099 152.432C309.539 152.432 307.171 152.016 304.995 151.184C302.819 150.32 300.931 149.12 299.331 147.584C297.731 146.016 296.483 144.192 295.587 142.112C294.691 140 294.243 137.696 294.243 135.2C294.243 132.704 294.691 130.416 295.587 128.336C296.483 126.224 297.731 124.4 299.331 122.864C300.963 121.296 302.867 120.096 305.043 119.264C307.219 118.4 309.587 117.968 312.147 117.968C314.803 117.968 317.251 118.432 319.491 119.36C321.731 120.256 323.619 121.6 325.155 123.392L321.603 126.848C320.355 125.504 318.947 124.512 317.379 123.872C315.843 123.2 314.179 122.864 312.387 122.864C310.563 122.864 308.883 123.168 307.347 123.776C305.811 124.384 304.467 125.248 303.315 126.368C302.195 127.456 301.315 128.752 300.675 130.256C300.067 131.76 299.763 133.408 299.763 135.2C299.763 136.992 300.067 138.64 300.675 140.144C301.315 141.648 302.195 142.96 303.315 144.08C304.467 145.168 305.811 146.016 307.347 146.624C308.883 147.232 310.563 147.536 312.387 147.536C314.179 147.536 315.843 147.216 317.379 146.576C318.947 145.904 320.355 144.88 321.603 143.504L325.155 146.96C323.619 148.752 321.731 150.112 319.491 151.04C317.251 151.968 314.787 152.432 312.099 152.432ZM353.799 152L341.991 135.536L346.455 132.752L360.039 152H353.799ZM331.383 152V118.4H336.759V152H331.383ZM335.127 137.552V132.704H346.215V137.552H335.127ZM346.935 135.824L341.895 135.104L353.655 118.4H359.511L346.935 135.824ZM359.589 152L374.757 118.4H380.181L395.397 152H389.637L376.341 121.424H378.549L365.253 152H359.589ZM366.309 143.936L367.797 139.52H386.325L387.861 143.936H366.309ZM418.891 152V141.152L420.283 142.448H410.107C407.323 142.448 404.923 141.984 402.907 141.056C400.923 140.096 399.403 138.736 398.347 136.976C397.291 135.216 396.763 133.104 396.763 130.64C396.763 128.048 397.323 125.84 398.443 124.016C399.595 122.192 401.211 120.8 403.291 119.84C405.371 118.88 407.803 118.4 410.587 118.4H424.315V152H418.891ZM396.811 152L405.115 140.048H410.683L402.619 152H396.811ZM418.891 139.376V121.616L420.283 123.152H410.779C408.059 123.152 405.963 123.776 404.491 125.024C403.051 126.272 402.331 128.112 402.331 130.544C402.331 132.88 403.019 134.688 404.395 135.968C405.771 137.216 407.803 137.84 410.491 137.84H420.283L418.891 139.376ZM3.888 211.432C3.376 211.432 2.864 211.384 2.352 211.288C1.84 211.224 1.28 211.128 0.672 211L1.056 206.104C1.536 206.232 2.032 206.296 2.544 206.296C3.92 206.296 5.008 205.752 5.808 204.664C6.64 203.544 7.248 201.88 7.632 199.672C8.016 197.464 8.272 194.712 8.4 191.416L8.88 177.4H33.072V211H27.648V180.76L28.944 182.152H12.432L13.632 180.712L13.248 191.224C13.152 194.552 12.928 197.48 12.576 200.008C12.224 202.504 11.696 204.6 10.992 206.296C10.288 207.992 9.36 209.272 8.208 210.136C7.056 211 5.616 211.432 3.888 211.432ZM43.0545 211V177.4H48.4785V202.168L67.4865 177.4H72.5745V211H67.1505V186.28L48.1425 211H43.0545ZM89.5301 211V180.76L90.8741 182.152H78.2501V177.4H106.282V182.152H93.6581L94.9541 180.76V211H89.5301ZM117.001 191.608H133.993V196.264H117.001V191.608ZM117.433 206.248H136.729V211H111.961V177.4H136.057V182.152H117.433V206.248ZM144.07 211V177.4H157.51C160.454 177.4 162.982 177.88 165.094 178.84C167.206 179.768 168.822 181.128 169.942 182.92C171.094 184.68 171.67 186.792 171.67 189.256C171.67 191.688 171.094 193.8 169.942 195.592C168.822 197.352 167.206 198.712 165.094 199.672C162.982 200.6 160.454 201.064 157.51 201.064H147.094L149.542 198.472V211H144.07ZM149.542 199.048L147.094 196.312H157.318C160.23 196.312 162.422 195.704 163.894 194.488C165.398 193.24 166.15 191.496 166.15 189.256C166.15 186.984 165.398 185.24 163.894 184.024C162.422 182.776 160.23 182.152 157.318 182.152H147.094L149.542 179.416V199.048ZM171.761 211L186.929 177.4H192.353L207.569 211H201.809L188.513 180.424H190.721L177.425 211H171.761ZM178.481 202.936L179.969 198.52H198.497L200.033 202.936H178.481ZM218.296 211V180.76L219.64 182.152H207.016V177.4H235.048V182.152H222.424L223.72 180.76V211H218.296ZM239.417 206.248C241.145 206.856 242.697 207.016 244.073 206.728C245.449 206.408 246.681 205.384 247.769 203.656L249.401 201.064L249.929 200.44L261.977 177.4H267.401L252.617 204.808C251.465 206.984 250.105 208.648 248.537 209.8C247.001 210.92 245.337 211.544 243.545 211.672C241.753 211.8 239.913 211.464 238.025 210.664L239.417 206.248ZM249.785 205.336L234.953 177.4H240.809L252.809 200.968L249.785 205.336ZM272.039 211V177.4H285.479C288.423 177.4 290.951 177.88 293.063 178.84C295.175 179.768 296.791 181.128 297.911 182.92C299.063 184.68 299.639 186.792 299.639 189.256C299.639 191.688 299.063 193.8 297.911 195.592C296.791 197.352 295.175 198.712 293.063 199.672C290.951 200.6 288.423 201.064 285.479 201.064H275.063L277.511 198.472V211H272.039ZM277.511 199.048L275.063 196.312H285.287C288.199 196.312 290.391 195.704 291.863 194.488C293.367 193.24 294.119 191.496 294.119 189.256C294.119 186.984 293.367 185.24 291.863 184.024C290.391 182.776 288.199 182.152 285.287 182.152H275.063L277.511 179.416V199.048ZM299.73 211L314.898 177.4H320.322L335.538 211H329.778L316.482 180.424H318.69L305.394 211H299.73ZM306.45 202.936L307.938 198.52H326.466L328.002 202.936H306.45Z" fill="#49516F"/>
</svg>
