<?xml version="1.0" encoding="UTF-8" standalone="no"?>
<svg
   version="1.1"
   width="375.87399pt"
   height="141.7323pt"
   id="svg51"
   viewBox="0 0 375.87399 141.7323"
   sodipodi:docname="Логотип АЗБУКА (1).cdr"
   xmlns:inkscape="http://www.inkscape.org/namespaces/inkscape"
   xmlns:sodipodi="http://sodipodi.sourceforge.net/DTD/sodipodi-0.dtd"
   xmlns="http://www.w3.org/2000/svg"
   xmlns:svg="http://www.w3.org/2000/svg">
  <defs
     id="defs55" />
  <sodipodi:namedview
     id="namedview53"
     pagecolor="#ffffff"
     bordercolor="#000000"
     borderopacity="0.25"
     inkscape:showpageshadow="2"
     inkscape:pageopacity="0.0"
     inkscape:pagecheckerboard="0"
     inkscape:deskcolor="#d1d1d1"
     inkscape:document-units="pt" />
  <g
     id="Layer1000">
    <path
       d="m 9.3986,57.6424 20.1239,80.5137 c 0,0 14.1741,-6.9378 34.7649,-7.609 20.59,-0.671 36.7789,3.4322 36.7789,3.4322 0,0 -0.7458,-32.974 1.7152,-45.06 2.4619,-12.0861 12.8319,-40.9569 12.8319,-40.9569 0,0 -29.3369,-6.3221 -58.041,-2.685 -18.735,2.374 -48.1738,12.365 -48.1738,12.365 z"
       style="fill:#102a83;fill-rule:evenodd"
       id="path2" />
    <path
       d="m 38.0018,5.451 c 0,0 -2.0013,15.73 -7.9572,25.13 -5.9558,9.3988 -15.555,23.3129 -15.555,23.3129 0,0 12.9812,-8.2811 21.0381,-17.4569 C 43.5846,27.261 47.5057,22.5229 47.7285,19.3901 47.9525,16.2569 38.0018,5.451 38.0018,5.451 Z"
       style="fill:#102a83;fill-rule:evenodd"
       id="path4" />
    <path
       d="m 54.6635,6.7079 c 0,0 -0.373,11.9358 -10.2211,23.2758 -9.847,11.3391 -25.1399,22.903 -25.1399,22.903 0,0 17.5308,-8.505 25.3638,-12.9061 7.8341,-4.4019 16.2022,-9.2049 18.2032,-10.669 4.9989,-3.655 -8.206,-22.6037 -8.206,-22.6037 z"
       style="fill:#102a83;fill-rule:evenodd"
       id="path6" />
    <path
       d="m 78.9464,22.113 c 0,0 -21.374,13.3172 -25.2901,14.883 -3.9169,1.567 -28.0878,13.6519 -28.0878,13.6519 0,0 18.6879,-7.0497 27.64,-9.1757 8.9518,-2.126 29.2608,-5.491 29.9338,-6.546 1.6789,-2.63 -4.1959,-12.8132 -4.1959,-12.8132 z"
       style="fill:#102a83;fill-rule:evenodd"
       id="path8" />
    <path
       d="m 39.2207,47.1795 c 0,0 14.7341,-5.9312 32.191,-8.5051 17.4568,-2.573 32.191,-1.9769 32.191,-1.9769 0,0 -2.052,0.8958 -2.3882,3.3568 -0.335,2.4622 0,4.0952 0,4.0952 0,0 -24.5658,-1.116 -32.9739,-0.8121 -8.2429,0.2979 -29.0199,3.8421 -29.0199,3.8421 z"
       style="fill:#102a83;fill-rule:evenodd"
       id="path10" />
    <path
       d="m 11.2734,55.7676 20.1239,80.5139 c 0,0 14.1738,-6.938 34.7649,-7.609 20.59,-0.6709 36.7789,3.4319 36.7789,3.4319 0,0 -0.7461,-32.9739 1.715,-45.0597 2.4621,-12.086 12.8321,-40.9571 12.8321,-40.9571 0,0 -29.3371,-6.3218 -58.041,-2.685 -18.735,2.374 -48.1738,12.365 -48.1738,12.365 z"
       style="fill:#e30016;fill-rule:evenodd"
       id="path12" />
    <path
       d="m 39.8763,3.5762 c 0,0 -2.001,15.73 -7.9568,25.1299 -5.9562,9.3991 -15.5551,23.3129 -15.5551,23.3129 0,0 12.9809,-8.2808 21.0378,-17.4568 8.0572,-9.176 11.9781,-13.9138 12.2012,-17.047 0.2239,-3.1331 -9.7271,-13.939 -9.7271,-13.939 z"
       style="fill:#e30016;fill-rule:evenodd"
       id="path14" />
    <path
       d="m 56.538,4.8331 c 0,0 -0.373,11.9361 -10.2208,23.276 -9.847,11.3389 -25.1402,22.9028 -25.1402,22.9028 0,0 17.5312,-8.5051 25.3641,-12.9058 7.8341,-4.4022 16.202,-9.205 18.2029,-10.669 4.9989,-3.655 -8.206,-22.604 -8.206,-22.604 z"
       style="fill:#e30016;fill-rule:evenodd"
       id="path16" />
    <path
       d="m 80.821,20.2385 c 0,0 -21.374,13.3168 -25.2898,14.883 -3.9172,1.567 -28.0882,13.6519 -28.0882,13.6519 0,0 18.6882,-7.05 27.64,-9.176 8.9521,-2.126 29.2612,-5.491 29.9341,-6.5461 1.679,-2.6299 -4.1961,-12.8128 -4.1961,-12.8128 z"
       style="fill:#e30016;fill-rule:evenodd"
       id="path18" />
    <path
       d="m 41.0955,45.3046 c 0,0 14.7339,-5.9309 32.1907,-8.505 17.4572,-2.573 32.191,-1.9769 32.191,-1.9769 0,0 -2.0519,0.896 -2.3879,3.3571 -0.335,2.4619 0,4.0949 0,4.0949 0,0 -24.5661,-1.116 -32.9739,-0.8121 -8.2431,0.2982 -29.0199,3.842 -29.0199,3.842 z"
       style="fill:#e30016;fill-rule:evenodd"
       id="path20" />
    <path
       d="m 77.3545,92.2522 c 0.0522,-2.7 0.2101,-5.4949 0.4759,-8.3891 0.2651,-2.8848 0.5911,-5.762 0.972,-8.6269 0.381,-2.863 0.8252,-5.6758 1.3252,-8.449 0.504,-2.764 1.018,-5.305 1.546,-7.6268 l -0.1819,-0.1942 c -3.598,5.775 -6.8721,11.4879 -9.8272,17.147 -2.9508,5.6639 -5.521,11.334 -7.7099,17.011 z m -21.234,3.462 c -1.133,0.0731 -2.5169,0.1981 -4.1508,0.3739 -1.6361,0.1732 -3.3641,0.479 -5.1791,0.909 -1.8179,0.4249 -3.6261,0.995 -5.423,1.7031 -1.8008,0.703 -3.3998,1.641 -4.8019,2.802 -1.3991,1.1659 -2.5001,2.5889 -3.3012,4.2639 -0.7968,1.6801 -1.1188,3.693 -0.9649,6.0321 0.112,1.724 0.4791,3.242 1.101,4.5499 0.6262,1.311 1.406,2.385 2.34,3.2221 0.934,0.843 2.0112,1.4599 3.2309,1.8661 1.2172,0.4087 2.4792,0.5697 3.7772,0.4838 2.1469,-0.1389 4.007,-0.8319 5.5709,-2.0749 1.5661,-1.247 2.9749,-2.897 4.2341,-4.9502 1.2588,-2.0559 2.41,-4.4129 3.4588,-7.0758 1.0491,-2.6671 2.1231,-5.5221 3.2312,-8.57 l 1.3708,-3.829 z m 5.078,4.7579 c -0.8249,2.1991 -1.798,4.6511 -2.931,7.3539 -1.1288,2.7051 -2.4789,5.2682 -4.053,7.6881 -1.5769,2.4231 -3.4549,4.502 -5.6438,6.2351 -2.1852,1.7328 -4.7491,2.694 -7.6861,2.8848 -1.9828,0.129 -3.742,-0.1188 -5.2869,-0.7449 -1.546,-0.6259 -2.8499,-1.4579 -3.9101,-2.4979 -1.0599,-1.0372 -1.8949,-2.2261 -2.4899,-3.5739 -0.5981,-1.3411 -0.944,-2.7071 -1.035,-4.0881 -0.2452,-3.788 0.4479,-6.916 2.0739,-9.3739 1.629,-2.4602 3.8432,-4.4592 6.637,-5.989 2.7981,-1.529 6.0009,-2.6552 9.6171,-3.3741 3.6158,-0.72 7.319,-1.207 11.1058,-1.453 l 3.9872,-0.2611 c 1.535,-3.4209 3.0628,-6.7538 4.5839,-10.0049 1.5211,-3.2479 3.1019,-6.4301 4.746,-9.5479 1.6399,-3.119 3.4019,-6.158 5.283,-9.1182 1.8779,-2.9608 3.973,-5.9028 6.2809,-8.82 l 9.078,-3.1858 c -0.3739,1.2719 -0.8949,3.2961 -1.5659,6.0709 -0.6721,2.78 -1.2872,5.9661 -1.847,9.5681 -0.563,3.6039 -1.0072,7.4571 -1.336,11.563 -0.328,4.1049 -0.3631,8.121 -0.108,12.0518 0.3319,5.1021 0.9578,9.0589 1.878,11.8712 0.9229,2.8128 1.7659,4.8529 2.5279,6.118 l -1.9579,2.6209 c -0.735,-1.6841 -1.5001,-3.8682 -2.3012,-6.55 -0.8007,-2.6841 -1.3569,-6.4701 -1.6749,-11.3649 -0.2631,-4.0672 -0.245,-8.138 0.0589,-12.2032 0.3011,-4.0719 0.7211,-7.8859 1.256,-11.4528 0.5313,-3.5651 1.0911,-6.7679 1.6711,-9.6131 0.5839,-2.84 1.0491,-5.034 1.402,-6.58 l -2.755,0.805 c -0.3881,1.893 -0.885,4.506 -1.493,7.833 -0.6089,3.3261 -1.1611,7.0151 -1.6651,11.061 -0.5028,4.0479 -0.881,8.2789 -1.133,12.6921 -0.252,4.4099 -0.2477,8.6168 0.0142,12.617 0.2761,4.2738 0.6361,7.6388 1.084,10.0998 0.441,2.4631 1.0459,4.3319 1.8079,5.595 0.7659,1.264 1.7101,2.039 2.836,2.306 1.126,0.275 2.4789,0.3929 4.0669,0.36 l -0.3149,1.6821 -11.592,1.1718 c -0.3569,-1.0828 -0.682,-2.3819 -0.976,-3.884 -0.297,-1.5049 -0.57,-3.0418 -0.8149,-4.6207 -0.2441,-1.5752 -0.4439,-3.1173 -0.5981,-4.6321 -0.1528,-1.51 -0.269,-2.8199 -0.3391,-3.9251 -0.1048,-1.584 -0.178,-3.17 -0.2267,-4.7608 -0.0462,-1.588 -0.0672,-3.1771 -0.053,-4.7721 l -14.2501,0.9269 z"
       style="fill:#102a83;fill-rule:evenodd"
       id="path22" />
    <path
       d="m 80.8357,60.8773 c -3.1748,5.1789 -6.1228,10.3649 -8.7738,15.4428 -2.817,5.404 -5.3169,10.889 -7.4361,16.3111 L 76.916,91.8321 c 0.0609,-2.5869 0.218,-5.2798 0.468,-8.0098 0.2628,-2.8511 0.5907,-5.7611 0.974,-8.6459 0.3727,-2.7961 0.8197,-5.6441 1.3288,-8.4682 0.3759,-2.0671 0.7611,-4.0199 1.1489,-5.8309 z m -17.5509,32.739 0.2511,-0.652 c 2.1861,-5.667 4.786,-11.406 7.7321,-17.0572 2.948,-5.6457 6.26,-11.425 9.8438,-17.1768 l 0.3081,-0.4952 0.743,0.792 -0.0522,0.233 c -0.521,2.285 -1.0388,4.8453 -1.5428,7.6071 -0.5072,2.81 -0.9511,5.646 -1.321,8.4279 -0.383,2.8732 -0.7101,5.7702 -0.9711,8.608 -0.262,2.855 -0.421,5.667 -0.474,8.3582 l -0.0079,0.411 z m -3.3208,2.296 -3.8132,0.2478 c -1.1378,0.0751 -2.529,0.199 -4.132,0.3741 -1.5908,0.1678 -3.3149,0.47 -5.1248,0.8989 -1.7762,0.4141 -3.579,0.9811 -5.362,1.6832 -1.7382,0.6789 -3.312,1.5968 -4.6811,2.7298 -1.3411,1.1191 -2.4128,2.5041 -3.1819,4.1122 -0.7611,1.6018 -1.0701,3.5589 -0.9229,5.811 0.108,1.6608 0.4648,3.1359 1.059,4.3869 0.5958,1.2501 1.3479,2.287 2.2348,3.0798 0.8759,0.792 1.9091,1.3893 3.0739,1.7751 1.1571,0.39 2.37,0.5459 3.6051,0.4631 2.0469,-0.134 3.8381,-0.8002 5.322,-1.9791 1.5129,-1.205 2.903,-2.831 4.1321,-4.8339 1.2339,-2.016 2.387,-4.373 3.4239,-7.007 1.0151,-2.582 2.071,-5.381 3.225,-8.558 z m -17.8832,26.4789 c -1.1117,0 -2.2028,-0.1791 -3.2519,-0.53 -1.2798,-0.4272 -2.4199,-1.086 -3.3891,-1.9582 -0.972,-0.8728 -1.7937,-2.0038 -2.4429,-3.3627 -0.6429,-1.3533 -1.0301,-2.9393 -1.1429,-4.7121 -0.159,-2.408 0.18,-4.511 1.0069,-6.254 0.8251,-1.728 1.976,-3.2139 3.418,-4.417 1.4439,-1.1939 3.0999,-2.1611 4.926,-2.8731 1.8221,-0.7181 3.668,-1.2989 5.485,-1.7218 1.844,-0.4371 3.6051,-0.7472 5.2331,-0.9201 1.616,-0.1749 3.02,-0.3011 4.168,-0.3739 l 5.1738,-0.339 -1.5999,4.4708 c -1.159,3.185 -2.2169,5.9921 -3.236,8.583 -1.0559,2.681 -2.2311,5.085 -3.494,7.1461 -1.2829,2.0928 -2.7411,3.7959 -4.3381,5.0661 -1.6279,1.2948 -3.5858,2.0259 -5.8189,2.1707 -0.2339,0.0162 -0.4661,0.0252 -0.6971,0.0252 z m 40.668,-66.2239 c -2.2541,2.853 -4.329,5.773 -6.1738,8.6791 -1.874,2.95 -3.6462,6.0077 -5.2651,9.087 -1.6259,3.0829 -3.219,6.2889 -4.7361,9.5309 -1.5389,3.285 -3.0798,6.6498 -4.5808,9.9977 l -0.1122,0.2452 -4.254,0.2781 c -3.74,0.2438 -7.4579,0.7308 -11.0488,1.446 -3.5481,0.7038 -6.7411,1.8249 -9.489,3.329 -2.7161,1.4859 -4.896,3.4509 -6.48,5.8419 -1.563,2.3649 -2.2359,5.4269 -2.0001,9.0969 0.087,1.3221 0.4229,2.647 0.9981,3.9359 0.5629,1.2762 1.3668,2.4321 2.3938,3.4362 1.01,0.9929 2.2782,1.8 3.7642,2.404 1.474,0.5959 3.1889,0.832 5.0898,0.7129 2.8333,-0.1851 5.3351,-1.1219 7.4381,-2.7901 2.1331,-1.6878 3.9991,-3.7488 5.546,-6.1288 1.5491,-2.3799 2.899,-4.941 4.017,-7.6161 1.08,-2.5789 2.065,-5.0479 2.923,-7.3389 l 2.06,-5.487 0.288,-0.017 14.731,-0.9581 -0.0031,0.481 c -0.0139,1.5092 0.0031,3.0651 0.0522,4.756 0.0507,1.6619 0.1258,3.215 0.2259,4.7432 0.068,1.0528 0.178,2.3309 0.339,3.9098 0.152,1.495 0.3509,3.0441 0.595,4.6091 0.2359,1.5208 0.508,3.07 0.811,4.6021 0.2599,1.332 0.5471,2.5038 0.8529,3.4877 l 10.8981,-1.0998 0.1528,-0.8181 c -1.3918,-0.002 -2.611,-0.129 -3.6337,-0.3779 -1.2331,-0.2931 -2.2822,-1.1381 -3.1122,-2.5092 -0.79,-1.3079 -1.4179,-3.2408 -1.866,-5.7489 -0.4459,-2.4548 -0.813,-5.8689 -1.0888,-10.148 -0.2622,-3.992 -0.2682,-8.2548 -0.0162,-12.6728 0.252,-4.4031 0.635,-8.6831 1.137,-12.7222 0.5091,-4.0807 1.0701,-7.812 1.6679,-11.086 0.6262,-3.4248 1.1151,-5.9899 1.4953,-7.8417 l 0.0538,-0.2651 3.7471,-1.093 -0.17,0.7429 c -0.3529,1.5441 -0.8181,3.735 -1.4001,6.571 -0.5859,2.867 -1.1469,6.0931 -1.6679,9.589 -0.534,3.5581 -0.955,7.399 -1.252,11.4191 -0.2991,4.011 -0.3201,8.0949 -0.0601,12.1408 0.3172,4.8461 0.873,8.636 1.658,11.266 0.6851,2.294 1.3501,4.2349 1.9811,5.784 l 1.313,-1.7569 c -0.7342,-1.3011 -1.5472,-3.3001 -2.416,-5.949 -0.9292,-2.8341 -1.567,-6.8661 -1.8992,-11.9801 -0.2568,-3.941 -0.2199,-8.0189 0.108,-12.1169 0.3291,-4.1131 0.7801,-8.0141 1.3402,-11.5979 0.557,-3.5861 1.1798,-6.8171 1.853,-9.603 0.5508,-2.2762 0.991,-4.009 1.336,-5.2571 z M 39.897,125.1151 c -1.6381,0 -3.1371,-0.273 -4.468,-0.8119 -1.5961,-0.6452 -2.9602,-1.5191 -4.0541,-2.5931 -1.1069,-1.084 -1.978,-2.3321 -2.586,-3.7128 -0.6179,-1.383 -0.9791,-2.8103 -1.0721,-4.2392 -0.252,-3.871 0.4723,-7.1178 2.145,-9.65 1.6651,-2.5121 3.9521,-4.5768 6.7972,-6.135 2.829,-1.546 6.1069,-2.698 9.7438,-3.42 3.63,-0.724 7.3871,-1.2149 11.1642,-1.4598 L 61.2858,92.85 c 1.4692,-3.2717 2.9741,-6.5548 4.4762,-9.7667 1.525,-3.2542 3.1249,-6.4732 4.7559,-9.5661 1.6299,-3.1019 3.4129,-6.1809 5.3019,-9.1499 1.8811,-2.967 4.004,-5.9471 6.306,-8.858 l 0.081,-0.1012 10.0262,-3.5177 -0.2472,0.8367 c -0.3691,1.2493 -0.879,3.2281 -1.5611,6.0503 -0.6678,2.7609 -1.2849,5.9678 -1.8399,9.5309 -0.5559,3.562 -1.0049,7.4418 -1.332,11.5299 -0.3249,4.0561 -0.36,8.0901 -0.108,11.9871 0.328,5.0409 0.9521,8.9977 1.8561,11.7609 0.9099,2.7709 1.747,4.7968 2.4868,6.0271 l 0.1551,0.2568 -2.5999,3.4789 -0.307,-0.7058 c -0.7331,-1.6821 -1.5151,-3.903 -2.3191,-6.601 -0.8039,-2.6941 -1.3739,-6.5512 -1.6919,-11.463 -0.264,-4.0881 -0.245,-8.214 0.0589,-12.2661 0.2971,-4.0399 0.722,-7.9038 1.2592,-11.4848 0.5229,-3.5101 1.0879,-6.751 1.6749,-9.6361 0.497,-2.4171 0.9088,-4.3659 1.2379,-5.849 l -1.7679,0.5159 c -0.37,1.8241 -0.8411,4.301 -1.4372,7.56 -0.5958,3.2582 -1.156,6.9701 -1.6608,11.0373 -0.5,4.0178 -0.8802,8.2768 -1.1302,12.6617 -0.25,4.3801 -0.2457,8.606 0.0131,12.562 0.2741,4.2452 0.638,7.626 1.078,10.048 0.4291,2.4012 1.0182,4.2309 1.7509,5.445 0.703,1.1571 1.5611,1.8661 2.556,2.1019 1.0812,0.2622 2.4041,0.3722 3.9552,0.3481 l 0.5511,-0.013 -0.4791,2.5531 -12.2831,1.241 -0.1119,-0.3401 c -0.3592,-1.088 -0.6931,-2.4129 -0.9902,-3.9379 -0.3058,-1.544 -0.5799,-3.1039 -0.8178,-4.6392 -0.2452,-1.5789 -0.4481,-3.1447 -0.602,-4.6539 -0.161,-1.5899 -0.2722,-2.88 -0.3391,-3.943 -0.1029,-1.5369 -0.176,-3.0999 -0.229,-4.7749 -0.0439,-1.5251 -0.0609,-2.9381 -0.0558,-4.309 l -13.481,0.8779 -1.857,4.9451 c -0.8631,2.2988 -1.851,4.78 -2.937,7.37 -1.1372,2.7218 -2.5132,5.334 -4.0901,7.7598 -1.601,2.4582 -3.5339,4.593 -5.7421,6.3411 -2.2479,1.7819 -4.9178,2.7839 -7.935,2.9801 -0.3438,0.0229 -0.6829,0.0349 -1.0168,0.0349 z"
       style="fill:#102a83;fill-rule:evenodd"
       id="path24" />
    <path
       d="m 79.4808,90.126 c 0.0518,-2.7 0.21,-5.495 0.4759,-8.3889 0.265,-2.8851 0.591,-5.7619 0.972,-8.6272 0.381,-2.863 0.8252,-5.6758 1.3249,-8.4489 0.504,-2.7641 1.0182,-5.3051 1.546,-7.6269 l -0.182,-0.1942 c -3.598,5.775 -6.872,11.4882 -9.8268,17.147 -2.9511,5.6642 -5.521,11.3341 -7.7099,17.011 z m -21.234,3.4619 c -1.133,0.0731 -2.5169,0.1981 -4.1511,0.3742 -1.6359,0.1729 -3.3638,0.4787 -5.1789,0.9088 -1.8181,0.4252 -3.626,0.9952 -5.4229,1.703 -1.8011,0.703 -3.399,1.641 -4.8022,2.8021 -1.3989,1.1658 -2.4999,2.5888 -3.3009,4.2638 -0.7968,1.6801 -1.1189,3.6933 -0.9649,6.0321 0.1119,1.7241 0.479,3.242 1.1009,4.5499 0.6259,1.311 1.406,2.3851 2.34,3.2222 0.9341,0.843 2.0109,1.4598 3.231,1.866 1.2172,0.409 2.4791,0.57 3.7771,0.4839 2.147,-0.1389 4.0068,-0.832 5.5709,-2.075 1.5659,-1.2469 2.9761,-2.897 4.2341,-4.9498 1.2589,-2.0563 2.4098,-4.4133 3.4589,-7.0761 1.0491,-2.6672 2.1231,-5.5219 3.2309,-8.57 l 1.3711,-3.829 z m 5.0779,4.7579 c -0.8248,2.1992 -1.7968,4.6511 -2.931,7.3542 -1.129,2.7049 -2.4789,5.2679 -4.0529,7.6879 -1.577,2.423 -3.4549,4.5019 -5.6441,6.235 -2.1849,1.7331 -4.7489,2.6941 -7.6858,2.8851 -1.9832,0.129 -3.742,-0.119 -5.2869,-0.7452 -1.546,-0.6259 -2.8503,-1.4578 -3.9101,-2.4979 -1.0602,-1.0369 -1.895,-2.226 -2.49,-3.5739 -0.5981,-1.3411 -0.9439,-2.7071 -1.0352,-4.0881 -0.2449,-3.7879 0.4482,-6.916 2.0741,-9.3739 1.6291,-2.4602 3.8429,-4.4591 6.637,-5.989 2.7981,-1.529 6.001,-2.6549 9.6171,-3.3741 3.6159,-0.72 7.3188,-1.207 11.1059,-1.453 l 3.9869,-0.2608 c 1.5349,-3.4211 3.0631,-6.7541 4.5842,-10.0051 1.5207,-3.248 3.1019,-6.4299 4.746,-9.548 1.6398,-3.1189 3.4018,-6.1579 5.2829,-9.1179 1.878,-2.961 3.973,-5.9031 6.281,-8.8199 l 9.0779,-3.1862 c -0.3738,1.2722 -0.8949,3.2961 -1.5661,6.071 -0.6718,2.7802 -1.2869,5.966 -1.8468,9.568 -0.5632,3.604 -1.0071,7.4571 -1.3362,11.5631 -0.328,4.1048 -0.3628,8.1209 -0.108,12.052 0.3322,5.1018 0.9581,9.059 1.8782,11.8709 0.923,2.8128 1.766,4.8529 2.528,6.118 l -1.9582,2.6209 c -0.7348,-1.684 -1.4998,-3.8678 -2.3009,-6.55 -0.8011,-2.6838 -1.3569,-6.47 -1.675,-11.3649 -0.263,-4.0671 -0.2449,-8.138 0.059,-12.2031 0.301,-4.072 0.7211,-7.886 1.256,-11.4528 0.5309,-3.5651 1.0911,-6.768 1.671,-9.6131 0.584,-2.8401 1.0491,-5.0341 1.402,-6.5798 L 88.9298,53.38 c -0.3881,1.8929 -0.885,4.5062 -1.493,7.8329 -0.6089,3.3262 -1.1611,7.0152 -1.6651,11.0611 -0.5029,4.0481 -0.881,8.2791 -1.133,12.6921 -0.252,4.4098 -0.2481,8.617 0.0142,12.6169 0.2758,4.2738 0.6358,7.6388 1.0839,10.0999 0.4408,2.463 1.046,4.3321 1.808,5.595 0.7659,1.2639 1.7098,2.0389 2.836,2.306 1.1259,0.2749 2.4789,0.3931 4.0669,0.36 l -0.315,1.682 -11.5919,1.1722 c -0.3569,-1.0832 -0.6821,-2.3823 -0.976,-3.8841 -0.2971,-1.5052 -0.5701,-3.0421 -0.815,-4.621 -0.244,-1.5749 -0.4442,-3.117 -0.5981,-4.6321 -0.153,-1.51 -0.269,-2.8199 -0.339,-3.9248 -0.1049,-1.584 -0.178,-3.17 -0.2271,-4.7611 -0.0459,-1.5879 -0.0668,-3.177 -0.053,-4.7721 l -14.2497,0.9272 z"
       style="fill:#ffffff;fill-rule:evenodd"
       id="path26" />
    <path
       d="m 82.962,58.751 c -3.1751,5.1792 -6.1231,10.3652 -8.7741,15.4432 -2.817,5.4039 -5.3169,10.8889 -7.4358,16.3108 L 79.042,89.7062 c 0.0609,-2.5872 0.2179,-5.2801 0.468,-8.0102 0.263,-2.8508 0.591,-5.7608 0.9739,-8.6459 0.3731,-2.7961 0.8201,-5.6441 1.3289,-8.4679 0.3762,-2.067 0.7611,-4.0201 1.1492,-5.8312 z M 65.411,91.49 65.6619,90.838 c 2.1861,-5.667 4.786,-11.406 7.732,-17.0569 2.9481,-5.646 6.2601,-11.425 9.8439,-17.177 l 0.3081,-0.4949 0.743,0.7919 -0.0519,0.2331 c -0.521,2.285 -1.0392,4.8449 -1.5432,7.607 -0.5068,2.81 -0.951,5.646 -1.3209,8.4279 -0.383,2.873 -0.7101,5.77 -0.9709,8.608 -0.2622,2.855 -0.4209,5.667 -0.4739,8.3579 l -0.0082,0.4111 z m -3.321,2.296 -3.8129,0.2481 c -1.1381,0.0751 -2.5291,0.199 -4.1321,0.3739 -1.591,0.1681 -3.3151,0.47 -5.125,0.8991 -1.7759,0.4139 -3.579,0.9811 -5.362,1.6829 -1.7379,0.6789 -3.312,1.5971 -4.6808,2.7301 -1.3411,1.1191 -2.4132,2.5041 -3.1822,4.1119 -0.7611,1.6021 -1.0701,3.5581 -0.923,5.811 0.108,1.6611 0.4649,3.136 1.0591,4.3869 0.5958,1.2501 1.3478,2.287 2.2348,3.0801 0.8762,0.792 1.9091,1.389 3.0742,1.7751 1.1548,0.388 2.374,0.553 3.6051,0.4629 2.0468,-0.1341 3.8378,-0.8 5.3217,-1.9789 1.5131,-1.205 2.903,-2.8309 4.1321,-4.8342 1.2339,-2.016 2.387,-4.373 3.4239,-7.0069 1.0151,-2.5818 2.0721,-5.381 3.2261,-8.5578 z m -17.8829,26.479 c -1.1121,0 -2.2031,-0.1789 -3.2522,-0.5301 -1.2798,-0.4269 -2.4199,-1.0859 -3.3888,-1.9579 -0.972,-0.873 -1.7941,-2.0041 -2.4432,-3.363 -0.6429,-1.353 -1.0298,-2.9389 -1.1429,-4.712 -0.159,-2.408 0.18,-4.5111 1.0071,-6.2538 0.8249,-1.728 1.9761,-3.2142 3.418,-4.4172 1.444,-1.194 3.1,-2.1609 4.9258,-2.8729 1.8221,-0.718 3.668,-1.2991 5.485,-1.7221 1.8442,-0.4368 3.6051,-0.7469 5.233,-0.9198 1.6161,-0.1752 3.0201,-0.301 4.1681,-0.3742 l 5.1741,-0.339 -1.6002,4.4711 c -1.1588,3.185 -2.217,5.9918 -3.236,8.583 -1.0559,2.681 -2.2309,5.085 -3.494,7.1458 -1.2829,2.0931 -2.7408,3.7962 -4.3378,5.0661 -1.628,1.2951 -3.5861,2.0259 -5.819,2.171 -0.2341,0.0159 -0.466,0.025 -0.697,0.025 z M 84.8748,54.0413 c -2.2538,2.8528 -4.3288,5.7727 -6.1738,8.6788 -1.874,2.95 -3.646,6.008 -5.2651,9.087 -1.626,3.083 -3.219,6.2889 -4.7358,9.5309 -1.5392,3.2851 -3.0802,6.6501 -4.5811,9.9981 l -0.112,0.2449 -4.2539,0.2781 c -3.74,0.244 -7.4582,0.731 -11.0492,1.4459 -3.5478,0.7041 -6.741,1.825 -9.4889,3.329 -2.7159,1.4862 -4.896,3.4512 -6.48,5.8422 -1.563,2.3649 -2.236,5.4269 -1.9998,9.0969 0.0867,1.3218 0.4229,2.647 0.9978,3.9359 0.5629,1.2759 1.3671,2.4321 2.3941,3.4359 1.01,0.9933 2.2779,1.8 3.7638,2.4041 1.476,0.5961 3.1842,0.8271 5.0902,0.7131 2.8329,-0.1851 5.3348,-1.1222 7.4378,-2.7909 2.1331,-1.6872 3.9991,-3.7483 5.546,-6.1282 1.5491,-2.38 2.899,-4.9408 4.0169,-7.6159 1.08,-2.5789 2.0651,-5.0479 2.9231,-7.3391 l 2.06,-5.4871 0.288,-0.0167 14.731,-0.9581 -0.0028,0.4811 c -0.0142,1.5088 0.0028,3.0648 0.0519,4.7559 0.051,1.662 0.1258,3.2151 0.2259,4.7429 0.068,1.0531 0.178,2.331 0.339,3.9101 0.1519,1.495 0.3509,3.0439 0.595,4.6089 0.2361,1.521 0.508,3.0702 0.811,4.602 0.2599,1.332 0.5471,2.5041 0.8529,3.488 l 10.8981,-1.1001 0.153,-0.8178 c -1.392,-0.002 -2.6109,-0.129 -3.634,-0.3781 -1.233,-0.2928 -2.2818,-1.1378 -3.1121,-2.509 -0.7897,-1.3079 -1.4179,-3.2411 -1.8658,-5.7489 -0.4461,-2.4551 -0.8129,-5.8691 -1.089,-10.148 -0.262,-3.992 -0.2682,-8.255 -0.0162,-12.6731 0.252,-4.4028 0.6352,-8.6828 1.1373,-12.7219 0.5088,-4.081 1.0698,-7.812 1.6679,-11.086 0.6259,-3.4251 1.1148,-5.9898 1.495,-7.842 l 0.0538,-0.265 3.7471,-1.0928 -0.1701,0.743 c -0.3529,1.544 -0.8178,3.7349 -1.4,6.5709 -0.5859,2.867 -1.1469,6.0928 -1.6679,9.5891 -0.534,3.5577 -0.955,7.3989 -1.252,11.4187 -0.2991,4.0111 -0.3201,8.0952 -0.0599,12.1411 0.317,4.8461 0.8728,8.636 1.658,11.266 0.6849,2.2941 1.3499,4.2349 1.9809,5.7841 l 1.313,-1.7572 c -0.7339,-1.3008 -1.5469,-3.2998 -2.416,-5.9488 -0.9289,-2.8341 -1.567,-6.8661 -1.8989,-11.98 -0.2571,-3.941 -0.22,-8.019 0.108,-12.117 0.3288,-4.1131 0.7798,-8.0141 1.3399,-11.5979 0.557,-3.5861 1.1801,-6.817 1.853,-9.6032 0.5511,-2.2759 0.991,-4.009 1.336,-5.2569 z M 42.023,122.9891 c -1.6379,0 -3.1371,-0.273 -4.468,-0.8122 -1.5959,-0.6448 -2.9599,-1.5188 -4.0541,-2.5928 -1.1069,-1.084 -1.978,-2.3321 -2.5857,-3.7131 -0.6183,-1.383 -0.9791,-2.81 -1.0721,-4.2389 -0.252,-3.871 0.472,-7.1181 2.145,-9.65 1.665,-2.512 3.952,-4.5771 6.7969,-6.135 2.8289,-1.546 6.1069,-2.698 9.7441,-3.42 3.63,-0.7239 7.387,-1.2149 11.1639,-1.4601 l 3.719,-0.2429 c 1.469,-3.2721 2.9739,-6.5551 4.4759,-9.7671 1.5251,-3.2538 3.1249,-6.4729 4.756,-9.5657 1.6299,-3.1023 3.4132,-6.1813 5.3019,-9.1503 1.8811,-2.967 4.0042,-5.9467 6.3062,-8.8579 l 0.0808,-0.1009 10.0261,-3.5181 -0.2469,0.8371 c -0.369,1.2489 -0.879,3.228 -1.561,6.0499 -0.6681,2.761 -1.2852,5.9681 -1.84,9.5309 -0.5561,3.5621 -1.0051,7.4421 -1.332,11.5302 -0.3251,4.0558 -0.36,8.0898 -0.108,11.9869 0.328,5.0411 0.9519,8.998 1.8559,11.7609 0.9099,2.7711 1.747,4.797 2.4871,6.027 l 0.1551,0.2571 -2.6003,3.479 -0.307,-0.7062 c -0.733,-1.6817 -1.5148,-3.903 -2.319,-6.6007 -0.8039,-2.694 -1.3739,-6.5511 -1.692,-11.463 -0.2639,-4.0881 -0.2449,-8.2142 0.059,-12.2661 0.2971,-4.0399 0.7223,-7.9041 1.2591,-11.4851 0.523,-3.5098 1.088,-6.7509 1.675,-9.6358 0.4969,-2.4171 0.9091,-4.3661 1.2379,-5.8489 l -1.768,0.5159 c -0.3699,1.8229 -0.841,4.301 -1.4368,7.5599 -0.5962,3.2582 -1.156,6.9701 -1.6611,11.037 -0.5001,4.0181 -0.8799,8.2771 -1.1299,12.662 -0.25,4.3801 -0.2461,8.606 0.013,12.5609 0.2738,4.246 0.6378,7.6272 1.078,10.0491 0.4289,2.4009 1.018,4.231 1.751,5.445 0.703,1.1569 1.561,1.8658 2.556,2.1019 1.0808,0.2619 2.4018,0.3739 3.9549,0.347 l 0.551,-0.0119 -0.479,2.5529 -12.2831,1.241 -0.112,-0.3399 c -0.3588,-1.0879 -0.6927,-2.4131 -0.9898,-3.9382 -0.3061,-1.5437 -0.58,-3.1039 -0.8181,-4.6389 -0.2449,-1.5789 -0.4479,-3.145 -0.6021,-4.6539 -0.161,-1.5899 -0.2718,-2.88 -0.339,-3.943 -0.1029,-1.5369 -0.1757,-3.0999 -0.2287,-4.7749 -0.0443,-1.525 -0.0613,-2.9381 -0.0562,-4.3092 l -13.4809,0.8781 -1.857,4.9451 c -0.8629,2.2989 -1.851,4.7797 -2.937,7.3698 -1.137,2.7221 -2.5129,5.3342 -4.0901,7.7601 -1.601,2.4579 -3.5339,4.5929 -5.7418,6.3411 -2.2482,1.7818 -4.9181,2.7839 -7.935,2.9797 -0.3442,0.023 -0.6832,0.0352 -1.0171,0.0352 z"
       style="fill:#ffffff;fill-rule:evenodd"
       id="path28" />
    <path
       d="m 132.4021,97.2897 c 2.035,0.7358 3.7139,1.8949 5.036,3.4758 1.3221,1.582 1.982,3.6071 1.982,6.076 0,3.553 -1.5591,6.6949 -4.6789,9.4241 0.9519,-0.4771 1.8958,-1.0942 2.8259,-1.853 0.934,-0.7571 1.745,-1.5911 2.4369,-2.5021 0.6931,-0.9088 1.2592,-1.8618 1.6931,-2.8591 0.4301,-0.9969 0.6469,-1.9907 0.6469,-2.9899 0,-0.9511 -0.1397,-1.916 -0.4198,-2.8919 -0.2832,-0.974 -0.6962,-1.893 -1.2342,-2.761 -0.546,-0.8671 -1.2379,-1.6469 -2.0809,-2.3391 -0.8459,-0.6928 -1.832,-1.2348 -2.958,-1.6248 -0.6049,0.174 -1.1789,0.3568 -1.7209,0.553 -0.542,0.1939 -1.0522,0.292 -1.5281,0.292 z m 5.7841,-2.2102 c 1.43,0.8232 2.6648,2.1659 3.7028,4.028 1.0421,1.8641 1.5602,4.0312 1.5602,6.5001 0,1.5591 -0.388,3.0541 -1.1681,4.4839 -0.7801,1.4289 -1.8218,2.753 -3.119,3.9639 -1.3011,1.2141 -2.8049,2.2981 -4.5178,3.2491 -1.7102,0.955 -3.5181,1.7549 -5.4241,2.404 -2.2981,0.955 -4.6369,1.4301 -7.022,1.4301 -3.1189,0 -5.7741,-0.7021 -7.9591,-2.1121 -2.1889,-1.4071 -3.7389,-3.4319 -4.6479,-6.076 l 4.354,-4.7429 c 0.045,1.6469 0.2619,3.1838 0.65,4.6139 0.392,1.4281 0.945,2.696 1.6579,3.801 0.7129,1.1049 1.6121,1.972 2.6961,2.5999 1.0839,0.6282 2.3609,0.9431 3.8361,0.9431 1.7767,0 3.4307,-0.3691 4.9699,-1.1061 1.5378,-0.7359 2.8809,-1.711 4.032,-2.9248 1.1469,-1.2109 2.0449,-2.567 2.6961,-4.062 0.6499,-1.4941 0.9748,-3.0212 0.9748,-4.5811 0,-1.6888 -0.4229,-3.1079 -1.2691,-4.255 -0.843,-1.1489 -1.8847,-2.0691 -3.1189,-2.763 -1.2351,-0.6919 -2.5671,-1.1908 -3.9969,-1.495 -1.4312,-0.3018 -2.728,-0.4549 -3.9001,-0.4549 l 1.3011,-2.014 3.5739,0.2591 c 1.864,-0.129 3.543,-0.4862 5.036,-1.0721 1.497,-0.5839 2.7629,-1.353 3.801,-2.306 1.042,-0.953 1.8331,-2.048 2.3751,-3.2819 0.538,-1.2342 0.811,-2.5461 0.811,-3.9322 0,-0.9528 -0.1851,-1.7978 -0.553,-2.5339 -0.3671,-0.7359 -0.8561,-1.353 -1.461,-1.853 -0.6092,-0.4969 -1.2912,-0.8759 -2.05,-1.137 -0.7552,-0.2599 -1.5239,-0.3901 -2.304,-0.3901 -1.476,0 -2.903,0.2382 -4.2911,0.7152 -1.385,0.4779 -2.63,1.1259 -3.7349,1.95 -1.105,0.8229 -1.9931,1.8198 -2.664,2.99 -0.6721,1.1698 -1.008,2.425 -1.008,3.7678 0,0.477 0.032,0.932 0.0981,1.3651 0.0629,0.434 0.14,0.889 0.2279,1.364 l -3.8991,1.3009 c 0.2132,-3.3798 1.105,-6.099 2.664,-8.157 1.5602,-2.056 3.746,-3.6918 6.5611,-4.9059 1.129,-0.4751 2.2759,-0.8549 3.4441,-1.1361 1.1718,-0.2818 2.34,-0.4238 3.5109,-0.4238 3.2488,0 5.6299,0.6179 7.1479,1.8519 1.5179,1.235 2.2759,2.8709 2.2759,4.9059 0,2.0372 -0.521,3.835 -1.5588,5.394 -1.042,1.5602 -2.4732,2.8381 -4.291,3.835 z"
       style="fill:#102a83;fill-rule:evenodd"
       id="path30" />
    <path
       d="m 135.663,95.9764 0.1353,0.045 c 1.169,0.406 2.2098,0.978 3.0937,1.702 0.875,0.718 1.6072,1.542 2.177,2.448 0.5621,0.9039 0.9932,1.8688 1.2852,2.874 0.2908,1.0131 0.438,2.027 0.438,3.0161 0,1.0508 -0.2311,2.1157 -0.684,3.1668 -0.3382,0.7781 -0.7611,1.5381 -1.2592,2.2751 0.3881,-0.527 0.7362,-1.0701 1.0392,-1.6271 0.739,-1.3549 1.1129,-2.7898 1.1129,-4.269 0,-2.385 -0.5049,-4.4968 -1.5021,-6.2809 -0.9938,-1.7819 -2.183,-3.081 -3.5368,-3.8591 l -0.6902,-0.398 0.699,-0.383 c 1.747,-0.9569 3.1371,-2.198 4.1332,-3.6898 0.985,-1.4791 1.4848,-3.21 1.4848,-5.146 0,-1.912 -0.6908,-3.4041 -2.1118,-4.5581 -1.429,-1.1631 -3.7392,-1.7521 -6.865,-1.7521 -1.1262,0 -2.2731,0.138 -3.4061,0.411 -1.133,0.273 -2.2691,0.6472 -3.376,1.114 -2.723,1.173 -4.8699,2.776 -6.3768,4.765 -1.3992,1.844 -2.247,4.2801 -2.5231,7.2471 l 2.8919,-0.9649 c -0.061,-0.343 -0.1148,-0.6772 -0.161,-0.9972 -0.0681,-0.444 -0.1029,-0.925 -0.1029,-1.4298 0,-1.4151 0.358,-2.757 1.0669,-3.9901 0.699,-1.2189 1.6362,-2.27 2.7851,-3.126 1.1349,-0.847 2.4321,-1.5231 3.857,-2.0149 1.427,-0.4912 2.92,-0.739 4.436,-0.739 0.8288,0 1.654,0.1398 2.45,0.4139 0.8019,0.2749 1.538,0.684 2.1869,1.2141 0.657,0.5419 1.1871,1.2149 1.5792,1.9998 0.3979,0.7971 0.5998,1.7172 0.5998,2.7332 0,1.4368 -0.2849,2.8199 -0.8479,4.1099 -0.5672,1.2909 -1.4031,2.4449 -2.4831,3.4339 -1.0769,0.9881 -2.4029,1.7932 -3.941,2.3921 -0.7659,0.3011 -1.588,0.546 -2.4551,0.73 h 1.6101 c 0.4209,0 0.8849,-0.0899 1.3779,-0.2659 0.5491,-0.2002 1.133,-0.3853 1.7481,-0.5621 z m -1.7138,1.4879 c 1.4939,0.7452 2.7788,1.7552 3.831,3.014 1.385,1.658 2.088,3.7982 2.088,6.363 0,2.5112 -0.7602,4.8401 -2.266,6.959 0.771,-0.661 1.457,-1.3858 2.0458,-2.1608 0.6732,-0.883 1.224,-1.8151 1.6381,-2.7661 0.4059,-0.9371 0.61,-1.883 0.61,-2.8119 0,-0.9051 -0.134,-1.8372 -0.4019,-2.7681 -0.269,-0.9249 -0.6681,-1.8161 -1.184,-2.6489 -0.5171,-0.8212 -1.1852,-1.5733 -1.986,-2.2292 -0.7671,-0.629 -1.671,-1.133 -2.687,-1.4998 -0.5442,0.1567 -1.0629,0.3248 -1.555,0.504 -0.0451,0.015 -0.089,0.0309 -0.133,0.0448 z m 0.2469,19.576 -1.9831,0.995 c 0.6772,-0.311 1.3402,-0.6421 1.9831,-0.995 z m -24.0919,-3.9849 c 0.883,2.4128 2.3531,4.295 4.3759,5.595 2.1021,1.3538 4.6981,2.0409 7.7181,2.0409 2.3171,0 4.6211,-0.47 6.8499,-1.3949 0.9621,-0.3291 1.899,-0.6962 2.8049,-1.0982 l 2.5931,-2.2699 c 3.0039,-2.628 4.527,-5.6841 4.527,-9.087 0,-2.348 -0.633,-4.2959 -1.878,-5.7889 -1.2659,-1.5132 -2.895,-2.6371 -4.845,-3.3421 l -2.0721,-0.75 c -0.6749,0.119 -1.3739,0.2052 -2.0979,0.254 l -3.3729,-0.2398 -0.726,1.1247 c 0.9788,0.0522 2.048,0.2013 3.1839,0.4422 1.4692,0.311 2.8562,0.8309 4.123,1.5421 1.2911,0.7259 2.389,1.6959 3.2609,2.8888 0.9012,1.218 1.3573,2.7399 1.3573,4.5201 0,1.6129 -0.3411,3.215 -1.0123,4.7591 -0.6698,1.5389 -1.605,2.9477 -2.7819,4.191 -1.186,1.2498 -2.5861,2.2657 -4.1649,3.0208 -1.5931,0.7631 -3.329,1.1489 -5.1619,1.1489 -1.5452,0 -2.9112,-0.337 -4.0601,-1.0017 -1.1401,-0.6611 -2.0979,-1.584 -2.8479,-2.7451 -0.7342,-1.1381 -1.3111,-2.4582 -1.713,-3.9251 -0.3101,-1.1441 -0.5142,-2.3638 -0.6112,-3.644 z m 12.094,8.5308 c -3.1949,0 -5.955,-0.7339 -8.202,-2.1838 -2.2649,-1.4562 -3.8891,-3.577 -4.828,-6.3071 l -0.087,-0.2508 5.2801,-5.7532 0.0317,1.1029 c 0.0431,1.6042 0.2571,3.1201 0.6341,4.5102 0.3782,1.378 0.9171,2.6139 1.6022,3.6749 0.6709,1.04 1.5279,1.868 2.5438,2.455 1.0111,0.586 2.226,0.883 3.6122,0.883 1.6979,0 3.3049,-0.3568 4.7769,-1.061 1.478,-0.7081 2.791,-1.6599 3.8991,-2.8289 1.1049,-1.1682 1.9828,-2.49 2.6109,-3.9331 0.622,-1.4321 0.9389,-2.9129 0.9389,-4.4019 0,-1.5851 -0.3969,-2.9271 -1.1821,-3.9909 -0.7988,-1.0891 -1.8008,-1.9752 -2.9778,-2.6382 -1.1891,-0.6659 -2.491,-1.154 -3.8709,-1.4479 -1.3953,-0.2931 -2.6771,-0.4439 -3.8061,-0.4439 h -0.8221 l 1.8902,-2.9271 3.8378,0.2781 c 1.7481,-0.1262 3.399,-0.4771 4.841,-1.042 1.436,-0.561 2.6671,-1.3082 3.6621,-2.2201 0.989,-0.904 1.7521,-1.959 2.268,-3.132 0.5119,-1.177 0.7718,-2.4389 0.7718,-3.7519 0,-0.8762 -0.1689,-1.6611 -0.5048,-2.3352 -0.3362,-0.671 -0.7892,-1.2458 -1.3462,-1.7079 -0.5649,-0.4601 -1.209,-0.8161 -1.91,-1.0579 -0.7038,-0.2432 -1.4298,-0.3651 -2.1588,-0.3651 -1.4182,0 -2.812,0.2319 -4.146,0.6911 -1.3371,0.4609 -2.5531,1.0939 -3.6122,1.8839 -1.0508,0.7841 -1.906,1.7439 -2.5438,2.8539 -0.6301,1.0962 -0.9481,2.289 -0.9481,3.5462 0,0.46 0.032,0.8968 0.0929,1.2968 0.0632,0.432 0.1381,0.8821 0.2251,1.3521 l 0.07,0.381 -4.8968,1.635 0.0419,-0.663 c 0.2169,-3.4481 1.143,-6.2731 2.7539,-8.3999 1.601,-2.1101 3.869,-3.808 6.7399,-5.0462 1.1543,-0.4859 2.336,-0.8759 3.5161,-1.1608 1.203,-0.288 2.4199,-0.4351 3.6161,-0.4351 3.3378,0 5.838,0.6571 7.4311,1.9511 1.6188,1.3189 2.4409,3.086 2.4409,5.254 0,2.116 -0.5511,4.013 -1.6351,5.6429 -0.951,1.425 -2.2291,2.6351 -3.804,3.6051 1.231,0.8728 2.3161,2.1438 3.236,3.7907 1.072,1.9183 1.616,4.1792 1.616,6.7181 0,1.6291 -0.411,3.212 -1.2229,4.7002 -0.799,1.4629 -1.8771,2.8338 -3.2062,4.0748 -1.3289,1.2401 -2.8777,2.3541 -4.608,3.3139 -1.7218,0.9613 -3.57,1.781 -5.4969,2.435 -2.31,0.9621 -4.7311,1.455 -7.1649,1.455 z"
       style="fill:#102a83;fill-rule:evenodd"
       id="path32" />
    <path
       d="m 175.8137,112.3002 c 0,1.5602 0.203,2.8712 0.6149,3.9322 0.413,1.0619 0.9759,1.929 1.69,2.6 0.716,0.6721 1.5491,1.1488 2.503,1.4289 0.9521,0.2829 1.9941,0.4229 3.1201,0.4229 1.5139,0 2.8669,-0.269 4.06,-0.8129 1.192,-0.54 2.1889,-1.2759 2.99,-2.2079 0.7999,-0.9321 1.419,-2.0251 1.853,-3.282 0.434,-1.2572 0.65,-2.5781 0.65,-3.964 0,-1.6472 -0.2619,-3.088 -0.779,-4.3219 -0.521,-1.2351 -1.1931,-2.2751 -2.0151,-3.1201 -0.8249,-0.8442 -1.755,-1.537 -2.797,-2.0789 -1.0389,-0.542 -2.0571,-0.9652 -3.0529,-1.2671 -0.9972,-0.303 -1.9411,-0.5091 -2.8261,-0.618 -0.8878,-0.108 -1.5939,-0.1621 -2.1118,-0.1621 -0.2622,0 -0.521,0.0102 -0.7801,0.0312 -0.2619,0.0229 -0.5,0.0558 -0.7172,0.0978 -0.129,0.4339 -0.3347,1.1392 -0.6148,2.112 -0.2832,0.976 -0.553,2.079 -0.815,3.316 -0.2591,1.2339 -0.4861,2.5449 -0.682,3.93 -0.1922,1.3881 -0.29,2.709 -0.29,3.9639 z m 5.3918,-29.6327 c -0.9958,2.556 -2.0449,5.3288 -3.1499,8.3188 -1.1049,2.988 -2.137,6.0431 -3.088,9.1621 -0.955,3.119 -1.798,6.228 -2.5359,9.326 -0.7341,3.0968 -1.2552,6.0329 -1.559,8.8061 0.521,0.4767 1.042,0.8549 1.559,1.1358 0.521,0.284 1.368,0.705 2.5359,1.2679 l -9.292,0.65 c 0.1721,-1.4298 0.497,-3.1728 0.972,-5.2307 0.4791,-2.0583 1.0531,-4.2891 1.7241,-6.6952 0.6721,-2.404 1.4198,-4.873 2.2419,-7.408 0.822,-2.5339 1.658,-5.0029 2.5001,-7.4089 0.847,-2.4041 1.6679,-4.635 2.473,-6.6929 0.801,-2.056 1.5239,-3.801 2.175,-5.231 z m -22.2888,6.4009 c 0.9961,-1.927 2.524,-3.564 4.5811,-4.906 2.056,-1.343 4.6998,-2.3609 7.9268,-3.0551 3.2281,-0.692 7.1169,-1.0398 11.6659,-1.0398 2.3823,0 4.767,0.0658 7.1481,0.195 2.3811,0.1299 4.7869,0.1939 7.2139,0.1939 2.382,0 4.1692,-0.106 5.3612,-0.3231 1.1928,-0.2169 2.1118,-0.434 2.7629,-0.65 l 0.129,-0.0649 c -0.2169,0.2591 -0.4961,0.5839 -0.843,0.974 -0.349,0.39 -0.7059,0.8019 -1.073,1.2339 -0.367,0.434 -0.714,0.847 -1.0391,1.2362 -0.3249,0.39 -0.5769,0.6718 -0.7478,0.845 h -0.6511 c -3.3781,0 -6.4551,-0.1732 -9.2279,-0.519 -2.7731,-0.3481 -5.4799,-0.6721 -8.1241,-0.976 -0.4328,0.8668 -0.877,1.895 -1.332,3.0858 -0.455,1.1931 -0.9198,2.4811 -1.3949,3.8681 -0.4791,1.3859 -0.955,2.827 -1.4301,4.322 -0.4799,1.493 -0.934,2.9781 -1.364,4.4501 l 1.2342,-0.0652 c 1.7767,0 3.7238,0.2401 5.8467,0.7152 2.1232,0.4779 4.0952,1.2138 5.9131,2.2099 1.8221,0.9969 3.3369,2.2521 4.5501,3.7701 1.2138,1.5159 1.8219,3.3358 1.8219,5.4589 0,1.472 -0.3501,2.9018 -1.0421,4.2888 -0.693,1.387 -1.6679,2.6212 -2.9239,3.7032 -1.2589,1.0839 -2.7519,1.9618 -4.483,2.6319 -1.7339,0.671 -3.619,1.0089 -5.6539,1.0089 -2.99,0 -5.277,-0.7379 -6.8582,-2.2099 -1.5809,-1.4729 -2.3709,-3.9209 -2.3709,-7.344 0,-1.5159 0.2061,-3.422 0.6191,-5.7189 0.4091,-2.296 0.9831,-4.6791 1.7209,-7.1481 0.6049,-1.9939 1.224,-3.92 1.853,-5.7841 0.6259,-1.8617 1.224,-3.5639 1.787,-5.1017 0.5629,-1.537 1.0601,-2.8591 1.493,-3.964 0.434,-1.1052 0.7591,-1.8961 0.976,-2.3712 -0.8669,-0.2168 -1.7348,-0.3798 -2.598,-0.4878 -0.868,-0.108 -1.756,-0.163 -2.6648,-0.163 -2.5603,0 -4.8853,0.2168 -6.9871,0.6508 -2.1019,0.432 -3.924,1.082 -5.459,1.9491 -1.5389,0.866 -2.7312,1.95 -3.5739,3.2491 -0.8461,1.2988 -1.2691,2.8168 -1.2691,4.5499 0,0.477 0.0661,0.919 0.1959,1.332 0.129,0.411 0.2832,0.8339 0.4541,1.2659 l -3.899,1.3011 c 0.1749,-2.4709 0.7591,-4.6689 1.756,-6.597 z"
       style="fill:#102a83;fill-rule:evenodd"
       id="path34" />
    <path
       d="m 178.5656,99.3737 c -0.1278,0.434 -0.3078,1.0471 -0.5349,1.8411 -0.2761,0.9499 -0.54,2.0231 -0.8079,3.2839 -0.2531,1.2149 -0.4821,2.528 -0.6772,3.901 -0.1879,1.3692 -0.2848,2.6822 -0.2848,3.9011 0,1.5029 0.1978,2.7708 0.5859,3.7689 0.3869,0.995 0.9181,1.815 1.5772,2.4381 0.665,0.6199 1.4459,1.0658 2.3238,1.3229 0.904,0.2702 1.9091,0.4059 2.994,0.4059 1.4459,0 2.7501,-0.2607 3.8741,-0.773 1.1279,-0.5099 2.0809,-1.2149 2.836,-2.0928 0.7628,-0.8861 1.3589,-1.942 1.77,-3.1351 0.4158,-1.205 0.6258,-2.4899 0.6258,-3.8188 0,-1.5732 -0.25,-2.9702 -0.7449,-4.1491 -0.4969,-1.1761 -1.1441,-2.1801 -1.9219,-2.9789 -0.79,-0.8082 -1.692,-1.4791 -2.6841,-1.995 -1.012,-0.5281 -2.014,-0.9442 -2.9761,-1.2362 -0.97,-0.294 -1.8949,-0.4969 -2.7499,-0.6018 -0.866,-0.1052 -1.5579,-0.159 -2.0579,-0.159 -0.25,0 -0.4969,0.0107 -0.743,0.0297 -0.142,0.0122 -0.2761,0.0281 -0.4042,0.0471 z m 5.1761,21.7581 c -1.1699,0 -2.2629,-0.148 -3.2468,-0.4422 -1.0112,-0.2959 -1.9151,-0.811 -2.683,-1.5298 -0.7583,-0.7149 -1.3652,-1.645 -1.8012,-2.7641 -0.428,-1.1041 -0.6448,-2.482 -0.6448,-4.0949 0,-1.2612 0.0997,-2.6141 0.2939,-4.0249 0.1979,-1.3941 0.428,-2.7261 0.6868,-3.9631 0.273,-1.281 0.542,-2.3772 0.8241,-3.346 0.2789,-0.976 0.4881,-1.6821 0.6171,-2.1161 l 0.0771,-0.2599 0.2659,-0.0511 c 0.2299,-0.0459 0.4838,-0.0799 0.7639,-0.1048 0.2721,-0.023 0.5431,-0.0332 0.8181,-0.0332 0.5349,0 1.2639,0.0561 2.1659,0.1661 0.908,0.11 1.8839,0.3229 2.901,0.633 1.0159,0.3081 2.0701,0.7449 3.13,1.2991 1.0749,0.5598 2.056,1.2869 2.9109,2.1628 0.8572,0.881 1.567,1.9772 2.107,3.257 0.54,1.2909 0.8152,2.8029 0.8152,4.4972 0,1.4289 -0.227,2.8119 -0.6752,4.1088 -0.449,1.3011 -1.0998,2.4551 -1.9369,3.4291 -0.8399,0.9779 -1.8969,1.7588 -3.1439,2.3238 -1.2421,0.5661 -2.6699,0.8532 -4.2451,0.8532 z m -24.429,-31.8571 c -0.8699,1.6852 -1.4249,3.617 -1.6469,5.7512 l 2.808,-0.9382 c -0.108,-0.29 -0.2081,-0.5749 -0.2951,-0.855 -0.144,-0.4581 -0.2168,-0.951 -0.2168,-1.4669 0,-1.813 0.451,-3.4271 1.3407,-4.7939 0.4082,-0.6242 0.8941,-1.205 1.4551,-1.736 -1.497,1.154 -2.653,2.509 -3.445,4.0388 z m 18.737,-6.1599 c -0.61,1.358 -1.281,2.9809 -2.046,4.9461 -0.7861,2.0129 -1.594,4.197 -2.4679,6.6799 -0.8711,2.4879 -1.7101,4.9759 -2.4962,7.3969 -0.8268,2.5481 -1.5777,5.0341 -2.2359,7.3911 -0.6611,2.3661 -1.2399,4.6131 -1.7198,6.6758 -0.413,1.7893 -0.7141,3.348 -0.8941,4.646 l 7.083,-0.4969 c -0.4352,-0.2168 -0.7881,-0.3991 -1.054,-0.544 -0.5541,-0.2999 -1.1092,-0.7041 -1.6492,-1.199 l -0.1678,-0.1539 0.027,-0.226 c 0.3019,-2.7691 0.8299,-5.75 1.5681,-8.8591 0.7449,-3.128 1.5999,-6.275 2.5418,-9.3548 0.9391,-3.079 1.9811,-6.1702 3.0971,-9.1862 1.031,-2.7888 2.0109,-5.3819 2.916,-7.7159 z m -0.3509,-2.1949 c 0.9229,0 1.8388,0.0558 2.7198,0.167 0.8802,0.1099 1.7722,0.278 2.6512,0.498 l 0.523,0.129 -0.2242,0.4898 c -0.2149,0.472 -0.5369,1.2532 -0.9669,2.3502 -0.432,1.101 -0.9269,2.4199 -1.4899,3.9529 -0.5609,1.535 -1.1571,3.2329 -1.781,5.0919 -0.64,1.8952 -1.2631,3.8361 -1.8501,5.7702 -0.7288,2.4389 -1.3048,4.8268 -1.7079,7.0968 -0.4059,2.2612 -0.612,4.1601 -0.612,5.6401 0,3.2791 0.75,5.6389 2.2269,7.0168 1.4902,1.387 3.6949,2.09 6.554,2.09 1.9669,0 3.8151,-0.3288 5.4929,-0.9799 1.6722,-0.646 3.1351,-1.5049 4.352,-2.5521 1.207,-1.0408 2.1541,-2.2399 2.8151,-3.5639 0.6611,-1.3218 0.995,-2.6981 0.995,-4.089 0,-2.0081 -0.58,-3.7508 -1.724,-5.1789 -1.171,-1.4661 -2.6561,-2.6949 -4.415,-3.657 -1.7711,-0.972 -3.721,-1.6991 -5.796,-2.1659 -2.086,-0.4672 -4.0201,-0.705 -5.7489,-0.705 l -1.8411,0.0978 0.176,-0.606 c 0.432,-1.476 0.889,-2.9639 1.368,-4.4609 0.4771,-1.4981 0.953,-2.9429 1.4341,-4.333 0.477,-1.3899 0.9439,-2.683 1.4,-3.879 0.4558,-1.1979 0.911,-2.249 1.3498,-3.1269 l 0.1401,-0.2812 0.3109,0.036 c 2.645,0.305 5.3541,0.6282 8.1292,0.976 2.7408,0.343 5.8269,0.5162 9.1718,0.5162 h 0.46 c 0.154,-0.1661 0.3532,-0.394 0.595,-0.684 0.3271,-0.39 0.673,-0.8042 1.042,-1.2382 0.313,-0.3699 0.62,-0.7248 0.921,-1.0649 -0.4419,0.102 -0.9329,0.2021 -1.476,0.301 -1.2229,0.2219 -3.003,0.3311 -5.4408,0.3311 -2.425,0 -4.8611,-0.0652 -7.2391,-0.1942 -2.3831,-0.1298 -4.7801,-0.1959 -7.1229,-0.1959 -3.257,0 -6.2022,0.182 -8.7899,0.544 1.0879,-0.093 2.2229,-0.1389 3.3979,-0.1389 z m 6.0429,41.1879 c -3.0941,0 -5.5029,-0.7829 -7.162,-2.3309 -1.668,-1.5531 -2.5149,-4.1332 -2.5149,-7.6711 0,-1.535 0.21,-3.4861 0.6258,-5.7972 0.4111,-2.3028 0.993,-4.7247 1.7331,-7.1968 0.5891,-1.946 1.215,-3.896 1.857,-5.8 0.6282,-1.866 1.2271,-3.5699 1.7921,-5.1131 0.5629,-1.5398 1.0618,-2.865 1.497,-3.9739 0.3089,-0.792 0.566,-1.423 0.7659,-1.8949 -0.1591,-0.0352 -0.3181,-0.0701 -0.4779,-0.1021 l -0.2342,0.6021 c -0.97,2.484 -2.0279,5.2798 -3.149,8.312 -1.1078,2.9988 -2.145,6.0729 -3.079,9.1377 -0.9368,3.0612 -1.7889,6.1892 -2.5279,9.2982 -0.7078,2.988 -1.2209,5.8538 -1.525,8.5218 0.432,0.3781 0.871,0.6871 1.303,0.9241 0.5171,0.2809 1.3561,0.699 2.5161,1.2572 l 1.519,0.7319 -11.514,0.8059 0.0649,-0.5361 c 0.171,-1.4289 0.5001,-3.2048 0.9811,-5.2809 0.483,-2.075 1.065,-4.3339 1.7269,-6.7139 0.663,-2.3691 1.4181,-4.8682 2.247,-7.4261 0.7892,-2.4271 1.6322,-4.9238 2.5041,-7.4189 0.8779,-2.491 1.6889,-4.6859 2.4789,-6.707 0.8201,-2.109 1.5361,-3.8271 2.1841,-5.254 l 0.119,-0.2619 h 4.3419 c -0.504,-0.1001 -1.0069,-0.182 -1.5081,-0.2452 -0.8438,-0.1049 -1.7217,-0.1588 -2.6078,-0.1588 -2.5149,0 -4.8351,0.2149 -6.8961,0.6409 -2.0501,0.4201 -3.8418,1.0599 -5.33,1.901 -1.4678,0.8271 -2.6189,1.8691 -3.418,3.1019 -0.796,1.22 -1.1979,2.668 -1.1979,4.3061 0,0.4249 0.06,0.8269 0.1749,1.1979 0.1261,0.4 0.276,0.815 0.4441,1.2362 l 0.1749,0.4388 -4.983,1.6631 0.0471,-0.6681 c 0.178,-2.5209 0.7849,-4.7999 1.8051,-6.772 1.0278,-1.9879 2.6209,-3.6938 4.733,-5.074 2.0908,-1.366 4.8078,-2.4148 8.0778,-3.1178 3.248,-0.6971 7.2051,-1.05 11.7601,-1.05 2.359,0 4.7719,0.0658 7.1719,0.1948 2.363,0.1301 4.7809,0.1941 7.1901,0.1941 2.3499,0 4.127,-0.106 5.2809,-0.316 1.1639,-0.212 2.0719,-0.4249 2.7009,-0.635 l 0.072,-0.0399 1.925,-0.963 -1.383,1.6498 c -0.2189,0.263 -0.502,0.591 -0.8518,0.985 -0.3481,0.3881 -0.701,0.7991 -1.0662,1.2271 -0.3659,0.432 -0.712,0.8431 -1.0349,1.2331 -0.3382,0.402 -0.5981,0.6939 -0.775,0.8719 l -0.1309,0.133 h -0.8382 c -3.3809,0 -6.5058,-0.176 -9.2838,-0.523 -2.6611,-0.3339 -5.263,-0.6449 -7.8051,-0.9391 -0.383,0.794 -0.7779,1.7232 -1.177,2.7652 -0.453,1.1888 -0.9159,2.4718 -1.3901,3.8528 -0.4779,1.385 -0.953,2.8222 -1.4269,4.3141 -0.4131,1.2849 -0.8059,2.563 -1.1821,3.833 l 0.6032,-0.0321 h 0.006 c 1.8158,0 3.8148,0.2449 5.9618,0.726 2.158,0.4861 4.1862,1.243 6.0301,2.2549 1.8629,1.0182 3.4401,2.3242 4.6851,3.8821 1.2739,1.5911 1.9188,3.5231 1.9188,5.739 0,1.531 -0.3668,3.0421 -1.0888,4.4881 -0.7152,1.432 -1.734,2.726 -3.0322,3.8429 -1.2938,1.114 -2.846,2.027 -4.614,2.7099 -1.7798,0.6891 -3.7369,1.0392 -5.8149,1.0392 z"
       style="fill:#102a83;fill-rule:evenodd"
       id="path36" />
    <path
       d="m 243.3331,112.5607 c -0.951,3.077 -2.067,5.8822 -3.3468,8.4152 -1.2762,2.5359 -2.7731,4.7129 -4.483,6.533 -1.7101,1.8179 -3.672,3.2258 -5.8822,4.2219 -2.2098,0.997 -4.7417,1.495 -7.6019,1.495 -1.906,0 -3.4869,-0.1831 -4.746,-0.5519 -1.2549,-0.3671 -2.2728,-0.8011 -3.0518,-1.2991 -0.7801,-0.4989 -1.3751,-1.0179 -1.7872,-1.5599 -0.413,-0.542 -0.707,-0.9862 -0.8779,-1.332 l 4.483,-2.859 c 0,0.1709 -0.01,0.3248 -0.0309,0.4549 -0.021,0.129 -0.0321,0.2809 -0.0321,0.4541 0,0.6509 0.1191,1.3099 0.3569,1.9829 0.2381,0.6709 0.661,1.2889 1.266,1.8521 0.608,0.563 1.419,1.0168 2.4372,1.3629 1.0179,0.347 2.287,0.521 3.8009,0.521 1.6929,0 3.2599,-0.466 4.7141,-1.3969 1.4519,-0.9312 2.7839,-2.1682 3.9968,-3.7051 1.2101,-1.5381 2.3261,-3.3129 3.3471,-5.3289 1.018,-2.014 1.9369,-4.104 2.759,-6.2699 0.8249,-2.1663 1.5599,-4.3433 2.2099,-6.5322 0.6511,-2.186 1.235,-4.2128 1.756,-6.076 l 6.3681,-21.8999 h -1.4942 c -0.0448,0.3039 -0.195,1.0171 -0.4538,2.145 -0.2622,1.1259 -0.6191,2.5231 -1.0741,4.191 -0.4541,1.6679 -0.996,3.5201 -1.6219,5.557 -0.6302,2.037 -1.3471,4.093 -2.1481,6.1719 -0.8,2.0812 -1.6679,4.0952 -2.598,6.0452 -0.9329,1.9488 -1.9408,3.6819 -3.0208,5.1978 -1.0843,1.518 -2.2213,2.742 -3.4132,3.672 -1.1929,0.9321 -2.4378,1.3969 -3.735,1.3969 -1.1709,0 -2.1018,-0.269 -2.798,-0.8118 -0.692,-0.542 -1.2339,-1.2881 -1.622,-2.2411 -0.392,-0.953 -0.6508,-2.0579 -0.7798,-3.3151 -0.1293,-1.2557 -0.2381,-2.5999 -0.3252,-4.0289 l -0.521,-9.6828 c -0.1301,-2.556 -0.259,-4.7231 -0.388,-6.499 -0.1299,-1.7762 -0.3569,-3.217 -0.682,-4.3222 -0.326,-1.1038 -0.8051,-1.9058 -1.431,-2.4038 -0.629,-0.4972 -1.5069,-0.7472 -2.6331,-0.7472 h -1.1049 l 0.392,-1.3008 8.4481,-0.3232 c 0.042,0.216 0.1049,0.8442 0.193,1.8831 0.0871,1.04 0.1959,2.3079 0.3249,3.8029 0.129,1.495 0.273,3.119 0.4229,4.873 0.1511,1.755 0.269,3.4342 0.3572,5.0372 l 0.587,10.6568 c 0.042,1.8641 0.2279,3.3591 0.5531,4.485 0.3217,1.1259 1.1117,1.6892 2.3709,1.6892 1.343,0 2.6648,-0.7362 3.9619,-2.2102 1.3011,-1.472 2.5351,-3.3239 3.7069,-5.5551 1.1682,-2.2308 2.2411,-4.6788 3.217,-7.3439 0.972,-2.664 1.8182,-5.1869 2.5322,-7.5708 0.7169,-2.3831 1.2898,-4.441 1.7238,-6.173 0.4331,-1.7331 0.6922,-2.8171 0.7801,-3.251 h 6.6259 z"
       style="fill:#102a83;fill-rule:evenodd"
       id="path38" />
    <path
       d="m 247.108,80.5951 h 2.4761 l -6.5341,22.4718 c -0.5208,1.8621 -1.105,3.892 -1.7569,6.0789 -0.658,2.215 -1.4049,4.424 -2.221,6.5642 -0.822,2.1679 -1.7569,4.2919 -2.7779,6.3119 -1.027,2.0299 -2.1691,3.8469 -3.3939,5.4051 -1.2422,1.5709 -2.6232,2.8508 -4.1072,3.8038 -0.7231,0.464 -1.4779,0.8172 -2.2589,1.0621 1.0279,-0.2381 1.9959,-0.5621 2.9038,-0.9691 2.1473,-0.9689 4.0791,-2.3548 5.7402,-4.1208 1.6769,-1.7872 3.1609,-3.95 4.4078,-6.4281 1.264,-2.4998 2.38,-5.3078 3.3191,-8.3449 l 9.83,-31.9149 h -5.658 c -0.1321,0.578 -0.373,1.5698 -0.7089,2.9109 -0.4382,1.7549 -1.021,3.8381 -1.7291,6.1951 -0.701,2.3409 -1.554,4.8949 -2.539,7.5949 -0.9749,2.6631 -2.0659,5.1531 -3.2409,7.3981 -1.186,2.2558 -2.4542,4.1539 -3.768,5.6438 -1.38,1.5669 -2.8262,2.3609 -4.2979,2.3609 -1.457,0 -2.4251,-0.6959 -2.8012,-2.0148 -0.3359,-1.1611 -0.5278,-2.708 -0.5701,-4.5961 l -0.5879,-10.643 c -0.085,-1.5899 -0.206,-3.2811 -0.3549,-5.0238 l -0.748,-8.678 c -0.0562,-0.6522 -0.1001,-1.14 -0.1361,-1.4561 l -7.7238,0.2951 -0.125,0.4178 h 0.5028 c 1.2221,0 2.202,0.2832 2.9109,0.843 0.7002,0.5582 1.2311,1.442 1.5832,2.63 0.3319,1.129 0.5661,2.615 0.697,4.415 0.1298,1.7801 0.2611,3.95 0.3901,6.5091 l 0.521,9.682 c 0.0859,1.4159 0.1958,2.7661 0.324,4.0071 0.1238,1.2118 0.3758,2.2858 0.7477,3.1909 0.3552,0.874 0.8553,1.567 1.4851,2.058 0.61,0.4759 1.4582,0.7169 2.5211,0.7169 1.1889,0 2.3528,-0.4388 3.4589,-1.3028 1.15,-0.8972 2.2691,-2.1011 3.325,-3.5791 1.0602,-1.4881 2.0631,-3.213 2.9809,-5.1321 0.9292,-1.944 1.798,-3.967 2.5852,-6.0108 0.7999,-2.0792 1.5208,-4.1471 2.1359,-6.1441 0.644,-2.088 1.1721,-3.901 1.6189,-5.5409 0.443,-1.6262 0.803,-3.0302 1.07,-4.1751 0.313,-1.3689 0.417,-1.9029 0.4482,-2.111 z m -34.9559,48.0377 c 0.159,0.2571 0.3731,0.563 0.6381,0.9111 0.3778,0.498 0.9411,0.9859 1.6719,1.453 0.7409,0.474 1.7291,0.8929 2.9369,1.247 1.2101,0.3549 2.7652,0.5349 4.6202,0.5349 0.6449,0 1.275,-0.0269 1.8879,-0.0788 h -0.07 c -1.554,0 -2.8829,-0.184 -3.9439,-0.546 -1.072,-0.3631 -1.946,-0.8552 -2.5991,-1.4581 -0.657,-0.612 -1.1219,-1.2949 -1.383,-2.031 -0.2528,-0.7169 -0.3818,-1.4361 -0.3818,-2.132 v -0.0521 z m 9.8671,5.0412 c -1.9412,0 -3.579,-0.1922 -4.871,-0.5701 -1.2889,-0.3781 -2.3559,-0.8319 -3.1692,-1.3521 -0.8178,-0.5238 -1.4578,-1.084 -1.9017,-1.6659 -0.4371,-0.5729 -0.7382,-1.033 -0.921,-1.404 l -0.1791,-0.36 5.5099,-3.515 v 0.817 c 0,0.197 -0.013,0.3761 -0.0368,0.5261 -0.0182,0.1088 -0.0261,0.2378 -0.0261,0.3829 0,0.595 0.112,1.2121 0.33,1.8341 0.212,0.5978 0.6,1.161 1.1488,1.6738 0.559,0.5151 1.3252,0.9442 2.2762,1.2671 0.9709,0.3291 2.202,0.4969 3.6579,0.4969 1.614,0 3.0781,-0.434 4.473,-1.3269 1.4009,-0.8989 2.708,-2.1121 3.8872,-3.6059 1.1888,-1.51 2.2969,-3.278 3.2989,-5.254 1.006,-1.9911 1.929,-4.0862 2.74,-6.226 0.8079,-2.1209 1.548,-4.309 2.1999,-6.501 0.648,-2.1841 1.232,-4.2072 1.7521,-6.069 l 6.2028,-21.3321 h -0.5219 c -0.0771,0.3972 -0.21,0.999 -0.392,1.7981 -0.271,1.1571 -0.633,2.5721 -1.0791,4.208 -0.4488,1.6509 -0.9808,3.473 -1.626,5.5709 -0.6239,2.018 -1.3498,4.104 -2.158,6.2022 -0.7948,2.0667 -1.673,4.1108 -2.6118,6.0758 -0.9411,1.9649 -1.9701,3.736 -3.0612,5.2662 -1.1058,1.5479 -2.2838,2.8139 -3.503,3.7649 -1.266,0.989 -2.615,1.491 -4.0088,1.491 -1.2682,0 -2.3011,-0.3041 -3.0721,-0.9051 -0.7549,-0.591 -1.3479,-1.4059 -1.7629,-2.4258 -0.4031,-0.9842 -0.6761,-2.141 -0.811,-3.439 -0.129,-1.2521 -0.2381,-2.6141 -0.3271,-4.0462 l -0.521,-9.686 c -0.129,-2.5548 -0.2568,-4.7179 -0.3858,-6.491 -0.1281,-1.7379 -0.3521,-3.1589 -0.6662,-4.2298 -0.2959,-1.0072 -0.7279,-1.7391 -1.2789,-2.1802 -0.5451,-0.43 -1.3391,-0.6488 -2.3551,-0.6488 h -1.7058 l 0.6567,-2.183 9.1522,-0.3501 0.0709,0.3759 c 0.0459,0.231 0.1072,0.8272 0.2001,1.9321 l 0.7478,8.674 c 0.1502,1.7541 0.271,3.4529 0.358,5.0519 l 0.5882,10.6571 c 0.04,1.8269 0.22,3.297 0.5349,4.3849 0.2659,0.932 0.883,1.3652 1.9412,1.3652 1.2047,0 2.4227,-0.6922 3.6258,-2.0583 1.2679,-1.4348 2.495,-3.2748 3.6462,-5.4668 1.1568,-2.2099 2.2328,-4.663 3.1937,-7.2902 0.978,-2.6818 1.827,-5.2208 2.5232,-7.5438 0.7049,-2.3431 1.2818,-4.4149 1.7189,-6.1551 0.5261,-2.107 0.712,-2.92 0.775,-3.2309 l 0.0711,-0.3589 h 7.6008 l -10.1868,33.0748 c -0.9542,3.0841 -2.0891,5.9389 -3.3761,8.483 -1.2849,2.5571 -2.819,4.79 -4.555,6.6381 -1.743,1.8528 -3.77,3.3078 -6.025,4.324 -2.2569,1.0188 -4.877,1.535 -7.7859,1.535 z"
       style="fill:#102a83;fill-rule:evenodd"
       id="path40" />
    <path
       d="m 265.0388,88.2883 c 1.213,-2.014 2.8919,-3.6281 5.0361,-4.8419 2.1469,-1.2112 4.7449,-2.0792 7.7981,-2.6002 3.0557,-0.519 6.5318,-0.779 10.4309,-0.779 h 3.249 c -0.6052,1.169 -1.2452,2.5682 -1.9162,4.1922 -0.6718,1.6248 -1.3328,3.293 -1.9828,5.0048 -0.65,1.711 -1.245,3.3781 -1.787,5.004 -0.542,1.624 -0.9652,3.0441 -1.2662,4.2559 h 0.5842 c 0.4759,-0.4759 1.266,-1.2988 2.3709,-2.4689 1.1049,-1.1699 2.416,-2.471 3.9339,-3.8988 1.514,-1.4312 3.2032,-2.9151 5.0672,-4.4521 1.8638,-1.5389 3.7809,-2.946 5.7529,-4.2239 1.969,-1.279 3.9509,-2.3292 5.9451,-3.1532 1.9928,-0.8218 3.8778,-1.2339 5.654,-1.2339 0.8217,0 1.637,0.1729 2.4378,0.519 0.801,0.3481 1.4819,0.824 2.0452,1.4301 l -3.4441,3.509 c -0.0871,-0.216 -0.2172,-0.487 -0.3881,-0.813 -0.1749,-0.3232 -0.4229,-0.6381 -0.7489,-0.94 -0.3251,-0.3041 -0.7129,-0.5632 -1.1682,-0.7801 -0.4538,-0.2171 -1.0309,-0.3251 -1.7237,-0.3251 -1.5591,0 -3.1501,0.3461 -4.7761,1.038 -1.6231,0.6942 -3.2071,1.5721 -4.7421,2.634 -1.5389,1.061 -3.001,2.241 -4.3888,3.5402 -1.385,1.3008 -2.63,2.5579 -3.7352,3.7698 -1.105,1.2132 -2.0489,2.3062 -2.829,3.2822 -0.7798,0.974 -1.3218,1.6568 -1.6228,2.0469 0.2168,0.7801 0.4759,1.819 0.7798,3.1201 0.301,1.2988 0.661,2.696 1.0701,4.191 0.413,1.495 0.8679,2.99 1.3679,4.483 0.4961,1.495 1.0171,2.8598 1.5591,4.0949 0.5389,1.2339 1.116,2.2308 1.7209,2.99 0.608,0.7588 1.2342,1.1358 1.885,1.1358 1.9511,0 3.909,-0.5729 5.8822,-1.7218 1.9718,-1.1471 3.801,-2.5132 5.4899,-4.0932 1.6888,-1.5828 3.196,-3.1858 4.5181,-4.8098 1.3218,-1.6251 2.3499,-2.9132 3.0838,-3.8662 0.1752,-0.2168 0.3149,-0.4008 0.4229,-0.5527 0.1092,-0.1522 0.2072,-0.271 0.2943,-0.356 l -0.5843,1.4278 c -0.1329,0.2171 -0.3248,0.477 -0.5867,0.7801 -0.4763,0.6499 -1.116,1.5049 -1.9171,2.567 -0.7999,1.063 -1.7311,2.2099 -2.7941,3.4438 -1.063,1.2351 -2.2198,2.4812 -3.4758,3.7372 -1.2592,1.2569 -2.577,2.3828 -3.9651,3.38 -1.385,0.9958 -2.8049,1.8199 -4.256,2.4679 -1.451,0.6511 -2.8921,0.9759 -4.3219,0.9759 -0.9102,0 -1.766,-0.4878 -2.5671,-1.4618 -0.8011,-0.9751 -1.5491,-2.2201 -2.2419,-3.738 -0.6922,-1.516 -1.3221,-3.172 -1.885,-4.9711 -0.563,-1.7969 -1.0491,-3.5198 -1.461,-5.167 -0.413,-1.645 -0.7492,-3.0858 -1.0072,-4.32 -0.2588,-1.2351 -0.4339,-2.069 -0.521,-2.5019 h -0.9099 c -0.2171,0.7359 -0.4649,1.766 -0.748,3.0861 -0.2801,1.3218 -0.563,2.719 -0.8431,4.1927 -0.2829,1.472 -0.521,2.9342 -0.7169,4.3852 -0.1919,1.453 -0.2899,2.6541 -0.2899,3.6068 0,0.6942 0.119,1.6472 0.3568,2.859 0.2382,1.2132 0.6611,2.3182 1.266,3.3151 l -2.5988,0.65 c -0.4331,-1.4301 -0.65,-2.9251 -0.65,-4.4841 0,-1.8629 0.1639,-3.8659 0.4898,-6.012 0.3212,-2.143 0.7552,-4.3429 1.2972,-6.5948 0.542,-2.2521 1.171,-4.5059 1.885,-6.76 0.7169,-2.2522 1.4298,-4.3951 2.143,-6.4321 0.7169,-2.037 1.4309,-3.9098 2.1478,-5.622 0.7132,-1.7118 1.353,-3.1728 1.9162,-4.3868 h -2.1441 c -1.2129,2.946 -2.374,5.9139 -3.479,8.9038 -1.1049,2.9892 -2.133,6.0112 -3.0849,9.0649 -0.9541,3.0552 -1.811,6.1852 -2.5662,9.3901 -0.7588,3.2071 -1.3779,6.4989 -1.8538,9.879 -0.0871,0.477 -0.129,0.8991 -0.129,1.2679 0,0.3671 -0.025,0.7461 -0.0672,1.1361 l -5.0669,0.65 c 0.172,-1.8201 0.5391,-3.909 1.1049,-6.2711 0.5633,-2.3609 1.2101,-4.8089 1.9483,-7.3439 0.7378,-2.5339 1.5389,-5.0998 2.4057,-7.7001 0.864,-2.5999 1.7311,-5.0468 2.5983,-7.3439 0.8679,-2.2958 1.6888,-4.3869 2.4689,-6.272 0.7798,-1.885 1.4508,-3.4109 2.014,-4.581 -0.3461,-0.042 -0.6811,-0.0749 -1.0071,-0.0978 -0.3249,-0.021 -0.661,-0.0312 -1.0069,-0.0312 -2.0772,0 -4.0841,0.2061 -6.0111,0.6171 -1.927,0.413 -3.6369,1.0301 -5.1338,1.8519 -1.493,0.8231 -2.6853,1.8632 -3.5742,3.1192 -0.8878,1.2569 -1.332,2.7289 -1.332,4.4178 0,0.4782 0.087,0.934 0.2591,1.366 0.1749,0.4331 0.3038,0.8881 0.3909,1.364 l -3.8988,1.3011 c 0.2168,-2.9471 0.9309,-5.428 2.1438,-7.442 z"
       style="fill:#102a83;fill-rule:evenodd"
       id="path42" />
    <path
       d="m 282.1949,81.2453 c 0.3572,0 0.701,0.0102 1.0352,0.0332 0.3359,0.0229 0.6789,0.0558 1.033,0.1 l 0.621,0.0749 -0.2709,0.5629 c -0.5593,1.1611 -1.2331,2.6952 -2.0041,4.5581 -0.758,1.8329 -1.5871,3.9399 -2.465,6.2581 -0.874,2.321 -1.747,4.786 -2.5912,7.3278 -0.8529,2.5551 -1.6608,5.1412 -2.4009,7.685 -0.72,2.4701 -1.372,4.934 -1.942,7.321 -0.5009,2.0872 -0.8479,3.9861 -1.0369,5.6531 l 4.151,-0.534 c 0.021,-0.25 0.0309,-0.4961 0.0309,-0.7381 0,-0.398 0.0459,-0.853 0.1361,-1.3479 0.4708,-3.346 1.097,-6.6821 1.8589,-9.9011 0.7501,-3.1839 1.6169,-6.3539 2.5761,-9.419 0.9468,-3.0449 1.988,-6.103 3.0909,-9.089 1.0891,-2.948 2.2621,-5.9479 3.4849,-8.9169 l 0.1151,-0.2781 h 3.1439 l -0.2959,0.6361 c -0.5709,1.2311 -1.213,2.7009 -1.9089,4.3691 -0.6981,1.669 -1.4181,3.5518 -2.1381,5.5989 -0.6979,1.9919 -1.4171,4.1531 -2.139,6.4211 -0.711,2.245 -1.3431,4.5087 -1.876,6.728 -0.538,2.2399 -0.974,4.4458 -1.2901,6.5568 -0.322,2.1211 -0.485,4.121 -0.485,5.9451 0,1.36 0.1732,2.6849 0.5142,3.9458 l 1.609,-0.4039 c -0.4771,-0.902 -0.8221,-1.8871 -1.0262,-2.9379 -0.2469,-1.2512 -0.3659,-2.2149 -0.3659,-2.944 0,-0.972 0.0961,-2.1699 0.2939,-3.6672 0.199,-1.4737 0.4422,-2.956 0.722,-4.4087 0.2801,-1.4783 0.563,-2.8772 0.845,-4.2021 0.292,-1.364 0.538,-2.3831 0.7552,-3.1189 l 0.1919,-0.6982 c 0.299,-1.2078 0.7291,-2.651 1.275,-4.2888 0.5451,-1.635 1.1489,-3.3242 1.7941,-5.0221 0.6488,-1.7079 1.3169,-3.3951 1.9859,-5.0159 0.553,-1.334 1.0891,-2.5342 1.6041,-3.574 h -2.522 c -3.8519,0 -7.3352,0.2608 -10.356,0.7728 -2.9852,0.5111 -5.5602,1.3671 -7.653,2.5492 -2.065,1.1698 -3.7051,2.745 -4.873,4.6828 -1.0769,1.7881 -1.7561,3.9951 -2.022,6.571 l 2.8729,-0.9598 c -0.0751,-0.3121 -0.1709,-0.612 -0.2848,-0.8972 -0.1942,-0.4878 -0.292,-1.004 -0.292,-1.5338 0,-1.7742 0.4759,-3.348 1.4148,-4.6772 0.9229,-1.3039 2.177,-2.3989 3.7221,-3.2519 1.5299,-0.839 3.2978,-1.478 5.256,-1.8969 1.9528,-0.4162 4.0059,-0.6282 6.1058,-0.6282 z m 3.3551,17.5462 h 0.1321 l 0.0709,0.3588 c 0.0881,0.4312 0.261,1.262 0.5181,2.488 0.26,1.2382 0.5979,2.685 1.0049,4.3152 0.415,1.6489 0.904,3.38 1.455,5.1397 0.5519,1.7632 1.1781,3.4172 1.8649,4.9212 0.6702,1.4678 1.4052,2.6938 2.181,3.64 0.7081,0.86 1.455,1.2969 2.2201,1.2969 1.3609,0 2.753,-0.3138 4.1389,-0.9369 1.4181,-0.633 2.8241,-1.4471 4.1771,-2.423 1.3541,-0.9712 2.668,-2.0912 3.9121,-3.333 0.5978,-0.5981 1.1778,-1.1991 1.7407,-1.804 -0.0258,0.0258 -0.0538,0.051 -0.0799,0.0768 -1.7118,1.601 -3.5858,2.9982 -5.5709,4.1522 -2.0319,1.184 -4.0859,1.7839 -6.107,1.7839 -0.7891,0 -1.5409,-0.4388 -2.2351,-1.3048 -0.6349,-0.7951 -1.2339,-1.8352 -1.7818,-3.0912 -0.5471,-1.2481 -1.0772,-2.6399 -1.573,-4.1321 -0.4932,-1.4697 -0.955,-2.986 -1.3751,-4.5048 -0.4371,-1.6001 -0.788,-2.9761 -1.0729,-4.2091 -0.303,-1.2921 -0.5601,-2.325 -0.7769,-3.1 l -0.0593,-0.2168 0.1361,-0.1761 c 0.303,-0.392 0.847,-1.078 1.6279,-2.0551 0.777,-0.972 1.7082,-2.0528 2.848,-3.3029 1.1111,-1.2189 2.3771,-2.497 3.7601,-3.7959 1.4,-1.311 2.895,-2.516 4.441,-3.5821 1.5461,-1.0689 3.168,-1.9689 4.8189,-2.6759 1.675,-0.7132 3.3409,-1.0752 4.953,-1.0752 0.7591,0 1.404,0.1242 1.9171,0.3691 0.494,0.2361 0.9241,0.5241 1.2809,0.8569 0.3549,0.3302 0.637,0.6851 0.836,1.0542 0.045,0.087 0.089,0.1709 0.129,0.25 l 2.679,-2.7292 c -0.4558,-0.4178 -0.9899,-0.7608 -1.5928,-1.023 -0.739,-0.32 -1.5001,-0.483 -2.2592,-0.483 -1.7059,0 -3.551,0.4042 -5.4831,1.201 -1.9618,0.8102 -3.9378,1.857 -5.8728,3.115 -1.946,1.26 -3.8681,2.6711 -5.7109,4.1922 -1.8431,1.5199 -3.5411,3.0109 -5.044,4.4328 -1.495,1.4071 -2.8142,2.713 -3.9172,3.8812 -1.0717,1.1349 -1.8479,1.9448 -2.3309,2.429 z m -5.023,23.0819 -0.1238,-0.4091 c -0.4442,-1.4649 -0.6702,-3.018 -0.6702,-4.6139 0,-1.868 0.1662,-3.9141 0.495,-6.0781 0.32,-2.137 0.7591,-4.3679 1.3039,-6.6339 0.5392,-2.2379 1.1772,-4.5229 1.8941,-6.7889 0.724,-2.2771 1.4479,-4.445 2.147,-6.4471 0.7271,-2.0631 1.453,-3.962 2.158,-5.6461 0.5839,-1.4 1.131,-2.6648 1.631,-3.7658 h -1.1449 c -1.1792,2.869 -2.3079,5.7648 -3.361,8.6108 -1.0982,2.971 -2.1331,6.0151 -3.077,9.0431 -0.951,3.0461 -1.8122,6.1951 -2.558,9.3599 -0.756,3.191 -1.3759,6.501 -1.8451,9.8391 -0.0859,0.46 -0.1261,0.858 -0.1261,1.2039 0,0.3829 -0.0238,0.7789 -0.0677,1.184 l -0.038,0.352 -5.9732,0.7671 0.0522,-0.5581 c 0.1729,-1.8389 0.5488,-3.9691 1.116,-6.334 0.5717,-2.399 1.2288,-4.879 1.9528,-7.365 0.7452,-2.5549 1.5562,-5.1508 2.4111,-7.7159 0.8478,-2.5532 1.724,-5.0289 2.605,-7.359 0.8799,-2.3289 1.7119,-4.443 2.473,-6.2861 0.657,-1.5899 1.2458,-2.9409 1.7529,-4.032 -0.1219,-0.0108 -0.2429,-0.021 -0.3631,-0.0298 -0.313,-0.0192 -0.6398,-0.03 -0.976,-0.03 -2.0369,0 -4.0288,0.2049 -5.919,0.6069 -1.872,0.4019 -3.5577,1.0091 -5.0108,1.8059 -1.4269,0.7892 -2.5789,1.7921 -3.4231,2.9872 -0.8288,1.173 -1.2509,2.573 -1.2509,4.159 0,0.4158 0.0771,0.8197 0.2279,1.201 0.182,0.4518 0.3212,0.9388 0.4161,1.4479 l 0.07,0.381 -4.9062,1.637 0.0502,-0.6701 c 0.2208,-3.005 0.9641,-5.576 2.2071,-7.6388 1.2469,-2.0721 2.9967,-3.7542 5.1978,-5.0011 2.1841,-1.232 4.8569,-2.124 7.9441,-2.6499 3.0699,-0.5232 6.605,-0.7871 10.506,-0.7871 h 3.985 l -0.339,0.6539 c -0.6001,1.1591 -1.2382,2.558 -1.899,4.1582 -0.6681,1.612 -1.332,3.2918 -1.9791,4.9918 -0.6401,1.6851 -1.2399,3.3641 -1.7799,4.9861 -0.4221,1.2651 -0.773,2.41 -1.046,3.4149 0.476,-0.4879 1.137,-1.1798 1.9848,-2.077 1.1152,-1.18 2.4461,-2.499 3.9532,-3.9169 1.518,-1.4351 3.229,-2.9389 5.0879,-4.4719 1.8689,-1.542 3.8189,-2.9741 5.7949,-4.2542 1.9791,-1.285 4.0042,-2.359 6.0159,-3.191 2.0421,-0.841 4.0023,-1.2679 5.8261,-1.2679 0.881,0 1.7611,0.1871 2.6161,0.5561 0.8569,0.3719 1.5939,0.8898 2.196,1.537 l 0.2899,0.3129 -4.2219,4.301 -0.2559,-0.6329 c -0.0842,-0.2061 -0.2061,-0.4632 -0.3691,-0.7731 -0.1519,-0.278 -0.3742,-0.5561 -0.6571,-0.8209 -0.29,-0.271 -0.6449,-0.5071 -1.0559,-0.703 -0.392,-0.187 -0.9079,-0.282 -1.5321,-0.282 -1.4899,0 -3.039,0.3379 -4.602,1.004 -1.594,0.682 -3.1649,1.5528 -4.661,2.5889 -1.5109,1.0409 -2.969,2.217 -4.3379,3.4991 -1.366,1.2829 -2.6141,2.5418 -3.7111,3.744 -1.1259,1.2379 -2.0449,2.302 -2.8088,3.2609 -0.6721,0.8371 -1.1671,1.4599 -1.4811,1.865 0.2041,0.756 0.445,1.7291 0.7231,2.9199 0.284,1.222 0.633,2.588 1.0669,4.174 0.4139,1.5041 0.8731,3.0042 1.3601,4.46 0.4878,1.467 1.008,2.831 1.544,4.057 0.5179,1.1832 1.0758,2.156 1.6608,2.8899 0.5162,0.6432 1.0321,0.9692 1.5361,0.9692 1.8601,0 3.7639,-0.5602 5.656,-1.6611 1.929,-1.1209 3.7491,-2.4801 5.4099,-4.034 1.671,-1.565 3.1771,-3.168 4.4762,-4.767 1.3198,-1.6189 2.3448,-2.9058 3.077,-3.8549 0.1749,-0.2171 0.3098,-0.3931 0.415,-0.54 0.1258,-0.1771 0.2409,-0.3152 0.3438,-0.4161 l 1.5472,-1.5159 -1.404,3.4338 c -0.1871,0.3161 -0.4,0.5993 -0.6642,0.9043 -0.453,0.6219 -1.095,1.4788 -1.8969,2.5418 -0.8031,1.067 -1.7501,2.2351 -2.812,3.4671 -1.08,1.254 -2.2569,2.52 -3.4979,3.761 -1.2771,1.275 -2.63,2.429 -4.0221,3.427 -1.402,1.0089 -2.8599,1.855 -4.3339,2.5149 -1.5021,0.673 -3.0172,1.014 -4.5051,1.014 -1.0451,0 -2.0259,-0.548 -2.9129,-1.6248 -0.8251,-1.0072 -1.599,-2.2972 -2.302,-3.8381 -0.701,-1.535 -1.343,-3.2261 -1.904,-5.023 -0.5581,-1.7782 -1.0531,-3.5252 -1.4692,-5.1911 -0.413,-1.6398 -0.7517,-3.0988 -1.012,-4.337 -0.1998,-0.9578 -0.3498,-1.671 -0.4478,-2.1469 h -0.2061 c -0.1891,0.6839 -0.4031,1.5831 -0.6489,2.7328 -0.278,1.3173 -0.5609,2.7122 -0.839,4.1831 -0.2781,1.4372 -0.5182,2.9041 -0.7141,4.36 -0.1899,1.436 -0.2871,2.628 -0.2871,3.5481 0,0.663 0.1182,1.595 0.3481,2.7728 0.2259,1.152 0.633,2.2193 1.2101,3.168 l 0.3149,0.5202 z"
       style="fill:#102a83;fill-rule:evenodd"
       id="path44" />
    <path
       d="m 352.9005,102.8776 c 0.1709,-1.6889 0.434,-3.4319 0.7798,-5.2311 0.3461,-1.7977 0.7381,-3.5849 1.1681,-5.3608 0.4329,-1.7771 0.9131,-3.5201 1.4298,-5.2319 0.521,-1.7121 1.0421,-3.282 1.5602,-4.712 l -0.1301,-0.129 c -3.0319,3.467 -5.815,6.9108 -8.35,10.3328 -2.5359,3.422 -4.7769,6.8672 -6.7249,10.332 z m -16.376,1.3011 c -0.868,0 -1.927,0.021 -3.1862,0.0649 -1.256,0.0431 -2.588,0.1621 -3.9968,0.356 -1.406,0.1962 -2.8151,0.478 -4.225,0.845 -1.4052,0.3691 -2.6751,0.8881 -3.801,1.5591 -1.1262,0.6741 -2.035,1.5179 -2.7269,2.5359 -0.6931,1.017 -1.0392,2.264 -1.0392,3.736 0,1.084 0.203,2.048 0.6151,2.8919 0.413,0.845 0.9519,1.5491 1.6268,2.1121 0.6713,0.563 1.4613,0.9969 2.3712,1.3 0.9091,0.3041 1.8598,0.4541 2.8599,0.4541 1.6441,0 3.0951,-0.3572 4.354,-1.0721 1.2552,-0.7149 2.4131,-1.6889 3.4761,-2.9231 1.059,-1.2359 2.056,-2.6648 2.99,-4.2888 0.93,-1.6259 1.8949,-3.3689 2.8919,-5.2322 l 1.2339,-2.3388 z m 3.6399,3.1839 c -0.7381,1.343 -1.6049,2.838 -2.6019,4.4829 -0.9961,1.6472 -2.154,3.1961 -3.4761,4.6471 -1.3221,1.4519 -2.8599,2.6759 -4.6119,3.672 -1.7561,0.995 -3.7602,1.495 -6.012,1.495 -1.5171,0 -2.85,-0.229 -3.9972,-0.6828 -1.15,-0.4553 -2.1007,-1.0282 -2.8598,-1.7232 -0.7591,-0.692 -1.3332,-1.472 -1.7209,-2.3389 -0.3912,-0.866 -0.5871,-1.7311 -0.5871,-2.5979 0,-2.3842 0.682,-4.3121 2.0489,-5.7841 1.364,-1.4732 3.151,-2.634 5.3611,-3.4781 2.2099,-0.845 4.7098,-1.4179 7.5039,-1.7221 2.795,-0.303 5.6449,-0.4549 8.547,-0.4549 h 3.0529 c 1.3431,-2.0789 2.6751,-4.104 3.9971,-6.0761 1.3221,-1.9709 2.6859,-3.8987 4.095,-5.7838 1.4091,-1.885 2.9021,-3.7139 4.4829,-5.4901 1.5812,-1.777 3.3262,-3.532 5.2319,-5.2648 l 7.0841,-1.6242 c -0.3458,0.7801 -0.8459,2.0242 -1.493,3.736 -0.65,1.7122 -1.2799,3.6831 -1.8851,5.9142 -0.6077,2.232 -1.1398,4.6239 -1.5939,7.1807 -0.4549,2.556 -0.682,5.0692 -0.682,7.539 0,3.2052 0.2832,5.707 0.8461,7.505 0.563,1.7992 1.105,3.1102 1.6229,3.9323 l -1.6229,1.5599 c -0.479,-1.0832 -0.9549,-2.4801 -1.43,-4.1911 -0.4791,-1.7121 -0.7141,-4.1059 -0.7141,-7.1818 0,-2.556 0.214,-5.1021 0.6472,-7.6351 0.434,-2.535 0.9448,-4.9079 1.529,-7.1169 0.5839,-2.2102 1.171,-4.1922 1.7549,-5.946 0.5839,-1.756 1.0488,-3.109 1.3949,-4.062 l -2.143,0.39 c -0.388,1.1699 -0.8988,2.7839 -1.5278,4.8419 -0.6262,2.0579 -1.2351,4.3429 -1.819,6.855 -0.5842,2.5129 -1.0843,5.146 -1.493,7.897 -0.413,2.7519 -0.6191,5.383 -0.6191,7.8959 0,2.685 0.108,4.8081 0.3248,6.368 0.2172,1.5591 0.5843,2.7522 1.1053,3.5739 0.521,0.8232 1.203,1.3442 2.0457,1.5591 0.8462,0.2191 1.8743,0.3481 3.0881,0.39 l -0.3249,1.0409 -8.9041,0.2602 c -0.2169,-0.6922 -0.402,-1.5159 -0.5519,-2.4701 -0.1511,-0.9518 -0.2841,-1.927 -0.3881,-2.9239 -0.1089,-0.9969 -0.186,-1.9701 -0.2279,-2.9251 -0.0451,-0.951 -0.0661,-1.775 -0.0661,-2.4689 0,-0.997 0.021,-1.9919 0.0661,-2.99 0.0419,-0.995 0.1049,-1.9911 0.193,-2.988 h -10.9179 z"
       style="fill:#102a83;fill-rule:evenodd"
       id="path46" />
    <path
       d="m 336.5239,104.6263 c -0.864,0 -1.9179,0.021 -3.17,0.0649 -1.2339,0.0419 -2.5628,0.161 -3.9517,0.3529 -1.3842,0.1922 -2.7882,0.472 -4.1712,0.834 -1.364,0.3571 -2.6059,0.8651 -3.6859,1.5111 -1.065,0.6361 -1.936,1.444 -2.586,2.4021 -0.639,0.9368 -0.9621,2.1098 -0.9621,3.4849 0,1.0139 0.1922,1.921 0.57,2.696 0.3861,0.7889 0.893,1.4491 1.5112,1.9638 0.6267,0.5262 1.3759,0.9352 2.2257,1.2181 0.8561,0.2871 1.7711,0.432 2.7182,0.432 1.5579,0 2.95,-0.341 4.134,-1.014 1.203,-0.6851 2.3318,-1.635 3.3568,-2.8261 1.0392,-1.211 2.0282,-2.6308 2.9412,-4.2199 0.9459,-1.6549 1.916,-3.4098 2.8848,-5.22 l 0.8861,-1.6798 z m -11.5018,15.855 c -1.0451,0 -2.054,-0.161 -3.0022,-0.4771 -0.9558,-0.318 -1.8039,-0.7829 -2.5157,-1.381 -0.7132,-0.595 -1.3011,-1.355 -1.7411,-2.259 -0.439,-0.8971 -0.661,-1.936 -0.661,-3.088 0,-1.5579 0.3759,-2.899 1.1149,-3.9889 0.7259,-1.0661 1.6911,-1.963 2.87,-2.6683 1.152,-0.6868 2.4701,-1.2288 3.9161,-1.6078 1.4199,-0.369 2.857,-0.6579 4.2769,-0.8549 1.4182,-0.1942 2.7779,-0.3172 4.043,-0.3611 1.2651,-0.0431 2.3301,-0.0641 3.2009,-0.0641 h 4.1882 l -1.5832,2.9951 c -0.9719,1.8198 -1.9479,3.5838 -2.8989,5.2449 -0.94,1.639 -1.963,3.1039 -3.0391,4.3591 -1.091,1.268 -2.3008,2.2839 -3.5929,3.02 -1.322,0.7518 -2.8598,1.1311 -4.5759,1.1311 z m 18.3809,-18.051 h 9.095 c 0.17,-1.5491 0.4181,-3.1862 0.7429,-4.8682 0.3362,-1.7499 0.7311,-3.5601 1.1721,-5.3819 0.423,-1.7339 0.9068,-3.5019 1.4369,-5.256 0.315,-1.0329 0.635,-2.031 0.957,-2.984 -2.543,2.969 -4.9229,5.946 -7.0889,8.871 -2.3479,3.17 -4.471,6.4029 -6.315,9.6191 z m 21.3519,-23.1151 -0.2571,0.7101 c -0.3458,0.951 -0.809,2.3009 -1.3918,4.051 -0.589,1.7679 -1.1761,3.759 -1.7461,5.919 -0.5828,2.1968 -1.093,4.5788 -1.5219,7.0778 -0.4249,2.482 -0.6401,5.0261 -0.6401,7.56 0,3.0342 0.235,5.4082 0.6982,7.0599 0.3849,1.3901 0.775,2.5762 1.1588,3.5382 l 0.896,-0.862 c -0.4799,-0.8592 -0.9779,-2.107 -1.4831,-3.723 -0.5748,-1.836 -0.8668,-4.4042 -0.8668,-7.6371 0,-2.4848 0.2319,-5.0479 0.688,-7.6189 0.4549,-2.5521 0.9941,-4.9811 1.6041,-7.219 0.6029,-2.2221 1.241,-4.2259 1.8989,-5.955 0.451,-1.1931 0.8371,-2.179 1.154,-2.9449 z m -26.9968,24.01 c -2.8692,0 -5.7279,0.1519 -8.4971,0.453 -2.7439,0.297 -5.2319,0.8691 -7.395,1.6939 -2.1311,0.815 -3.8781,1.946 -5.1911,3.3642 -1.281,1.3799 -1.9298,3.223 -1.9298,5.4799 0,0.7988 0.1828,1.6098 0.5471,2.4129 0.362,0.8101 0.9059,1.5471 1.6157,2.194 0.7152,0.6539 1.6311,1.205 2.7221,1.637 1.0931,0.434 2.382,0.6519 3.833,0.6519 2.1592,0 4.1091,-0.4819 5.7909,-1.4368 1.7051,-0.9692 3.219,-2.1751 4.502,-3.583 1.292,-1.4202 2.4452,-2.96 3.4242,-4.5791 0.9859,-1.626 1.857,-3.128 2.5929,-4.466 l 1.8791,-3.416 h 11.6699 l -0.042,0.4861 c -0.0881,0.991 -0.1491,1.9809 -0.191,2.969 -0.0451,0.993 -0.0661,1.9809 -0.0661,2.9699 0,0.6891 0.021,1.5041 0.0661,2.448 0.04,0.9221 0.1159,1.8969 0.2259,2.8981 0.0981,0.9369 0.2239,1.8839 0.3841,2.9018 0.123,0.7782 0.271,1.478 0.4411,2.0832 l 8.2408,-0.2421 0.057,-0.1819 c -0.9958,-0.061 -1.8689,-0.1871 -2.5999,-0.3762 -0.951,-0.2429 -1.7292,-0.832 -2.3111,-1.7529 -0.5598,-0.881 -0.9428,-2.109 -1.1718,-3.7528 -0.218,-1.5713 -0.328,-3.7341 -0.328,-6.4293 0,-2.5228 0.2089,-5.201 0.6239,-7.9619 0.4059,-2.7238 0.9091,-5.3929 1.5001,-7.931 0.5748,-2.4778 1.1888,-4.7948 1.8258,-6.8859 0.631,-2.0611 1.1432,-3.6791 1.531,-4.8521 l 0.0229,-0.0669 -2.6977,0.6191 c -0.3572,0.324 -0.7081,0.6508 -1.0531,0.9779 l 0.576,0.5749 -0.0969,0.2682 c -0.521,1.4388 -1.0432,3.0169 -1.5523,4.691 -0.5258,1.7359 -1.0057,3.488 -1.423,5.207 -0.4388,1.8059 -0.8288,3.6028 -1.1647,5.3379 -0.3461,1.8039 -0.6072,3.5509 -0.773,5.193 l -0.0423,0.402 h -11.4369 l 0.3762,-0.6662 c 1.9499,-3.4687 4.223,-6.9607 6.7549,-10.3787 2.3361,-3.153 4.915,-6.3652 7.6771,-9.561 -1.0432,1.0299 -2.031,2.069 -2.9551,3.1048 -1.563,1.7581 -3.0631,3.5952 -4.4581,5.4612 -1.383,1.8499 -2.7558,3.7908 -4.081,5.7668 -1.3218,1.9681 -2.6529,3.9912 -3.994,6.069 l -0.1329,0.2041 z m -14.2951,18.782 c -1.565,0 -2.9659,-0.2412 -4.1621,-0.7152 -1.1919,-0.4719 -2.2008,-1.0788 -2.9979,-1.8079 -0.8011,-0.731 -1.415,-1.5659 -1.8269,-2.486 -0.415,-0.9201 -0.6259,-1.855 -0.6259,-2.7819 0,-2.4899 0.7288,-4.5391 2.1679,-6.0879 1.4069,-1.5203 3.2681,-2.7281 5.5298,-3.5921 2.2332,-0.8529 4.7963,-1.442 7.615,-1.7481 2.8032,-0.3039 5.6951,-0.4578 8.5952,-0.4578 h 2.81 c 1.2988,-2.0092 2.588,-3.9671 3.8679,-5.8791 1.3339,-1.9879 2.717,-3.939 4.1091,-5.8011 1.4108,-1.8878 2.927,-3.7448 4.5068,-5.5198 1.5811,-1.7782 3.3522,-3.5601 5.265,-5.298 l 0.0862,-0.0802 8.0728,-1.8499 -0.364,0.8181 c -0.3529,0.796 -0.866,2.0789 -1.4851,3.7119 -0.6457,1.7031 -1.2759,3.6791 -1.8697,5.8731 -0.6041,2.2139 -1.1373,4.616 -1.5863,7.1428 -0.4478,2.518 -0.6749,5.0292 -0.6749,7.461 0,3.1419 0.2781,5.6211 0.8252,7.3701 0.5487,1.7521 1.0788,3.0398 1.5749,3.829 l 0.195,0.307 -2.3471,2.2558 -0.2591,-0.5839 c -0.4818,-1.0911 -0.97,-2.5209 -1.4527,-4.252 -0.4893,-1.756 -0.7291,-4.1439 -0.7291,-7.302 0,-2.5838 0.2208,-5.1769 0.654,-7.7108 0.432,-2.5262 0.9479,-4.934 1.5349,-7.1552 0.5772,-2.1779 1.1702,-4.1868 1.7652,-5.974 0.449,-1.3518 0.828,-2.4639 1.1378,-3.3418 l -1.1208,0.205 c -0.3762,1.1429 -0.8572,2.6699 -1.4412,4.5788 -0.629,2.0701 -1.239,4.3682 -1.811,6.8261 -0.584,2.5149 -1.084,5.1599 -1.4859,7.8618 -0.4079,2.717 -0.614,5.3521 -0.614,7.829 0,2.6533 0.108,4.7753 0.322,6.3071 0.2061,1.4922 0.5559,2.6351 1.038,3.3959 0.4641,0.7311 1.046,1.1781 1.7779,1.3652 0.8102,0.21 1.817,0.3359 2.994,0.3758 l 0.587,0.021 -0.5958,1.906 -9.5613,0.2801 -0.1009,-0.3249 c -0.2259,-0.7171 -0.4158,-1.5712 -0.568,-2.5341 -0.163,-1.0318 -0.2909,-1.997 -0.3921,-2.9461 -0.1099,-1.0199 -0.1868,-2.0128 -0.2287,-2.9528 -0.0451,-0.957 -0.0661,-1.789 -0.0661,-2.4891 0,-1.0029 0.021,-2.0049 0.0661,-3.0098 0.0349,-0.8382 0.0859,-1.6793 0.1539,-2.52 h -10.1681 l -1.624,2.9508 c -0.7398,1.349 -1.6189,2.863 -2.6098,4.5012 -1.0092,1.6659 -2.1972,3.2538 -3.5292,4.716 -1.3459,1.4788 -2.9338,2.7427 -4.7208,3.761 -1.8201,1.0298 -3.916,1.5519 -6.2331,1.5519 z"
       style="fill:#102a83;fill-rule:evenodd"
       id="path48" />
  </g>
</svg>
