<svg width="32" height="32" viewBox="0 0 32 32" fill="none" xmlns="http://www.w3.org/2000/svg">
<path d="M29.9644 15.3689L16.6311 2.03558C16.4646 1.87003 16.2393 1.7771 16.0044 1.7771C15.7696 1.7771 15.5443 1.87003 15.3778 2.03558L2.04443 15.3689C1.8988 15.539 1.82271 15.7577 1.83135 15.9814C1.83999 16.2051 1.93273 16.4173 2.09104 16.5756C2.24934 16.7339 2.46156 16.8267 2.68527 16.8353C2.90898 16.844 3.12772 16.7679 3.29776 16.6223L16 3.92003L28.7022 16.6311C28.8723 16.7768 29.091 16.8529 29.3147 16.8442C29.5384 16.8356 29.7506 16.7428 29.9089 16.5845C30.0672 16.4262 30.16 16.214 30.1686 15.9903C30.1773 15.7666 30.1012 15.5478 29.9555 15.3778L29.9644 15.3689Z" fill="#49516F"/>
<path d="M24.8889 28.4444H20.4445V19.5555H11.5556V28.4444H7.11115V16L5.33337 17.7777V28.4444C5.33337 28.9159 5.52067 29.3681 5.85407 29.7015C6.18747 30.0349 6.63966 30.2222 7.11115 30.2222H13.3334V21.3333H18.6667V30.2222H24.8889C25.3604 30.2222 25.8126 30.0349 26.146 29.7015C26.4794 29.3681 26.6667 28.9159 26.6667 28.4444V17.5644L24.8889 15.7866V28.4444Z" fill="#49516F"/>
</svg>
