<svg width="32" height="32" viewBox="0 0 32 32" fill="none" xmlns="http://www.w3.org/2000/svg">
<path d="M27.2088 21.7955C25.7805 20.248 24.0472 19.0129 22.1181 18.1682C20.189 17.3235 18.1058 16.8875 15.9999 16.8875C13.894 16.8875 11.8108 17.3235 9.88172 18.1682C7.95261 19.0129 6.21932 20.248 4.791 21.7955C4.57048 22.0393 4.44713 22.3556 4.44434 22.6844V28.0177C4.44901 28.3683 4.59155 28.7028 4.84109 28.9491C5.09063 29.1953 5.42711 29.3333 5.77767 29.3333H26.2221C26.5757 29.3333 26.9149 29.1928 27.1649 28.9428C27.415 28.6927 27.5554 28.3536 27.5554 27.9999V22.6666C27.5484 22.344 27.4253 22.0348 27.2088 21.7955Z" fill="#49516F"/>
<path d="M15.9996 15.1111C19.436 15.1111 22.2218 12.3253 22.2218 8.88885C22.2218 5.45241 19.436 2.66663 15.9996 2.66663C12.5631 2.66663 9.77734 5.45241 9.77734 8.88885C9.77734 12.3253 12.5631 15.1111 15.9996 15.1111Z" fill="#49516F"/>
</svg>
